<?xml version="1.0" standalone="no"?>
<!DOCTYPE svg PUBLIC "-//W3C//DTD SVG 20010904//EN"
 "http://www.w3.org/TR/2001/REC-SVG-20010904/DTD/svg10.dtd">
<svg version="1.0" xmlns="http://www.w3.org/2000/svg"
 width="146.000000pt" height="146.000000pt" viewBox="0 0 146.000000 146.000000"
 preserveAspectRatio="xMidYMid meet">
<metadata>
Created by potrace 1.11, written by Peter Selinger 2001-2013
</metadata>
<g transform="translate(0.000000,146.000000) scale(0.100000,-0.100000)"
fill="#000000" stroke="none">
<path d="M302 1298 c-187 -255 -189 -259 -158 -271 8 -3 59 16 114 43 186 93
392 129 604 105 114 -13 268 -63 374 -122 62 -34 94 -35 94 -4 -1 9 -47 79
-104 156 l-103 140 -391 3 -391 2 -39 -52z"/>
<path d="M565 1026 c-80 -15 -145 -36 -227 -73 -57 -25 -74 -44 -61 -68 17
-29 119 -154 129 -159 7 -2 38 6 70 19 33 14 85 30 117 36 33 7 61 18 64 26 3
8 -4 32 -16 53 -27 48 -27 79 2 121 43 63 131 63 174 0 28 -42 29 -76 3 -119
-31 -50 -20 -67 53 -82 34 -7 86 -24 116 -37 29 -12 55 -23 57 -23 2 0 35 38
74 85 51 61 70 91 65 104 -7 23 -123 76 -225 103 -98 25 -299 33 -395 14z"/>
<path d="M553 624 c-23 -8 -44 -22 -47 -30 -7 -17 92 -194 109 -194 6 0 19 6
28 13 15 10 17 27 15 117 l-3 105 -30 2 c-16 1 -49 -5 -72 -13z"/>
<path d="M807 633 c-4 -3 -7 -52 -7 -108 0 -109 10 -133 47 -121 23 8 114 171
107 190 -10 26 -129 58 -147 39z"/>
<path d="M690 266 c-5 -5 -10 -15 -10 -22 0 -20 42 -124 50 -124 9 0 50 106
50 131 0 10 -3 19 -7 20 -47 5 -74 4 -83 -5z"/>
</g>
</svg>
