<?xml version="1.0" encoding="utf-8"?>
<!-- Generator: Adobe Illustrator 24.0.1, SVG Export Plug-In . SVG Version: 6.00 Build 0)  -->
<svg version="1.1" id="Capa_1" xmlns="http://www.w3.org/2000/svg" xmlns:xlink="http://www.w3.org/1999/xlink" x="0px" y="0px"
	 viewBox="0 0 512 512" style="enable-background:new 0 0 512 512;" xml:space="preserve">
<style type="text/css">
	.st0{fill:#FFFFFF;}
</style>
<g>
	<g>
		<path class="st0" d="M256,81c-96.7,0-175,78.7-175,175c0,96.7,78.7,175,175,175c96.2,0,175-78.2,175-175
			C431,159.5,352.5,81,256,81z M224.2,114.5c10.2-2.3,20.9-3.5,31.8-3.5s21.5,1.2,31.8,3.5c4.5,15.5,8.2,33.3,11,52.5
			c-28.6-0.6-57-0.6-85.6,0C216,147.8,219.7,130,224.2,114.5z M190.1,126.9c-2.9,12.9-5.4,26.6-7.4,41.1
			c-14.7,0.6-29.2,1.3-43.5,2.2C152.6,152.1,169.9,137.2,190.1,126.9z M121.7,310.6c-6.9-16.9-10.7-35.3-10.7-54.6
			s3.8-37.7,10.7-54.6c18.8-1.4,38.1-2.5,57.7-3.3c-3.2,37.7-3.2,78.1,0,115.8C159.8,313.1,140.5,312,121.7,310.6z M139.2,341.9
			c14.3,0.9,28.8,1.6,43.5,2.2c2,14.5,4.4,28.2,7.4,41.1C169.9,374.8,152.6,359.9,139.2,341.9z M287.8,397.5
			c-10.2,2.3-20.9,3.5-31.8,3.5s-21.5-1.2-31.8-3.5c-4.5-15.5-8.2-33.3-11-52.5c28.6,0.6,57,0.6,85.6,0
			C296,364.2,292.3,382,287.8,397.5z M302.4,314.9c-30.2,0.7-61.6,0.7-92.7,0c-3.5-38.5-3.5-79.2,0-117.7c30.2-0.7,61.6-0.7,92.7,0
			C305.9,235.7,305.9,276.4,302.4,314.9z M372.8,170.1c-14.3-0.9-28.8-1.6-43.5-2.2c-2-14.4-4.4-28.2-7.4-41.1
			C342.1,137.2,359.4,152.1,372.8,170.1z M322,385.1c2.9-12.9,5.4-26.6,7.4-41.1c14.7-0.6,29.2-1.3,43.5-2.2
			C359.4,359.9,342.1,374.8,322,385.1z M332.6,313.9c3.2-37.7,3.2-78.1,0-115.8c19.6,0.8,38.9,1.9,57.7,3.3
			c6.9,16.9,10.7,35.3,10.7,54.6s-3.8,37.7-10.7,54.6C371.5,312,352.2,313.1,332.6,313.9z"/>
	</g>
</g>
</svg>
