<?xml version="1.0" encoding="utf-8"?>
<!-- Generator: Adobe Illustrator 23.0.4, SVG Export Plug-In . SVG Version: 6.00 Build 0)  -->
<svg version="1.1" id="Layer_1" xmlns="http://www.w3.org/2000/svg" xmlns:xlink="http://www.w3.org/1999/xlink" x="0px" y="0px"
	 viewBox="0 0 900 900" style="enable-background:new 0 0 900 900;" xml:space="preserve">
<style type="text/css">
	.st0{fill:#FFFFFF;}
</style>
<g>
	<polygon class="st0" points="137.25,556.51 136.54,531.68 158.74,599.2 167.24,599.19 167.08,500.76 156.85,500.77 156.92,539.3 
		158.13,567.77 135.21,500.8 126.49,500.82 126.64,599.24 137.33,599.23 	"/>
	<path class="st0" d="M230.28,510.27c-2.47-7.23-8.11-10.84-16.91-10.83c-6.04,0.01-10.64,1.66-13.81,4.94
		c-4.02,4.18-6.03,11.86-6,23.05l0.07,43.4c0.01,10.22,1.49,17.67,4.43,22.36c2.94,4.69,7.99,7.03,15.16,7.02
		c7.17-0.01,12.2-2.36,15.07-7.04c2.86-4.68,4.28-12.15,4.27-22.41l-0.07-43.4C232.48,520.26,231.75,514.56,230.28,510.27z
		 M219.44,586.15c-1.04,2.74-3.15,4.12-6.31,4.12s-5.28-1.35-6.32-4.04c-1.05-2.7-1.58-7.8-1.59-15.3l-0.07-44.24
		c-0.01-6.15,0.57-10.57,1.77-13.26s3.31-4.03,6.37-4.04c3.06,0,5.09,1.3,6.1,3.93c1.02,2.63,1.52,7.1,1.53,13.39l0.07,44.18
		C221,578.33,220.48,583.42,219.44,586.15z"/>
	<path class="st0" d="M269.07,500.59l-14.78,98.45l11.02-0.02l2.54-18.8l17.84-0.03l2.83,18.79l10.9-0.02l-16.43-98.41
		L269.07,500.59z M269.12,570.84l7.07-52.02h0.17l7.86,52L269.12,570.84z"/>
	<polygon class="st0" points="349.81,500.46 349.88,541.74 334.11,541.76 334.04,500.5 322.46,500.51 322.63,598.94 334.21,598.91 
		334.13,551.21 349.9,551.19 349.97,598.89 361.55,598.88 361.39,500.45 	"/>
	<path class="st0" d="M403.96,499.31l-15.53,0.02c-0.49,0-0.87,0.4-0.87,0.87l0.02,11.68c0,0.49,0.4,0.87,0.87,0.87l6.26-0.01
		c0.56,0,0.97,0.52,0.86,1.06l-3.73,17.26c-0.21,0.97,1.1,1.48,1.61,0.63l11.28-19.26c0.08-0.13,0.12-0.29,0.12-0.44l-0.02-11.81
		C404.83,499.71,404.45,499.31,403.96,499.31z"/>
	<path class="st0" d="M444.2,538.23c-0.19-0.22-1.1-1.18-2.75-2.88c-1.64-1.69-3.02-3.48-4.15-5.33c-1.13-1.87-1.69-4.81-1.69-8.83
		c-0.01-4.03,0.61-7.06,1.83-9.12c1.23-2.05,3.23-3.08,6.04-3.09c1.49,0,2.7,0.35,3.64,1.06c0.93,0.71,1.72,2.14,2.35,4.3
		c0.64,2.16,0.96,6.38,0.97,12.64l0.01,6.6l11.07-0.02l-0.01-5.82c-0.01-6-0.39-10.98-1.14-14.93c-1.73-9.17-7.37-13.74-16.91-13.73
		c-7.42,0.01-12.44,2.12-15.07,6.31s-3.93,9.86-3.92,16.98c0,3.28,0.34,6.09,1.02,8.44c1.39,4.96,4.96,10.37,10.71,16.26l6.45,6.42
		c6.02,5.99,9.03,12.41,9.04,19.23c0,3.4-0.08,6.45-0.23,9.17c-0.17,2.73-0.78,4.75-1.87,6.07c-1.08,1.32-3.04,1.99-5.87,2
		c-2.84,0-4.78-1.4-5.83-4.22c-1.05-2.81-1.58-7.81-1.59-15.01l-0.01-10.01l-11.24,0.02l0.01,9.56c0,0.19,0,0.38,0,0.56
		c0.01,7.12,0.71,12.88,2.1,17.27c2.4,7.83,8.06,11.73,16.96,11.72c7.38-0.01,12.38-2.26,15.01-6.77
		c2.63-4.49,3.93-10.99,3.91-19.49c-0.02-10.44-4.06-19.87-12.13-28.28L444.2,538.23z"/>
	<path class="st0" d="M556.94,545.27c2.79-1.49,4.72-3.91,5.81-7.22c1.07-3.32,1.61-7.87,1.6-13.65v-2.13
		c-0.09-8.01-1.47-13.71-4.14-17.07c-2.67-3.37-7.71-5.04-15.13-5.03l-17.78,0.03l0.15,98.43l19.24-0.03
		c7.09-0.01,12.05-2.15,14.92-6.42c2.86-4.27,4.35-11.34,4.44-21.17v-2.06C566.02,555.6,562.98,547.72,556.94,545.27z
		 M538.88,509.61l5.71-0.01c2.13,0,3.75,0.3,4.87,0.88c2.27,1.19,3.42,5.07,3.43,11.62c0,0.11,0,0.22,0,0.33v2.74
		c0.01,4.92-0.19,8.47-0.6,10.63c-0.41,2.16-1.08,3.61-2.03,4.34c-0.95,0.73-2.54,1.09-4.78,1.09l-6.55,0.01L538.88,509.61z
		 M552.73,585.37c-1.14,2.57-3.34,3.86-6.62,3.87l-7.11,0.01l-0.07-39.09l7.71-0.01c3.06,0,5.11,1.26,6.16,3.8s1.58,6.98,1.59,13.31
		v3.41C554.42,577.9,553.86,582.8,552.73,585.37z"/>
	<path class="st0" d="M628.71,560.84c-0.53-4.76-1.43-8.22-2.7-10.4c-1.27-2.17-3.13-3.47-5.6-3.87c3.36-1.02,5.68-3.23,7.01-6.67
		c1.31-3.43,1.98-7.67,1.96-12.73c-0.01-5.05-0.12-8.77-0.35-11.16c-0.53-5.82-2.09-9.93-4.66-12.35
		c-2.57-2.42-6.79-3.62-12.65-3.62l-20.64,0.03l0.15,98.43l11.58-0.02l-0.08-47.54l6.88,0.38c2.79,0,4.88,0.56,6.27,1.7
		c1.38,1.14,2.07,5.22,2.09,12.27c0.03,20.92,0.35,31.97,0.95,33.17l11.52-0.02c-0.6-1.57-0.9-7.03-0.92-16.41
		C629.51,572.66,629.23,565.59,628.71,560.84z M617.25,536.22c-0.44,2.43-1.19,4.06-2.23,4.92c-1.05,0.86-2.68,1.29-4.92,1.29
		l-7.38,0.01l-0.06-33.22l7.27-0.01c2.57,0,4.54,0.58,5.9,1.78c1.36,1.19,2.05,5.57,2.06,13.13v0.67
		C617.92,530,617.71,533.81,617.25,536.22z"/>
	<polygon class="st0" points="667.55,588.77 667.5,552.87 684.38,552.83 684.37,543.22 667.47,543.24 667.43,509.58 685.26,509.55 
		685.25,499.93 655.83,499.98 655.99,598.41 685.63,598.36 685.62,588.74 	"/>
	<polygon class="st0" points="764.2,499.81 757.23,575.26 745.64,499.83 736.19,499.86 725.12,575.32 716.61,499.88 705.93,499.9 
		719.06,598.31 730.25,598.28 741.26,525.63 751.9,598.25 763.35,598.24 774.83,499.79 	"/>
	<path class="st0" d="M167.69,665.71c-3.5-0.66-7.1-0.32-10.4,0.98c-0.12,0.04-0.23,0.1-0.34,0.14c2.63-4.49,3.66-9.8,2.87-14.98
		c-0.04-0.26-0.21-0.49-0.45-0.58c-0.24-0.11-0.52-0.08-0.74,0.07c-3.58,2.43-6.37,5.79-8.09,9.75c-0.13,0.3-0.25,0.6-0.38,0.91
		c-0.31-1.34-0.72-2.65-1.23-3.93c-1.96-4.97-5.28-9.26-9.59-12.41c-0.21-0.15-0.5-0.19-0.74-0.1c-0.24,0.1-0.43,0.31-0.47,0.57
		c-0.99,5.24-0.49,10.65,1.48,15.62c0.51,1.28,1.1,2.52,1.79,3.71c-0.3-0.14-0.6-0.28-0.89-0.41c-3.96-1.71-8.31-2.25-12.57-1.59
		c-0.26,0.04-0.49,0.21-0.58,0.45c-0.1,0.24-0.08,0.52,0.07,0.74c2.96,4.33,7.35,7.49,12.33,8.97c-0.12,0.04-0.23,0.09-0.35,0.13
		c-3.31,1.3-6.17,3.52-8.27,6.39c-0.15,0.21-0.19,0.5-0.1,0.74c0.1,0.24,0.31,0.42,0.57,0.47c3.36,0.64,6.74,0.35,9.92-0.81
		c-0.39,1.04-0.64,2.13-0.76,3.26c-0.02,0.26,0.09,0.52,0.29,0.68c0.21,0.17,0.49,0.21,0.74,0.12c0.13-0.04,0.28-0.1,0.41-0.15
		c3.69-1.46,6.5-4.54,7.68-8.26l2.77,7.01c0.15,0.4,0.61,0.58,1,0.43c0.4-0.15,0.58-0.61,0.43-1l-2.77-7.01
		c3.4,1.91,7.56,2.24,11.25,0.77c0.13-0.06,0.26-0.11,0.4-0.17c0.24-0.11,0.42-0.33,0.45-0.59c0.04-0.26-0.06-0.53-0.25-0.7
		c-0.85-0.74-1.79-1.37-2.78-1.87c3.09-1.32,5.81-3.48,7.79-6.19c0.15-0.21,0.19-0.5,0.1-0.74
		C168.18,665.93,167.96,665.75,167.69,665.71z"/>
	<path class="st0" d="M759.86,663.16c-4.29-0.66-8.66-0.1-12.65,1.63c-0.3,0.13-0.6,0.26-0.89,0.41c0.68-1.19,1.28-2.44,1.79-3.74
		c1.96-5.01,2.46-10.44,1.45-15.72c-0.06-0.26-0.23-0.47-0.47-0.57c-0.24-0.1-0.53-0.06-0.74,0.1c-4.33,3.19-7.65,7.52-9.61,12.52
		c-0.51,1.29-0.92,2.62-1.23,3.95c-0.12-0.31-0.24-0.61-0.38-0.91c-1.74-3.97-4.58-7.36-8.18-9.79c-0.22-0.14-0.5-0.18-0.75-0.07
		c-0.24,0.11-0.42,0.33-0.45,0.6c-0.78,5.22,0.28,10.56,2.94,15.07c-0.12-0.04-0.23-0.1-0.35-0.14c-3.33-1.3-6.95-1.63-10.47-0.96
		c-0.26,0.06-0.47,0.23-0.57,0.47c-0.1,0.24-0.06,0.53,0.1,0.74c2.01,2.73,4.75,4.88,7.86,6.2c-1,0.5-1.94,1.13-2.79,1.88
		c-0.2,0.18-0.3,0.44-0.25,0.71c0.04,0.26,0.21,0.49,0.46,0.6c0.13,0.06,0.26,0.11,0.41,0.17c3.72,1.46,7.9,1.11,11.32-0.82
		l-2.77,7.06c-0.15,0.4,0.04,0.85,0.44,1c0.4,0.15,0.85-0.04,1-0.44l2.77-7.06c1.19,3.74,4.04,6.83,7.76,8.29
		c0.13,0.06,0.28,0.1,0.41,0.15c0.25,0.09,0.53,0.04,0.74-0.12c0.21-0.17,0.32-0.43,0.29-0.68c-0.12-1.13-0.38-2.23-0.77-3.28
		c3.19,1.16,6.6,1.42,9.99,0.77c0.26-0.06,0.47-0.23,0.57-0.47s0.06-0.53-0.1-0.74c-2.12-2.88-5-5.1-8.34-6.4
		c-0.12-0.04-0.23-0.09-0.35-0.13c5.01-1.51,9.41-4.71,12.38-9.07c0.15-0.22,0.18-0.5,0.07-0.74
		C760.36,663.37,760.13,663.19,759.86,663.16z"/>
	<g>
		<path class="st0" d="M566.87,291.39c-8.44-9.16-23.32-8.39-35.27-7.78c-0.42,0.02-0.92,0.03-1.46,0.03
			c-0.17,0-0.35,0.01-0.52,0.01c-1.4-4.33-5.65-7.17-10.3-6.63c-6.47,0.75-12.79,1.26-18.88,1.53l0.01-20.74
			c2.67-0.09,5.2-1.63,6.5-4.28c1.78-3.61,0.42-7.67-3.16-9.44l-53.21-26.25c-0.63-0.31-1.31-0.7-2.04-1.09
			c-2.96-1.63-6.68-3.74-10.4-3.66c-3.63,0.01-7.13,1.94-9.94,3.49c-0.66,0.36-1.3,0.72-1.88,1l-53.72,26.7
			c-2.33,1.16-3.75,3.24-3.91,5.72c-0.17,2.6,1.19,5.26,3.45,6.77c1.1,0.73,2.34,1.14,3.6,1.21l0.31,20.56
			c-6.93-0.29-14.27-0.72-19.31-1.29c-0.38-0.04-0.75-0.07-1.11-0.07c-4.76,0.01-8.77,3.42-9.54,8.13
			c-3.89,23.9-11.43,100.82,43.14,135.23l-22.86,0.03c-7.98,0.01-12.64,5.36-13.12,10.64c-0.44,4.88,2.6,10.77,10.35,12.21
			l32.17,1.05l3.76,3.17c2.42,2.03,5.75,3.2,9.16,3.2c0.01,0,0.01,0,0.02,0l59.18-0.1c3.41-0.01,6.75-1.18,9.17-3.23l3.75-3.18
			l31.11-1.04l1.06-0.12c7.74-1.46,10.77-7.36,10.32-12.24c-0.5-5.26-5.17-10.6-13.12-10.6c-0.01,0-0.02,0-0.03,0l-22.87,0.03
			c7.19-4.57,13.29-9.88,18.45-15.69c0.07,0,0.12,0,0.2,0c1.62,0,5.18-0.28,14.6-3.82c18.33-6.9,47.01-33.78,53.36-72.05l0.03-0.23
			C576.25,311.24,573.94,299.07,566.87,291.39z M510.15,428.75h0.01c3.3,0,4.68,1.8,4.79,3c0.11,1.19-0.73,2.65-3.39,3.2
			l-31.72,1.06l-0.78,0.1c-1.32,0.3-2.52,0.87-3.44,1.67l-3.98,3.38c-0.92,0.77-2.32,1.24-3.77,1.25l-59.18,0.1h-0.01
			c-1.45,0-2.85-0.46-3.76-1.23l-4-3.37c-0.93-0.78-2.12-1.36-3.44-1.64l-32.65-1.09c-2.56-0.56-3.37-1.98-3.26-3.16
			c0.11-1.21,1.48-3.01,4.79-3.02L510.15,428.75z M430.02,225.11c0.68-0.34,1.42-0.75,2.2-1.17c1.88-1.04,4.44-2.45,5.92-2.45l0,0
			c1.58,0,4.33,1.51,6.32,2.62c0.85,0.46,1.66,0.92,2.38,1.27l45.21,22.29l-0.01,31.09c-0.45,0-0.94,0.02-1.39,0.01h-0.01
			c-26.56-0.14-41.67-6.78-48.36-9.71l-0.34-0.15c-2.52-1.1-5.39-1.09-7.89,0.01l-1.07,0.47c-5.1,2.28-14.33,6.4-29.18,8.39
			c-5.6,0.63-12.02,0.93-19.39,0.62l-0.46-30.4L430.02,225.11z M387.26,336.41l3.77-0.32v-0.11l7.25-0.83
			c2.19,0.1,3.93,1.9,3.93,4.11l0.02,16.73c0,2.22-1.8,4.07-4.02,4.12l-19.12,1.95c-2.24-0.02-4.06-1.85-4.07-4.11l-0.02-16.73
			c0-2.22,1.8-4.07,4.02-4.12l3.63-0.3v0.14L387.26,336.41z M473.83,418.35l-71.13,0.12c-60.1-28.42-52.23-107.98-48.36-131.77
			c0.1-0.63,0.64-1.09,1.42-1.09c0.01,0,0.01,0,0.02,0c7.01,0.79,18.13,1.32,26.82,1.59l0.07,41.21l-3.95,0.33
			c-6.68,0.23-12.07,5.81-12.06,12.51l0.02,16.73c0.01,6.88,5.61,12.47,12.67,12.47c0.01,0,0.01,0,0.02,0l19.24-1.96
			c6.66-0.25,12.03-5.82,12.02-12.51l-0.02-16.73c-0.01-6.88-5.61-12.47-12.49-12.47c-0.01,0-0.01,0-0.02,0l-7.05,0.78l-0.07-40.33
			c4.78-0.14,9.15-0.52,13.16-1.03c15.84-1.69,25.58-5.99,30.62-8.21l0.52-0.23c1.8-0.79,3.86-0.79,5.66-0.01
			c5.47,2.4,21.51,9.41,50.33,9.41c1.59,0,3.21-0.02,4.88-0.07c0.08,0,0.15,0,0.23,0c0.02,0,0.06,0,0.08,0l4-0.11v-0.04
			c6.41-0.28,13.07-0.81,19.87-1.59c0.7-0.09,1.32,0.4,1.43,1.08C525.66,310.17,533.77,389.59,473.83,418.35z M532.38,306.47
			c0.09-0.01,0.2-0.04,0.28-0.04c6.36-0.33,15.08-0.78,16.83,1.14c0.78,0.85,2.88,3.12,0.94,17.63
			c-3.04,18.07-15.47,34.54-24.71,43.57C532.81,346.87,533.47,323.88,532.38,306.47z M565.61,327.55
			c-5.74,34.51-32.06,59.5-48.04,65.51c-0.85,0.32-1.74,0.65-2.67,0.97c2.09-3.44,4-7.06,5.72-10.84
			c10.5-5.22,33.54-29.55,38.1-56.75c2.06-15.44,0.35-20.84-3.07-24.55c-4.43-4.8-12.8-4.37-23.42-3.82
			c-0.18,0.01-0.35,0.03-0.53,0.06c-0.22-2.19-0.45-4.23-0.71-6.13c0.36-0.01,0.72-0.02,1.02-0.03c10.21-0.53,22.91-1.18,28.69,5.09
			C565.92,302.72,567.58,312.95,565.61,327.55z"/>
	</g>
</g>
<g>
	<path class="st0" d="M222.34,646.2h3.36v40.43h-4.72v-34.04c-0.52,0.63-1.26,1.11-2.21,1.46s-1.89,0.52-2.8,0.52v-3.31
		c1.3-0.19,2.54-0.72,3.71-1.58C220.83,648.79,221.73,647.63,222.34,646.2z"/>
	<path class="st0" d="M241.4,656.42c0-3.58,0.56-6.26,1.69-8.02c1.13-1.77,3.27-2.65,6.42-2.65s5.32,0.88,6.47,2.64
		c1.15,1.75,1.72,4.44,1.72,8.04v19.3c0,3.72-0.55,6.55-1.67,8.49c-1.11,1.94-3.28,2.9-6.5,2.9s-5.39-0.96-6.49-2.88
		c-1.1-1.92-1.66-4.76-1.66-8.51v-19.3H241.4z M252.97,656.16c0-3.92-0.84-6.03-2.51-6.31c-0.26-0.04-0.64-0.07-1.13-0.07
		c-0.49,0-0.96,0.09-1.41,0.28s-0.86,0.73-1.24,1.63c-0.38,0.91-0.56,2.38-0.56,4.46v19.69c0,0.07,0,0.12,0,0.19
		c0,3.64,0.45,5.82,1.36,6.52c0.46,0.36,1.02,0.55,1.67,0.55s1.11-0.03,1.39-0.09c0.29-0.03,0.61-0.19,0.94-0.46
		c0.99-0.76,1.49-2.95,1.49-6.54c0-0.07,0-0.11,0-0.17L252.97,656.16L252.97,656.16z"/>
	<path class="st0" d="M271.8,656.42c0-3.58,0.56-6.26,1.69-8.02c1.13-1.77,3.27-2.65,6.42-2.65c3.16,0,5.32,0.88,6.47,2.64
		c1.15,1.75,1.72,4.44,1.72,8.04v19.3c0,3.72-0.55,6.55-1.67,8.49c-1.11,1.94-3.28,2.9-6.5,2.9c-3.22,0-5.39-0.96-6.49-2.88
		c-1.1-1.92-1.66-4.76-1.66-8.51v-19.3H271.8z M283.38,656.16c0-3.92-0.84-6.03-2.51-6.31c-0.26-0.04-0.64-0.07-1.13-0.07
		c-0.49,0-0.96,0.09-1.41,0.28c-0.45,0.19-0.86,0.73-1.24,1.63c-0.38,0.91-0.56,2.38-0.56,4.46v19.69c0,0.07,0,0.12,0,0.19
		c0,3.64,0.45,5.82,1.36,6.52c0.46,0.36,1.02,0.55,1.67,0.55s1.11-0.03,1.39-0.09c0.29-0.03,0.61-0.19,0.94-0.46
		c0.99-0.76,1.49-2.95,1.49-6.54c0-0.07,0-0.11,0-0.17L283.38,656.16L283.38,656.16z"/>
	<path class="st0" d="M301.16,651.51c0-2.16,0.31-3.66,0.94-4.51c0.63-0.85,1.74-1.27,3.37-1.27c1.61,0,2.74,0.42,3.36,1.27
		c0.63,0.85,0.94,2.36,0.94,4.51v4.92c0,2.2-0.32,3.74-0.96,4.61c-0.64,0.88-1.75,1.31-3.34,1.31c-1.59,0-2.7-0.44-3.34-1.31
		c-0.64-0.87-0.96-2.42-0.96-4.61v-4.92H301.16z M307.2,650.56c0-0.99-0.12-1.68-0.36-2.05c-0.24-0.38-0.7-0.55-1.37-0.55
		s-1.14,0.19-1.37,0.56c-0.24,0.38-0.36,1.06-0.36,2.04v6.88c0,1.02,0.12,1.72,0.36,2.11c0.24,0.4,0.7,0.58,1.37,0.58
		s1.13-0.2,1.37-0.58c0.24-0.4,0.36-1.09,0.36-2.11V650.56z M317.85,646.02h2.37l-9.7,24.39h-2.48L317.85,646.02z M318.42,659.84
		c0-2.16,0.31-3.66,0.94-4.51c0.63-0.85,1.74-1.28,3.37-1.28s2.74,0.42,3.37,1.28c0.63,0.85,0.94,2.35,0.94,4.51v4.92
		c0,2.2-0.32,3.74-0.96,4.61s-1.75,1.31-3.34,1.31c-1.59,0-2.72-0.44-3.34-1.31c-0.64-0.88-0.96-2.42-0.96-4.61V659.84z
		 M324.46,658.88c0-0.99-0.12-1.68-0.36-2.05c-0.24-0.36-0.7-0.55-1.37-0.55s-1.14,0.19-1.37,0.56c-0.24,0.38-0.36,1.06-0.36,2.04
		v6.88c0,1.02,0.12,1.72,0.36,2.11c0.24,0.4,0.7,0.58,1.36,0.58s1.11-0.2,1.37-0.58c0.25-0.4,0.38-1.09,0.38-2.11V658.88z"/>
	<path class="st0" d="M380.91,646.22h4.76v40.4h-4.76v-19.58h-6.48v19.58h-4.76v-40.4h4.76v16.94h6.48V646.22z"/>
	<path class="st0" d="M401.68,646.22h12.07v3.95h-7.32v13.82h6.93v3.95h-6.93v14.73h7.42v3.95h-12.16v-40.41H401.68z"/>
	<path class="st0" d="M445.97,646.22h5.95v40.4h-4.23v-16.2l0.39-15.1l-5.49,31.23h-4.29l-5.72-31.23l0.39,15.1v16.2h-4.21v-40.4
		h5.93l5.78,33.21L445.97,646.22z"/>
	<path class="st0" d="M467.92,646.22h8.12c3.58,0,5.83,1.48,6.74,4.45c0.58,1.87,0.87,4.05,0.87,6.55c0,2.49-0.07,4.37-0.21,5.63
		c-0.31,2.76-1.04,4.77-2.19,6.03c-1.15,1.26-2.89,1.9-5.23,1.9h-3.38v15.86h-4.76v-40.41H467.92z M478.93,657.63
		c0-2.77-0.22-4.73-0.65-5.9c-0.44-1.16-1.29-1.74-2.58-1.74h-3v16.83h2.89c1.35,0,2.24-0.59,2.68-1.77
		c0.44-1.18,0.66-3.39,0.66-6.63L478.93,657.63L478.93,657.63z"/>
	<path class="st0" d="M518.68,646.22h12.16v3.97h-7.44v12.76h6.98v4.02h-6.98v19.65h-4.72V646.22z"/>
	<path class="st0" d="M545.24,646.22h4.76v36.48h7.46v3.93h-12.21v-40.41H545.24z"/>
	<path class="st0" d="M570.04,657.19c0-4.59,0.83-7.75,2.48-9.46c1.3-1.35,3.19-2.02,5.67-2.02c3.61,0,5.93,1.48,6.93,4.46
		c0.6,1.75,0.89,4.09,0.89,7.02V675c0,4.21-0.58,7.27-1.77,9.19c-1.18,1.92-3.24,2.88-6.18,2.88c-2.95,0-5.02-0.96-6.22-2.89
		c-1.2-1.93-1.8-4.99-1.8-9.18v-17.81H570.04z M581.26,656.91c0-2.58-0.21-4.41-0.62-5.5c-0.41-1.08-1.25-1.62-2.51-1.62
		s-2.13,0.55-2.62,1.66c-0.49,1.1-0.74,2.91-0.74,5.44v18.16c0,3.08,0.21,5.17,0.64,6.28c0.43,1.11,1.29,1.67,2.59,1.67
		c1.3,0,2.16-0.56,2.59-1.69c0.43-1.13,0.64-3.21,0.64-6.26v-18.13H581.26z"/>
	<path class="st0" d="M623.66,646.22h4.36l-4.78,40.4h-4.7l-4.32-29.82l-4.57,29.82h-4.59l-5.33-40.4h4.38l3.44,30.97l4.59-30.97
		h3.87l4.7,30.97L623.66,646.22z"/>
	<path class="st0" d="M642.17,646.22h12.07v3.95h-7.32v13.82h6.93v3.95h-6.93v14.73h7.42v3.95h-12.16v-40.41H642.17z"/>
	<path class="st0" d="M669.27,646.22h8.47c2.41,0,4.13,0.5,5.19,1.49c1.06,0.99,1.69,2.68,1.91,5.08c0.09,0.98,0.14,2.51,0.14,4.58
		c0,2.08-0.28,3.82-0.82,5.22c-0.54,1.41-1.5,2.32-2.88,2.73c1.02,0.17,1.78,0.71,2.3,1.6c0.52,0.89,0.88,2.32,1.1,4.27
		c0.22,1.95,0.32,4.86,0.32,8.7c0,3.85,0.12,6.09,0.36,6.73h-4.72c-0.24-0.49-0.36-5.02-0.36-13.61c0-2.89-0.29-4.57-0.85-5.03
		c-0.56-0.46-1.42-0.7-2.57-0.7l-2.83-0.17v19.51h-4.76L669.27,646.22L669.27,646.22z M680.27,656.12c0-3.11-0.28-4.9-0.84-5.4
		c-0.56-0.49-1.37-0.74-2.42-0.74h-2.98v13.63h3.04c0.92,0,1.59-0.18,2.02-0.53c0.43-0.35,0.74-1.03,0.92-2.02
		c0.19-0.99,0.28-2.56,0.28-4.68v-0.26H680.27z"/>
</g>
</svg>
