<?xml version="1.0" encoding="utf-8"?>
<!-- Generator: Adobe Illustrator 23.0.4, SVG Export Plug-In . SVG Version: 6.00 Build 0)  -->
<svg version="1.1" id="Layer_1" xmlns="http://www.w3.org/2000/svg" xmlns:xlink="http://www.w3.org/1999/xlink" x="0px" y="0px"
	 viewBox="0 0 900 900" style="enable-background:new 0 0 900 900;" xml:space="preserve">
<style type="text/css">
	.st0{fill:#A92830;}
	.st1{fill:#E73043;}
	.st2{fill:none;}
	.st3{fill:#EF7C71;}
</style>
<g>
	<path class="st0" d="M107.07,320.84c3.88-4.27,9.63-37.62,24.28-55.56c15.53-19.02,33.52-22.13,50.99-21.09
		c15.51,0.92,27.76,6.94,34.68,12.94c11.65,10.09,23.07,25.71,30.02,39.86c7.76,15.79,11,23.68,9.45,28.73
		c-0.85,2.77-6.73,3.88-8.28-5.69c-1.22-7.53,9.32,75.71-9.32,99c-16.18,16.44-21.09-17.47-21.35-31.06
		c-0.26-13.59,6.73-36.88,6.99-49.31c0.11-5.43-0.78-16.69-2.72-14.75c-1.94,1.94-4.46,4.66-3.69,15.53
		c0.78,10.87-4.46,13.07-8.74,13.07s-11.52-2.98-8.15-15.4c2.51-9.27,8.02-19.28,8.8-23.94c0.74-4.47,1.97-18.35-9.96-26.14
		c-9.71-6.34-14.88-1.29-14.88-1.29s-7.76,2.98-1.04,28.86c7.39,28.44-0.77,44.97-3.11,49.18c-3.88,6.99-18.64,11-20.97-6.08
		c-1.75-14.95,3.11-27.37,5.44-33s5.82-25.62-2.33-31.84c-8.15-6.21-24.85-5.82-24.85,25.62s13.2,58.62,13.2,58.62
		S169,409.32,202,431.06s55.39,63.67,56.68,93.57c1.29,29.89,2.33,49.69-7.76,60.95c-10.09,11.26-22.52,24.85-20.97,30.28
		c1.55,5.44,12.04,23.29,3.11,31.45c-8.93,8.15-17.86,3.49-19.8-4.27c-1.94-7.76,10.87-18.64,9.32-26.01
		c-1.55-7.38-2.72-6.99-5.44-7.38s-30.28,10.09-63.67-8.54c-33.39-18.64-36.88-24.85-40.38-28.73c-3.49-3.88-8.93-10.87-10.87-8.54
		c-1.94,2.33-4.27,7.76,0.78,18.25c5.05,10.48,5.31,14.88,4.66,17.08c-0.65,2.2-3.24,5.56-8.54,5.44
		c-5.31-0.13-8.93-5.82-9.32-16.69s5.05-32.22-0.39-50.47c-5.44-18.25-13.2-42.19-15.27-53.06c-1.6-8.39-2.2-24.59,8.67-24.98
		s13.59,22.13,13.59,22.13s7.38,45.42,34.55,61.73s37.66,24.07,69.11,13.2c31.45-10.87,19.41-53.58,19.41-53.58
		s-6.86-25.75-22.13-40.77c-6.99-5.44-20.19-20.97-24.85-6.21c-4.66,14.75,2.07,37.53,3.11,43.87s3.11,16.69-5.44,24.07
		c-13.59,10.87-20.71-5.82-21.48-11.52c-0.78-5.69-1.81-11.78,7.12-27.31c8.93-15.53,4.27-43.09,1.16-50.08
		c-3.11-6.99-19.02-31.84-28.73-28.73s-1.55,29.51-1.55,29.51s3.88,15.53-10.09,13.98s-8.15-28.34-8.15-28.34s4.66-17.08,4.27-26.79
		c-0.39-9.71,2.51-20.64-6.42-30.73S103.18,325.11,107.07,320.84z"/>
	<path class="st0" d="M437.67,344.48c0,0,10.09,0.78,8.54,14.75c-1.55,13.98-10.68,51.64-12.42,58.62
		c-1.75,6.99-10.09,46.78-10.87,53.97c-0.78,7.18-0.58,28.15,1.55,34.17c2.14,6.02,4.46,10.29,9.71,10.87
		c5.24,0.58,13.59-7.76,16.31-15.92c2.72-8.15,8.54-25.04,9.71-31.06c1.16-6.02,0.39-11.65,0.39-11.65s-2.33,4.66-5.05,3.49
		c-2.72-1.16-8.15-6.21,1.16-21.74c9.32-15.53,4.27-36.11,7.76-52.41c3.49-16.31,13.59-46.59,13.59-46.59s1.55-7.38,10.48-9.32
		c8.93-1.94,9.96,0.39,11.65,2.59c3.36,4.4,5.82,24.59,6.6,29.25s1.94,18.64-2.33,20.58c-4.27,1.94-8.15,1.94-10.09,0.78
		c-1.94-1.16-3.88-5.82-3.88-16.69c0-10.87-1.94,62.51-0.78,65.61c1.16,3.11-1.94,21.74-0.39,26.01c1.55,4.27,7.76,20.76,7.76,24.59
		c0,3.88,0.26,7.89-3.62,8.28s-5.31-6.86-5.31-6.86s7.76,24.85,4.27,40.77s-6.73,28.21-8.54,33.78s-5.82,8.93-9.71,8.54
		s-8.54-2.33-7.38-13.59c1.16-11.26-1.16-12.04-3.49-12.04c-2.33,0-6.21,4.66-6.21,9.32s1.16,18.25-7.38,17.47s2.33-11.65-0.78-13.2
		c-3.11-1.55-5.05,5.44-10.87,5.05c-5.82-0.39-15.14,0.39-15.14,0.39s-2.72,1.16-1.55,5.82c1.16,4.66,4.66,18.25-5.05,17.47
		c-9.71-0.78-7.76-27.95-7.76-27.95s-18.25-14.36-14.36-55.13s4.27-47.37,4.27-47.37s-0.39,15.53-9.32,11.26s5.05-25.62,5.05-25.62
		s5.05-5.82,6.99-17.86c1.94-12.04,8.15-39.02,10.09-47.37c1.94-8.35,4.01-13.85,7.38-19.8
		C422.73,348.5,428.35,342.93,437.67,344.48z"/>
	<path class="st0" d="M631.01,398.06c0,0-2.98,6.6-1.42,9.96c1.55,3.36,4.81,4.79,7.64,4.79c5.44,0,8.93-2.46,9.32-6.21
		c0.39-3.75,0.39-6.6-1.94-16.31c-2.33-9.71-0.39-17.86-0.39-22.13s0-11.65-10.09-19.41c-10.09-7.76-22.32-12.68-30.67-13.72
		c-8.35-1.04-22-3.36-39.86,11.65s-19.67,18.38-24.2,23.42c-4.53,5.05-5.82,8.15-10.48,11.26c-4.66,3.11-14.36,12.04-8.93,13.2
		c5.44,1.16,8.54-1.55,8.54-1.55s-16.61,45.83-17.47,67.17c-0.78,19.28-4.95,39.7-0.52,55.78c2.07,7.51,5.18,17.86,11.39,17.99
		s6.6-3.49,6.99-12.42s7.25,9.11,11.65,14.75c7.76,9.96,16.05,8.41,15.27,11.52c-0.78,3.11-2.46,12.16,3.36,13.72
		c5.82,1.55,11.52-2.72,10.61-7.76c-0.91-5.05-1.81-6.47,1.29-5.69s20.32,5.31,30.41-0.91c10.09-6.21,10.48-4.27,10.48-4.27
		s-1.16,8.54-3.88,14.36c-2.72,5.82-2.72,8.15-0.39,9.71c2.33,1.55,7.06,3.29,10.87,0.39c3.24-2.46,4.66-7.76,1.55-12.04
		c-3.11-4.27-3.2-11.01-1.94-12.81c1.13-1.62,12.99-6.73,19.8-10.87c4.98-3.03,12.81-10.48,11.26-26.79
		c-1.55-16.31-3.88-28.47-12.42-32.35s-13.59-1.04-13.59-1.04s-8.02,2.2-22.91,17.08c-13.72,13.72-27.44,11.13-35.2,9.32
		c-6.21-2.07-16.82-5.82-21.09-29.89c-4.27-24.07-2.46-40.25-0.39-49.31c2.06-9,7.38-19.8,12.04-25.24
		c4.66-5.44,17.86-14.75,22.52-9.71c4.66,5.05,2.72,9.71,1.16,12.42c-1.55,2.72-4.92,17.6,5.95,17.6s10.09-7.76,9.19-10.22
		c-0.91-2.46-5.44-11.26-4.66-15.14s2.72-6.6,6.21-7.38c3.49-0.78,17.94-5.73,27.95,3.11C630.62,389.9,631.79,394.95,631.01,398.06z
		"/>
	<path class="st0" d="M747.87,311.48c0,0-4.27-1.55-7.76,1.55c-3.49,3.11-24.47,20.9-38.82,37.27c-5.7,6.5-19.02,21.55-21.74,26.79
		c-6.02,8.74-12.04,25.62-13.2,29.12s-1.55,7.38,0.78,12.42c2.33,5.05,3.11,7.38,3.11,10.87c0,3.49-3.49,8.54,1.16,9.71
		c4.66,1.16,7.38-3.11,7.38-3.11s4.66-5.05-0.39-14.75c-5.05-9.71,19.8-2.33,19.8-2.33s38.05,5.44,37.27,8.54s0.78,5.82-31.06,23.68
		c-31.84,17.86-44.26,26.79-44.26,26.79s-6.99,4.27-3.11,11.65c3.88,7.38,5.05,10.87,12.04,15.92s55.52,24.07,55.52,24.07
		s14.75,4.66,13.2,16.69c-1.55,12.04-8.54,21.74-8.54,21.74s-8.27,14.73,1.04,19.02c6.73,3.11,11.65,0.26,13.72-3.49
		c2.07-3.75,2.98-12.94,6.47-14.88c3.49-1.94,10.61-7.64,6.34,7.51c-4.27,15.14-12.81,24.07-15.53,32.22
		c-2.72,8.15-10.48,32.22,14.75,38.05s31.19-18.51,30.28-28.34c-0.91-9.84-0.78-25.62-13.2-49.69s12.04-17.47,14.36-17.47
		c2.33,0,6.99,0.39,10.48-3.49c3.49-3.88,27.57-68.33,27.57-68.33s7.51-16.31-3.49-18.25c-11-1.94-12.81,5.44-12.81,5.44
		s-9.71,26.01-18.25,34.55c-5.05,6.73-8.15,7.25-13.98,7.38c-5.82,0.13-65.22-7.76-80.37-20.58c-12.68-9.84,22-20.97,31.06-25.24
		c9.06-4.27,24.07-18.25,26.4-15.53c2.33,2.72-2.33,16.95,9.32,17.08c11.65,0.13,5.44-12.42,5.44-12.42s-4.27-5.82-1.16-8.93
		c3.11-3.11,36.88-24.07,36.11-29.12s0.39-8.15-13.98-8.15s-67.55-2.33-83.08-10.09c-15.53-7.76,1.81-20.19,7.76-27.95
		c5.95-7.76,10.87-14.75,15.53-15.92c4.66-1.16,17.08,5.31,20.19,7.76c3.11,2.46,4.66,1.55,3.49,9.71s-0.39,14.75,4.27,15.14
		c4.66,0.39,6.6,0.78,6.6-3.11s-2.33-13.98,0.39-12.04c2.72,1.94,14.49,7.51,19.8,6.99s7.38-1.94,5.82-6.99
		c-1.55-5.05-22.13-39.99-26.4-45.04S755.64,311.48,747.87,311.48z"/>
	<path class="st0" d="M213.91,259.2c5.95,0.78,35.59,39.01,32.61,46.33c-3.12,7.68-3.1-8.36-18.12-27.95
		c-8.31-10.83-17.5-14.19-19.41-16.82C207.82,259.13,210.57,257.76,213.91,259.2z"/>
	<path class="st0" d="M241.46,407.81c-0.49,5.53-4.26,12.74-9.95,13.59c-4.56,0.68-3.77-2.52-0.23-3.97
		c7.63-3.13,5.57-8.95,7.27-11.9C239.55,403.8,241.7,403.88,241.46,407.81z"/>
</g>
<g>
	<path class="st1" d="M197.73,429.12c-33-21.74-50.47-53.97-50.47-53.97s-13.2-27.18-13.2-58.62s16.69-31.84,24.85-25.62
		c8.15,6.21,4.66,26.21,2.33,31.84s-7.18,18.05-5.44,33c2.33,17.08,17.08,13.07,20.97,6.08c2.34-4.21,10.5-20.74,3.11-49.18
		c-6.73-25.88,1.04-28.86,1.04-28.86s5.18-5.05,14.88,1.29c11.93,7.8,10.71,21.67,9.96,26.14c-0.78,4.66-6.29,14.67-8.8,23.94
		c-3.36,12.42,3.88,15.4,8.15,15.4s9.51-2.2,8.74-13.07c-0.78-10.87,1.75-13.59,3.69-15.53c1.94-1.94,2.83,9.32,2.72,14.75
		c-0.26,12.42-7.25,35.72-6.99,49.31c0.26,13.59,5.18,47.49,21.35,31.06c18.64-23.29,8.1-106.53,9.32-99
		c1.55,9.58,7.43,8.46,8.28,5.69c1.55-5.05-1.68-12.94-9.45-28.73c-6.96-14.15-18.38-29.77-30.02-39.86
		c-6.92-6-19.17-12.02-34.68-12.94c-17.47-1.04-35.46,2.07-50.99,21.09c-14.65,17.94-20.73,40.6-24.28,55.56
		c-1.85,7.83-4.01,26.76,0.81,36.23c3.1,6.1,4.55,30.58,4.83,37.49c0.39,9.71-4.27,26.79-4.27,26.79s-5.82,26.79,8.15,28.34
		s10.09-13.98,10.09-13.98s-8.15-26.4,1.55-29.51s25.62,21.74,28.73,28.73c3.11,6.99,7.76,34.55-1.16,50.08
		c-8.93,15.53-7.89,21.61-7.12,27.31c0.78,5.69,7.89,22.39,21.48,11.52c8.54-7.38,6.47-17.73,5.44-24.07
		c-1.04-6.34-7.76-29.12-3.11-43.87c4.66-14.75,17.86,0.78,24.85,6.21c15.27,15.01,22.13,40.77,22.13,40.77s12.04,42.71-19.41,53.58
		c-31.45,10.87-41.93,3.11-69.11-13.2s-34.55-61.73-34.55-61.73s-2.72-22.52-13.59-22.13s-10.27,16.59-8.67,24.98
		c2.07,10.87,9.84,34.81,15.27,53.06s0,39.6,0.39,50.47s4.01,16.57,9.32,16.69c5.31,0.13,7.89-3.24,8.54-5.44s0.39-6.6-4.66-17.08
		c-5.05-10.48-2.72-15.92-0.78-18.25c1.94-2.33,7.38,4.66,10.87,8.54c3.49,3.88,6.99,10.09,40.38,28.73
		c33.39,18.64,60.95,8.15,63.67,8.54c2.72,0.39,3.88,0,5.44,7.38c1.55,7.38-11.26,18.25-9.32,26.01c1.94,7.76,10.87,12.42,19.8,4.27
		s-1.55-26.01-3.11-31.45c-1.55-5.44,10.87-19.02,20.97-30.28c10.09-11.26,9.06-31.06,7.76-60.95
		C253.12,492.79,230.73,450.86,197.73,429.12z M237.18,405.87c-0.49,5.53-4.26,12.74-9.95,13.59c-4.56,0.68-3.77-2.52-0.23-3.97
		c7.63-3.13,5.57-8.95,7.27-11.9C235.27,401.86,237.43,401.94,237.18,405.87z M209.38,256.48c5.95,0.78,35.59,39.01,32.61,46.33
		c-3.12,7.68-3.87-7.33-18.89-26.92c-8.31-10.84-16.72-15.23-18.64-17.86C203.29,256.42,206.04,255.04,209.38,256.48z
		 M169.93,361.41c3.16-2.86,3.68-5.59,4.8-7.41c0.66-1.07,2.04-1.3,1.83,0.88c-0.39,3.08-1.79,6.04-5.34,8.84
		C168.81,365.62,168.01,363.15,169.93,361.41z M216.94,452.42c-8.5-9.51-15.66-14.39-17.62-16.7c-1.2-1.42,5.22,0.85,7.35,2.5
		c2.64,1.87,6.26,4.36,13.59,12.55c8.91,9.95,15.79,21.75,16.19,25.47C237.24,483.59,232.32,469.61,216.94,452.42z"/>
	<g>
		<path class="st2" d="M336.38,348.24c-0.92-0.26-1.71-0.38-2.38-0.46c-3.24-0.39-4.41,1.01-2.43,1.26c0.05,0.01,0.1,0.01,0.15,0.02
			c0.07-0.02,0.14-0.04,0.21-0.05C333.41,348.66,334.89,348.38,336.38,348.24z"/>
		<path class="st2" d="M374.73,425.42c-0.82-0.47-1.7-0.83-2.56-1.04c-0.07,0.55-0.11,0.85-0.11,0.85S373.17,425.2,374.73,425.42z"
			/>
		<path class="st0" d="M312.65,359.62c0.27-0.88,0.57-1.72,0.9-2.54c-3.03-4.4-7.44-10.02-10.49-10.45
			C307.68,351.15,312.65,359.62,312.65,359.62z"/>
		<path class="st0" d="M357.68,363.5c15.5,23.73,10.09,59.01,10.09,59.01s2.09-0.07,4.54,0.57c0.87-7.98,2.86-36.61-10.36-56.86
			c-5.98-9.16-11.13-13.96-15.83-16.26C349.66,352.74,353.46,357.03,357.68,363.5z"/>
		<path class="st0" d="M323.52,459.01c1.16,4.27-1.29,11.78-3.49,16.69c-1.08,2.42-2.61,3.3-4.01,3.53
			c-0.07,1.34,0.31,2.1,0.91,2.29c1.16,0.39,5.18,1.81,7.38-3.11c2.2-4.92,4.66-12.42,3.49-16.69c-0.86-3.16,9.29-6.94,15.13-8.08
			c-0.06-1.54-0.19-2.53-0.38-2.79C341.38,449.3,322.35,454.74,323.52,459.01z"/>
		<path class="st0" d="M358.07,532.78c-1.55,12.04-5.82,31.45-8.93,36.88c-3.11,5.44-6.99,6.99-14.36,6.6
			c-0.47-0.03-0.9-0.11-1.32-0.2c1.36,1.67,3.18,2.76,5.6,2.92c7.38,0.39,11.26-1.16,14.36-6.6c3.11-5.44,7.38-24.85,8.93-36.88
			c0.42-3.23,0.95-5.65,1.5-7.48c-0.7-3.09-0.35-6.14-0.73-7.27C362.73,519.58,359.63,520.74,358.07,532.78z"/>
		<path class="st0" d="M336.38,348.24c-1.49,0.14-2.97,0.42-4.44,0.76c-0.07,0.02-0.14,0.04-0.21,0.05
			c4.53,0.59,7.04,1.53,16.26,11.4c3.62,3.88,8.15,17.41,9.71,12.75c1.39-4.18-4.24-11.52-8.64-16.05
			C343.06,351,339.1,349.01,336.38,348.24z"/>
		<path class="st0" d="M309.16,437.08c0,0,6.01-21.03,14.01-32.53c-10.2,8.17-18.66,37.76-18.66,37.76l38.05-16.31
			c0,0-0.28-1.14-0.8-2.89L309.16,437.08z"/>
		<path class="st0" d="M370.49,425.53c1.32,1,4.56,0.45,5.31,4.2c0.34,1.74,1.91,2.33,2.08,0.17c0.14-1.82-1.32-3.43-3.14-4.48
			c-1.55-0.23-2.68-0.19-2.68-0.19s0.05-0.3,0.11-0.85c-0.06-0.01-0.12-0.04-0.17-0.05C370,423.95,369.71,424.95,370.49,425.53z"/>
		<path class="st0" d="M279.65,413.59c-3.01,4.51-8.56,9.02-11.02,9.65c0.8,2.07,2.91,2.97,4.04,2.78
			c2.33-0.39,8.15-5.05,11.26-9.71c0.06-0.09,0.12-0.16,0.18-0.25c0.13-1.06,0.2-1.69,0.2-1.69S282.75,408.93,279.65,413.59z"/>
		<path class="st0" d="M258.81,477.24c0.1,0.89,0.62,1.56,1.43,1.96c0.6,0.3,1.27,0.49,1.95,0.62c-0.34-1.45-0.4-2.56-0.4-2.56
			S260.41,477.41,258.81,477.24z"/>
		<path class="st0" d="M334.23,432.27c-7.1,3.21-20.95,8.88-22.92,10.28c-1.48,1.08-2.34,1.21-0.47,1.7
			c2.2,0.58,16.62-6.65,25.11-10.29c3.3-1.42,6.35-2.8,5.27-3.82C340.32,429.3,338.12,430.51,334.23,432.27z"/>
		<path class="st0" d="M274.21,471.05c-3.11,0-5.29,3.65-3.49,6.21c3.77,6.83,1.31,9.79-2.67,9.2c0.73,1.11,1.71,2.04,3.06,2.45
			c4.66,1.42,8.02-1.42,3.88-8.93c-1.4-2-0.38-4.64,1.6-5.72C276.14,472.49,275.41,471.05,274.21,471.05z"/>
		<path class="st0" d="M384.09,433c-0.75-3.93-3.58-5.87-6.31-6.83c0.95,1.05,1.7,2.38,2.03,4.11c1.55,8.15-10.87,13.2-12.04,14.75
			c-1.16,1.55-1.55,20.97,1.55,38.44s4.14,37.79,2.72,42.32c-0.68,2.17-2.41,3.55-4.11,4.05c0.06,0.37,0.14,0.75,0.23,1.13
			c0.78,3.17,6.73,2.07,8.15-2.46c1.42-4.53,0.39-24.85-2.72-42.32s-2.72-36.88-1.55-38.44C373.22,446.2,385.64,441.15,384.09,433z"
			/>
		<path class="st0" d="M310.71,460.95c-1.55,0-4.66,2.72-6.6,6.6s-2.72,19.8-3.11,22.52c-0.39,2.72-1.55,49.69-1.16,64.06
			c0.39,14.36-2.33,23.68-2.33,23.68s-1.16,9.32-14.36,10.48c-1.18,0.1-2.21,0.03-3.14-0.17c1.53,1.97,3.86,3.2,7.41,2.89
			c13.2-1.16,14.36-10.48,14.36-10.48s2.72-9.32,2.33-23.68c-0.39-14.36,0.78-61.34,1.16-64.06c0.39-2.72,1.16-18.64,3.11-22.52
			c1.57-3.14,3.89-5.49,5.55-6.28C313.16,461.92,311.57,460.95,310.71,460.95z"/>
		<path class="st1" d="M372.05,525.79c1.42-4.53,0.39-24.85-2.72-42.32s-2.72-36.88-1.55-38.44c1.16-1.55,13.59-6.6,12.04-14.75
			c-0.33-1.73-1.08-3.06-2.03-4.11c-1.53-1.68-3.59-2.6-5.46-3.09c-2.45-0.64-4.54-0.57-4.54-0.57s5.4-35.28-10.09-59.01
			c-4.22-6.47-8.03-10.76-11.56-13.54c-6.85-5.39-12.66-5.04-18.46-3.67c-8.83,2.08-12.13,5.84-14.11,10.79
			c-0.33,0.82-0.62,1.66-0.9,2.54c0,0-4.97-8.47-9.59-12.99c-2.09-2.04-4.1-3.27-5.55-2.54c-4.66,2.33-5.44,2.33-6.6,8.15
			S278.87,400,269.17,409.7s-3.11,13.98-0.78,13.59c0.07-0.01,0.16-0.04,0.24-0.06c2.46-0.63,8.01-5.13,11.02-9.65
			c3.11-4.66,4.66,0.78,4.66,0.78s-0.08,0.63-0.2,1.69c-0.78,6.66-3.57,31.01-2.91,34.02c0.78,3.49-15.92,12.16-21.74,17.08
			c-5.82,4.92-5.82,8.15-3.49,9.32c0.87,0.43,1.9,0.65,2.85,0.75c1.6,0.17,2.98,0.02,2.98,0.02s0.06,1.11,0.4,2.56
			c0.54,2.32,1.78,5.49,4.65,6.37c0.42,0.13,0.82,0.21,1.21,0.27c3.99,0.6,6.44-2.36,2.67-9.2c-1.79-2.56,0.39-6.21,3.49-6.21
			c1.2,0,1.93,1.44,2.38,3.21c0.72,2.83,0.73,6.49,0.73,6.49l-3.88,88.52c0,0-2.89,16.75,6.57,18.85c0.92,0.21,1.96,0.28,3.14,0.17
			c13.2-1.16,14.36-10.48,14.36-10.48s2.72-9.32,2.33-23.68c-0.39-14.36,0.78-61.34,1.16-64.06c0.39-2.72,1.16-18.64,3.11-22.52
			s5.05-6.6,6.6-6.6c0.87,0,2.45,0.97,3.22,3.03c0.61,1.64,0.7,3.97-0.5,7.06c-2.33,4.92-1.94,7.38-0.78,7.76
			c0.59,0.2,1.92,0.66,3.36,0.42c1.41-0.23,2.93-1.11,4.01-3.53c2.2-4.92,4.66-12.42,3.49-16.69c-1.16-4.27,17.86-9.71,19.02-8.15
			c0.19,0.26,0.32,1.25,0.38,2.79c0.29,7.68-1.22,29.38-5.43,46.52c-5.05,20.58-10.48,41.54-11.26,46.59
			c-0.75,4.85-3.28,26.91,7.22,29.3c0.42,0.1,0.86,0.17,1.32,0.2c7.38,0.39,11.26-1.16,14.36-6.6c3.11-5.44,7.38-24.85,8.93-36.88
			c1.55-12.04,4.66-13.2,5.05-12.04c0.38,1.14,0.03,4.18,0.73,7.27c0.02,0.08,0.03,0.15,0.05,0.23c0.4,1.65,2.21,2.13,4.05,1.59
			C369.64,529.34,371.37,527.96,372.05,525.79z M372,424.34c0.06,0.01,0.11,0.04,0.17,0.05c0.86,0.21,1.74,0.57,2.56,1.04
			c1.82,1.05,3.29,2.65,3.14,4.48c-0.17,2.16-1.73,1.57-2.08-0.17c-0.74-3.76-3.98-3.21-5.31-4.2
			C369.71,424.95,370,423.95,372,424.34z M335.94,433.97c-8.49,3.64-22.91,10.87-25.11,10.29c-1.86-0.49-1.01-0.62,0.47-1.7
			c1.97-1.4,15.82-7.07,22.92-10.28c3.89-1.76,6.09-2.97,6.99-2.13C342.29,431.17,339.25,432.55,335.94,433.97z M304.5,442.31
			c0,0,8.46-29.59,18.66-37.76c1.96-2.82,4.04-5.07,6.18-6.3c10.87-6.21,12.7,24.73,12.7,24.73l-0.3,0.13
			c0.52,1.76,0.8,2.89,0.8,2.89L304.5,442.31z M357.69,373.21c-1.55,4.66-6.08-8.86-9.71-12.75c-9.21-9.87-11.72-10.82-16.26-11.4
			c-0.05-0.01-0.1-0.01-0.15-0.02c-1.98-0.25-0.81-1.65,2.43-1.26c0.67,0.09,1.45,0.2,2.38,0.46c2.72,0.76,6.68,2.76,12.67,8.92
			C353.45,361.69,359.08,369.03,357.69,373.21z"/>
	</g>
	<path class="st1" d="M495.9,332.31c-1.68-2.2-2.72-4.53-11.65-2.59c-8.93,1.94-10.48,9.32-10.48,9.32s-10.09,30.28-13.59,46.59
		c-3.49,16.31,1.55,36.88-7.76,52.41c-9.32,15.53-3.88,20.58-1.16,21.74c2.72,1.16,5.05-3.49,5.05-3.49s0.78,5.63-0.39,11.65
		c-1.16,6.02-6.99,22.91-9.71,31.06s-11.06,16.5-16.31,15.92c-5.24-0.58-7.57-4.85-9.71-10.87c-2.14-6.02-2.33-26.98-1.55-34.17
		c0.78-7.18,9.12-46.98,10.87-53.97c1.75-6.99,10.87-44.65,12.42-58.62s-8.54-14.75-8.54-14.75c-9.32-1.55-14.94,4.03-19.02,11.26
		c-3.36,5.95-5.44,11.45-7.38,19.8c-1.94,8.35-8.15,35.33-10.09,47.37c-1.94,12.04-6.99,17.86-6.99,17.86s-13.98,21.35-5.05,25.62
		c7.1,3.4,8.8-5.72,9.2-9.6c-0.29,3.76-1.24,15.11-4.15,45.71c-3.88,40.77,14.36,55.13,14.36,55.13s-1.94,27.18,7.76,27.95
		s6.21-12.81,5.05-17.47c-1.16-4.66,1.55-5.82,1.55-5.82s9.32-0.78,15.14-0.39s7.76-6.6,10.87-5.05c3.11,1.55-7.76,12.42,0.78,13.2
		s7.38-12.81,7.38-17.47c0-4.66,3.88-9.32,6.21-9.32s4.66,0.78,3.49,12.04c-1.16,11.26,3.49,13.2,7.38,13.59
		c3.88,0.39,7.89-2.98,9.71-8.54s5.05-17.86,8.54-33.78c2.85-13-1.8-31.95-3.6-38.46c0.76,2.09,2.22,4.8,4.64,4.56
		c3.88-0.39,3.62-4.4,3.62-8.28c0-3.82-6.21-20.32-7.76-24.59s1.55-22.91,0.39-26.01c-1.16-3.11,0.78-76.48,0.78-65.61
		c0,10.87,1.94,15.53,3.88,16.69c1.94,1.16,5.82,1.16,10.09-0.78c4.27-1.94,3.11-15.92,2.33-20.58S499.26,336.71,495.9,332.31z
		 M431.63,345.58c4.35,2.28,8.77,7.51,7.19,11.88c-1.27,3.5-3.58,1.82-3.36-1.22c0.48-6.55-5.13-7.12-6.87-9.37
		C427.57,345.55,428.49,344.04,431.63,345.58z M497.84,379.67c-3.68,0.33-0.12-5.78-0.19-10.15c-0.19-11.23-0.7-24.02-2.7-25.62
		c-0.85-0.69,0.32-1.69,1.73-0.58c1.13,0.93,3.77,15.49,4.08,24.85C500.92,373.3,502.09,379.29,497.84,379.67z"/>
	<path class="st1" d="M632.56,470.53c-8.54-3.88-13.59-1.04-13.59-1.04s-8.02,2.2-22.91,17.08c-13.72,13.72-27.44,11.13-35.2,9.32
		c-6.21-2.07-16.82-5.82-21.09-29.89c-4.27-24.07-2.46-40.25-0.39-49.31c2.06-9,7.38-19.8,12.04-25.24
		c4.66-5.44,17.86-14.75,22.52-9.71c4.66,5.05,2.72,9.71,1.16,12.42c-1.55,2.72-4.92,17.6,5.95,17.6s10.09-7.76,9.19-10.22
		c-0.91-2.46-5.44-11.26-4.66-15.14s2.72-6.6,6.21-7.38c3.49-0.78,17.94-5.73,27.95,3.11c6.6,5.82,7.76,10.87,6.99,13.98
		c0,0-2.98,6.6-1.42,9.96c1.55,3.36,4.81,4.79,7.64,4.79c5.44,0,8.93-2.46,9.32-6.21c0.39-3.75,0.39-6.6-1.94-16.31
		c-2.33-9.71-0.39-17.86-0.39-22.13s0-11.65-10.09-19.41c-10.09-7.76-22.32-12.68-30.67-13.72c-8.35-1.04-22-3.36-39.86,11.65
		c-17.86,15.01-19.67,18.38-24.2,23.42c-4.53,5.05-5.82,8.15-10.48,11.26c-4.66,3.11-14.36,12.04-8.93,13.2
		c5.44,1.16,8.54-1.55,8.54-1.55s-16.61,45.83-17.47,67.17c-0.78,19.28-4.95,39.7-0.52,55.78c2.07,7.51,5.18,17.86,11.39,17.99
		c6.21,0.13,6.6-3.49,6.99-12.42c0.39-8.93,7.25,9.11,11.65,14.75c7.76,9.96,16.05,8.41,15.27,11.52
		c-0.78,3.11-2.46,12.16,3.36,13.72c5.82,1.55,11.52-2.72,10.61-7.76c-0.91-5.05-1.81-6.47,1.29-5.69
		c3.11,0.78,20.32,5.31,30.41-0.91c10.09-6.21,10.48-4.27,10.48-4.27s-1.16,8.54-3.88,14.36c-2.72,5.82-2.72,8.15-0.39,9.71
		c2.33,1.55,7.06,3.29,10.87,0.39c3.24-2.46,4.66-7.76,1.55-12.04c-3.11-4.27-3.2-11.01-1.94-12.81c1.13-1.62,12.99-6.73,19.8-10.87
		c4.98-3.03,12.81-10.48,11.26-26.79C643.43,486.58,641.1,474.41,632.56,470.53z M601.29,338.66c1.39-0.45,15.07,5.19,23.12,9.97
		c4.42,2.63,11.68,13.22,9.71,17.01c-1.71,3.28-6.26-5.75-13.59-12.23c-8.42-7.44-23.39-14.4-25.82-13.59
		C593.67,340.17,592.38,338.08,601.29,338.66z M632.53,480.25c-4.32-6.99-10.42-3.44-13.83-4.44c-2-0.59-2.18-2.8,2.13-3.53
		c6.08-0.88,14.39,1.17,15.99,6.75C638.12,483.5,634.54,483.5,632.53,480.25z"/>
	<path class="st1" d="M817.75,459.01c-11-1.94-12.81,5.44-12.81,5.44s-9.71,26.01-18.25,34.55c-5.05,6.73-8.15,7.25-13.98,7.38
		c-5.82,0.13-65.22-7.76-80.37-20.58c-12.68-9.84,22-20.97,31.06-25.24s24.07-18.25,26.4-15.53c2.33,2.72-2.33,16.95,9.32,17.08
		c11.65,0.13,5.44-12.42,5.44-12.42s-4.27-5.82-1.16-8.93c3.11-3.11,36.88-24.07,36.11-29.12c-0.78-5.05,0.39-8.15-13.98-8.15
		c-14.36,0-67.55-2.33-83.08-10.09c-15.53-7.76,1.81-20.19,7.76-27.95s10.87-14.75,15.53-15.92c4.66-1.16,17.08,5.31,20.19,7.76
		c3.11,2.46,4.66,1.55,3.49,9.71s-0.39,14.75,4.27,15.14c4.66,0.39,6.6,0.78,6.6-3.11s-2.33-13.98,0.39-12.04
		c2.72,1.94,14.49,7.51,19.8,6.99c5.31-0.52,7.38-1.94,5.82-6.99c-1.55-5.05-22.13-39.99-26.4-45.04
		c-2.83-3.35-5.66-7.72-9.51-10.28c-1.96-1.3-4.53-1.82-6.79-2.14c-2.26-0.32-6.6,0.46-10.09,3.56
		c-3.49,3.11-22.14,18.89-36.5,35.26c-5.7,6.5-19.02,21.55-21.74,26.79c-6.02,8.74-12.04,25.62-13.2,29.12s-1.55,7.38,0.78,12.42
		s3.11,7.38,3.11,10.87c0,3.49-3.49,8.54,1.16,9.71c4.66,1.16,7.38-3.11,7.38-3.11s4.66-5.05-0.39-14.75
		c-5.05-9.71,19.8-2.33,19.8-2.33s38.05,5.44,37.27,8.54s0.78,5.82-31.06,23.68c-31.84,17.86-44.26,26.79-44.26,26.79
		s-6.99,4.27-3.11,11.65c3.88,7.38,5.05,10.87,12.04,15.92c6.99,5.05,55.52,24.07,55.52,24.07s14.75,4.66,13.2,16.69
		c-1.55,12.04-8.54,21.74-8.54,21.74s-8.27,14.73,1.04,19.02c6.73,3.11,11.65,0.26,13.72-3.49c2.07-3.75,2.98-12.94,6.47-14.88
		c3.49-1.94,10.61-7.64,6.34,7.51c-4.27,15.14-12.81,24.07-15.53,32.22c-2.72,8.15-10.48,32.22,14.75,38.05
		c25.24,5.82,31.19-18.51,30.28-28.34c-0.91-9.84-0.78-25.62-13.2-49.69c-12.42-24.07,12.04-17.47,14.36-17.47s6.99,0.39,10.48-3.49
		c3.49-3.88,27.57-68.33,27.57-68.33S828.75,460.95,817.75,459.01z M740.17,314.39c4.2-1.13,10.52,0.9,12.31,4.76
		c1.43,3.09-1.19,4.58-2.99,2.43c-3.87-4.64-7.18-3.64-9.71-4.08C738.3,317.24,737.2,315.27,740.17,314.39z M820.65,466.24
		c-1.57-3.13-3.56-3.01-4.93-3.59c-0.8-0.34-1.16-1.6,0.63-1.7c2.52-0.08,5.82,1.91,6.31,4.32
		C823.05,467.21,821.37,467.7,820.65,466.24z"/>
	<path class="st3" d="M223.1,275.89c15.02,19.59,15.77,34.59,18.89,26.92c2.98-7.32-26.66-45.55-32.61-46.33
		c-3.34-1.44-6.09-0.06-4.92,1.55C206.37,260.67,214.79,265.06,223.1,275.89z"/>
	<path class="st3" d="M220.26,450.77c-7.33-8.18-10.95-10.68-13.59-12.55c-2.13-1.65-8.55-3.92-7.35-2.5
		c1.96,2.32,9.12,7.19,17.62,16.7c15.38,17.19,20.3,31.18,19.51,23.82C236.05,472.52,229.17,460.71,220.26,450.77z"/>
	<path class="st3" d="M334,347.78c-3.24-0.39-4.41,1.01-2.43,1.26c4.63,0.58,7.09,1.44,16.4,11.42c3.62,3.88,8.15,17.41,9.71,12.75
		c1.39-4.18-4.24-11.52-8.64-16.05C341.03,348.91,336.64,348.13,334,347.78z"/>
	<path class="st3" d="M496.68,343.32c-1.4-1.1-2.58-0.11-1.73,0.58c1.99,1.61,2.51,14.39,2.7,25.62c0.07,4.37-3.49,10.48,0.19,10.15
		c4.26-0.38,3.09-6.37,2.92-11.51C500.44,358.81,497.81,344.24,496.68,343.32z"/>
	<path class="st3" d="M594.71,339.82c2.43-0.81,17.4,6.15,25.82,13.59c7.33,6.48,11.88,15.51,13.59,12.23
		c1.97-3.79-5.29-14.38-9.71-17.01c-8.05-4.79-21.73-10.43-23.12-9.97C592.38,338.08,593.67,340.17,594.71,339.82z"/>
	<path class="st3" d="M334.23,432.27c-7.1,3.21-20.95,8.88-22.92,10.28c-1.48,1.08-2.34,1.21-0.47,1.7
		c2.2,0.58,16.62-6.65,25.11-10.29c3.3-1.42,6.35-2.8,5.27-3.82C340.32,429.3,338.12,430.51,334.23,432.27z"/>
	<path class="st3" d="M234.27,403.59c-1.7,2.94,0.36,8.77-7.27,11.9c-3.54,1.45-4.33,4.65,0.23,3.97c5.68-0.85,9.46-8.06,9.95-13.59
		C237.43,401.94,235.27,401.86,234.27,403.59z"/>
	<path class="st3" d="M171.22,363.71c3.55-2.8,4.95-5.76,5.34-8.84c0.21-2.18-1.16-1.95-1.83-0.88c-1.13,1.82-1.64,4.55-4.8,7.41
		C168.01,363.15,168.81,365.62,171.22,363.71z"/>
	<path class="st3" d="M372,424.34c-2-0.39-2.29,0.61-1.51,1.19c1.32,1,4.56,0.45,5.31,4.2c0.34,1.74,1.91,2.33,2.08,0.17
		C378.08,427.2,374.8,424.95,372,424.34z"/>
	<path class="st3" d="M435.46,356.24c-0.22,3.04,2.09,4.73,3.36,1.22c1.58-4.37-2.84-9.59-7.19-11.88
		c-3.13-1.55-4.06-0.03-3.04,1.29C430.33,349.12,435.94,349.68,435.46,356.24z"/>
	<path class="st3" d="M620.84,472.28c-4.31,0.73-4.14,2.94-2.13,3.53c3.41,1,9.51-2.54,13.83,4.44c2.01,3.24,5.59,3.25,4.3-1.23
		C635.23,473.45,626.93,471.39,620.84,472.28z"/>
	<path class="st3" d="M739.78,317.5c2.53,0.44,5.83-0.56,9.71,4.08c1.8,2.15,4.42,0.67,2.99-2.43c-1.79-3.86-8.1-5.88-12.31-4.76
		C737.2,315.27,738.3,317.24,739.78,317.5z"/>
	<path class="st3" d="M822.66,465.27c-0.49-2.41-3.79-4.4-6.31-4.32c-1.79,0.1-1.44,1.36-0.63,1.7c1.37,0.58,3.37,0.46,4.93,3.59
		C821.37,467.7,823.05,467.21,822.66,465.27z"/>
</g>
<path class="st3" d="M730.79,404.08c2.41-0.14,42.71,2.91,51.38,2.55c4.27-0.18,6.74,0.73,7.05,1.92
	c0.37,1.44-27.12,0.95-30.67,0.39c-9.12-1.43-27.51-2-29.07-3.66C728.17,403.86,728.95,404.2,730.79,404.08z"/>
</svg>
