<?xml version="1.0" encoding="utf-8"?>
<!-- Generator: Adobe Illustrator 24.2.3, SVG Export Plug-In . SVG Version: 6.00 Build 0)  -->
<svg version="1.1" id="Layer_1" xmlns="http://www.w3.org/2000/svg" xmlns:xlink="http://www.w3.org/1999/xlink" x="0px" y="0px"
	 viewBox="0 0 900 900" style="enable-background:new 0 0 900 900;" xml:space="preserve">
<style type="text/css">
	.st0{fill:#E3A55C;}
</style>
<g>
	<path class="st0" d="M222.51,584.44c3.9-10.51,10.49-21.28,11.76-31.31c-6.21-6.52-32.62-19.74-23.65-25.91
		c2.62-1.28,8.6-4.96,10.29-6.98c0.42,4.84,3.21,7.28,8.73,9.1c3.63,1.54,3.83,6.32,9.03,5.88c4.71-10.74,16.53-12.86,19.61-24.18
		c-9.22-2.64-33.87-14.88-43.4-18.33c-9.28,3.26-5.45-2.35-9.34,10.23c-7.61,8.6-24.66,24.7-29.93,34.25
		c0.12,2.39,4.79,3.39,6.7,4.74c7.12,4.18,13.58,9.43,20.47,13.42c-6.55,10.78-0.68,4.95-0.69,11.11c0.94,0.91-2.97,0.92-4.92,0.9
		c-0.32-0.14-0.65-0.28-0.97-0.42c-11.8-1.26-7.49-1-8.33-8.24c-5.81-3.45-14.83-8.53-20.67-12.08c-1.09,1.36-1.14,3.9-0.89,5.74
		c-1.51,1.91-3.01,3.82-4.52,5.73c-0.94,3.37-5.48,22.38-4.83,26.22c16.03,10.88,38.34,21.2,54.39,26.69
		c8.39,3.22,4.93-3.3,5.35-6.36C218.25,598.82,219.71,589.78,222.51,584.44z"/>
	<path class="st0" d="M301.92,530.38c-2.78-3.4-5.44-5.01-7.98-8.33c-5.8-1.16-19.7-6.93-25.99-7.29
		c-4.71-0.41-8.94,7.39-11.25,12.38c-0.69,4.06-10.45,13.74-7.06,17.89c-0.16,1.1-1.6,2.37-1.79,3.36
		c-0.58,0.28-1.17,0.55-1.75,0.82c-2.43,6.01-4.9,11.99-7.4,17.95c0.23-0.09,0.47-0.18,0.7-0.27c-0.71,3.58-7.04,24.34-8.55,28.31
		c-0.86,1.84,3.3,3.78,2.33,5.7c-0.37,1.19,3.3,1.33,3.11,2.71c-1.45,0.76-2.91,1.5-4.39,2.23c-0.09,0.29,0,0.49,0.29,0.59
		c-1.01,2.52-1.56,4.7,1.68,7.49c2.92,2.9,6.03,6.82,9.3,9.36c3.79,2.46,9.05,3.57,13.2,4.47c4.39,1.49,21.18,6.41,25.25,6.46
		c2.28,0.52,16.06-16.47,17.1-18.02c0.09-2.11,0.46-7.37,1.53-9.15c-0.64-0.73,0.74-7.69,0.84-8.59c0.12-3.36,0.24-6.71,0.36-10.06
		c-8.01-1.15-16.03-2.56-24.05-4.21c-0.6,1.73-1.21,3.45-1.83,5.16c0.64-0.02-0.67,6.18-0.71,6.92c-0.27,5.45-8.09,0.94-12.5-0.07
		c0.09-4.16,0.52-16.05,1.88-19.74c4.27-2.13,6.13-23.7,7.66-27.65c3,0.51,6,0.98,9,1.41c0.51,5.52-1.23,12.71-1.73,18.21
		c0.14-0.21,3.1,0.44,3.13,0.21c6.77,1.43,13.57,2.68,20.37,3.74c2.15-8.61,1.46-28.3,2.2-37.41
		C302.32,533.86,303.28,532.23,301.92,530.38z"/>
	<path class="st0" d="M351.85,518.82c-7.9-0.25-19.16,0.93-27.08,1.16c-2.32,3.88-9.37,9.37-8.3,14.78
		c-0.92,1.04-5.72,8.28-5.37,11.71c0,0-1.42,27.31-1.42,27.31c-1.38,3.57-0.11,23.58-0.25,27.83c1.24,2.24,3.22,3.92,1.55,5.53
		c-0.01,0.12-0.01,0.23-0.02,0.35c-1.87,1.36-1.5,4.2-1.71,6.29c-0.95,24.39,1.33,14.42,25.57,32.14c4.96-1.49,27.73-0.91,29.93,0.2
		c3.73-2.76,9.96-9.77,12.47-13.33c-0.82-25.36-6.8-54.81-10.1-79.93C368.06,550.91,352.26,517.37,351.85,518.82z M348.15,610.38
		c-3.58-0.2-7.16-0.45-10.75-0.74c-0.95-0.3-1.35-27.48-1.47-28.88c-0.1-3.14-0.12-6.48-2.04-8.17c-0.89-4.54,0.16-17.58,0.45-22.31
		c3.66,0.52,11.34-3.62,11.04,2.97C345.72,557.47,348.36,603.68,348.15,610.38z"/>
	<path class="st0" d="M459.36,636.07c-1.43-9.92-2.94-19.88-4.56-29.89c-0.03-0.01-7.85-18.8-7.82-18.79
		c-0.17-0.79-2.61-0.58-2.81-0.97c-1.67,2.16-4.29,10.43-5.89,12.99c-2.31,1.08-1.44-3.26-2.52-4.24c-0.5-1.3-1.97-4.19-2.78-5.29
		c1.82-7.03,8.34-9.54,7.49-18.02c-4.6-10.44-7.19-43.96-7.85-45.24c-6.64-15.82-8.65-31.96-19.12-30.98
		c-1.41-0.52-0.56-3.13-1.24-4.49c-5.18-3.67-16.16,9.07-20.91,10.45c-6.91,1.66-13.84,9.2-20.79,10.4
		c-0.71,9.4,12.47,55.52,12.65,64.81c-2.61,4.28,1.95,11.52,1.66,16.3c0.61,8.68,0.23,47.85,2.53,55.52
		c10.27,1.64,25.05,1.62,35.24,1.18c1.09,0.27-6.46-21.72-6.47-22.23c-0.82-3.53-1.86-11.63-2.59-14.93
		c3.56,2.96,7.18,5.92,10.87,8.89c1.23,12.3,9.25,17.31,18.06,25.74C454.73,646.91,458.53,650.84,459.36,636.07z M414.62,566.19
		c-1.87,3.02-3.8,5.98-5.79,8.9c-2.21-2.97-10.05-26.87-11.33-33.42c1.87-0.56,8.96-10.94,11.15-11.41
		C409.18,531.24,419.34,563.86,414.62,566.19z"/>
	<path class="st0" d="M514.73,633.25c-4.26-5.97-15.05-20.14-18.62-26.41c-0.89-2.1-2.04-6.42-3.73-7.97
		c-1.73-1.45-2.47-4.38-2.94-6.45c0.68-0.71,1.36-1.43,2.04-2.16c-0.97-3.63-1.96-7.26-2.95-10.89c4.85-3.04,14.13-3.5,14.93-12.13
		c-0.03-0.08-0.06-0.15-0.1-0.23c1.16-3.09,5.71-14.77,4.85-18.71c-6.24-13.65-22.32-53.66-29.38-68.12
		c-2.56-0.44-5.11-0.89-7.63-1.35c-0.93-1.64-1.85-3.27-2.78-4.91c-3.92-0.76-11.95,2.05-15.17,3.88c-1.26,3.83-4.57,1.25-6.82,1.86
		c-3.41,2.03-14.58,3.58-16.99,7.49c1.61,2.62,2.88,5.15,3.8,7.6c-0.52,2.08-0.77,3.18-0.72,3.32c-0.13,0.53-2.37,3.69-2,4.56
		c4.93,15.48,11.61,37.07,16.54,52.55c-0.15,1.18,0.88,1.91,2.33,3.24c2.42,1.3,3.01,7.8,6.13,9.07
		c3.37,10.29,6.75,20.58,10.12,30.88c-0.74,0.81-1.48,1.62-2.23,2.43c2.27,11.58,14.03,30.06,17.7,41.27
		c4.75-0.71,21.37-4.35,25.86-4.89C509.57,635.89,512.16,634.58,514.73,633.25z M472.56,548.51c-0.44,0.17-1.15-0.74-2.15-2.74
		c-0.05,0.02-0.11,0.04-0.16,0.06c-1.72-4.19-2.11-6.51-3.67-10.85c-0.33-2.35-0.67-4.71-1.02-7.08c-0.01,0-8.16-15.32-10.49-19.7
		c0.2,0.31,0.37,0.54,0.42,0.46c0,0.03,11.43,0.24,11.43,0.22c2.27,2.05,11.59,27.79,13.21,31.06
		C477.66,542.86,475.14,545.71,472.56,548.51z"/>
	<path class="st0" d="M581.28,609.03c-16.46-28.08-50.97-91.75-63.72-121.07c-7.13-7.95-9.38-19.52-12.95-30.29
		c-5.16,0.23-10.19,0.04-15.04-0.52c-3.68,3.34-7.49,6.45-11.3,9.14c4.17,13.85,24.39,47.6,31.76,60.17
		c0.15,2.71-1.46,4.53,0.58,8.01c9.52,21.17,37.19,64.47,42.05,86.63c0.42,0.92,0.83,1.31,1.21,1.16
		C553.79,621.75,584.31,611.5,581.28,609.03z"/>
	<path class="st0" d="M635.01,574.47c0.75-5.94,0.48-18.9-0.07-25.05c-17.79-32.21-42.15-66.51-61.68-96.88
		c-0.57-3.09-1.8-5.8-3.7-8.02c-0.36-0.16-4.11-3.42-8.93-7.62c-10.83,9.09-25.33,16.03-41.94,19.14c-0.58,0.11-1.16,0.19-1.74,0.29
		c0.53,1.68,1.24,3.24,2.26,4.56c0.02,1.95-0.48,6.12-0.88,7.72c0.46,5.21,2.45,6.84,5.3,11.09c0,0,19.3,36.57,19.3,36.57
		c1.64,5.58,17.47,30.82,20.52,36.46c2.55,2.09,5.21,2.94,5.21,6.17c0.08,0.16,0.17,0.31,0.25,0.47c-0.32,3.03,2.05,6.49,3.45,9.35
		c17.39,32.48,11.63,17.76,41.33,24.8c2.37-5.23,16.61-11.29,20.88-14.34C635.92,577.97,632.67,574.43,635.01,574.47z
		 M589.54,544.67c-0.91,0.24-20.6-34.82-21.69-36.57c-2.32-4.02-4.7-8.34-7.4-9.31c-3.94-5.32-12.44-22.94-15.57-29.27
		c3.28-1.67,6.62-11.86,10.97-3.12c3.22,5.26,23.09,40.12,27.26,42.95c3.13,9.21,10.33,20.53,14.87,29.34
		C595.2,540.74,592.38,542.73,589.54,544.67z"/>
	<path class="st0" d="M605.12,412.53c4.34,7.57,14.66,18.92,2.12,10.21c-9.42-7.08-17.93-14.41-26.41-21.7
		c-0.6,10.39-5.42,20.54-13.39,29.32c10.01,15.5,20.83,31.38,27,36.61c13.42,20.49,26.84,40.98,40.26,61.47
		c6.16,13.54,10.71,23.31,18.65,35.53c2-2.65,3.96-5.33,5.89-8.04c6.86-3.72,13.62-7.64,20.28-11.75
		c-7.81-10.19-30.66-40.08-36.75-51.15c-4.33-4.8-10.62-10.64-14.79-15c-2.12-1.66-2.11-8.08-2.83-9.88
		c-0.03-0.25-0.05-0.5-0.08-0.76c1.17-0.22,3.94,1.99,5.04,2.05c9.56,8.08,31.67,24.32,39.57,36.73c4.04,5.05,6.18,9.21,10.88,12.66
		c2.84,2.66,5.62,10.08,7.3,12.84c0.12,0.29,0.25,0.57,0.37,0.86c8.81-8.88,17.23-18.23,25.23-28.06c-1.91-2.27-5.63-5.01-7.78-5.72
		c-0.37-1.24-0.74-2.49-1.11-3.73c-18.24-20.17-36.31-40.39-54.2-60.64c0,0-4.12-5.06-4.12-5.06
		c-9.62-13.27-44.55-63.17-54.69-78.19c-2.66-3.53-5-7.28-6.44-3.79c-3.63,7.28-7.45,14.37-11.43,21.27
		c-0.63,0.96-0.43,2.16,0.6,3.59C581.69,380.97,599.5,401.52,605.12,412.53z"/>
	<path class="st0" d="M292.84,216.64c5.48,25.12,38.64,29.84,38.64,29.84c-22.88-13.59-18.79-30.87-18.79-30.87l8.27-0.94
		c-2.85-5.58-7.12-18.13-8.86-24.22l-20.14-10.13C275.48,185.64,261.54,215.16,292.84,216.64z"/>
	<polygon class="st0" points="188.12,280.08 198.39,332.98 208.62,298.66 230.54,294.11 229.37,284.42 210.19,282.47 227.6,279.53 
		227.87,261.58 205.55,254.99 227.7,255.02 230.79,237.06 212.2,224.66 232.84,232.48 254.65,216.54 247.58,199.83 257.74,212.52 
		272.85,209.96 273.24,195.5 245.35,192.2 242.08,197.93 241.69,192.82 202.94,214.44 206.92,218.48 202.18,218.34 189.96,246.38 
		195.62,254.78 189.74,253.42 187.11,274.13 195.61,282.58 	"/>
	<path class="st0" d="M426.69,409.67c0,0.03,0,0.07,0,0.1C426.7,409.76,426.7,409.72,426.69,409.67z"/>
	<path class="st0" d="M178.99,378.06l5.79-16.88l-1.04-5.97l3.35-1.87l-3.7-7.42l6.73,7.11l21.95,7.7l2.33,4.81
		c-7.71-1.29-24.66-4.14-24.7-4.07c0,0-5.45,5.96-5.45,5.96c1.09,10.68,2.03,26.95,2.76,37.77c0.01,0.02-10.88,26.1-10.88,26.12
		c-0.01,0.07,13.76-10.07,13.8-10.12l6.75-11.18c-0.93-3.98-1.53-25.3-1.72-29.8l-4.37-11.9c0.01-0.03,6.79,7.73,6.79,7.73
		l10.02-0.28c-0.01-0.01,20.82,8.23,20.82,8.23c0.06,0-0.13-0.41-0.49-1.1l11.03,11.22l-33.89-15.45l-3.04,8.77l1.91,27.75
		l-15.34,24.6l18.16-14.38l6.75-23.44l-2.8-12.15l9.07,14.17l29.47,14.96l-25.57,5.65l-16.14,8.12l-8.56,23.87l12.35,26.19
		l64.45,29.46l66.12-3.13l61.7-33.33c0,0-52.73,15.88-102.45,11.88l14.73-5.08c0,0,35.3-2.49,48.23-10.11
		c-25.75,0.66-58.96-10.8-58.96-10.8l-33.26-7.81l-17.26-15.64l26.55-13.55l15.36,5.42l18.74-13.68l-12.48,14.33l16.77,2.4
		l-0.62,6.2c0,0,14.91,8.68,22.12,0.53c0,0-10.3,0.95-7.32-8.28l26.06-6.82c0,0,12.21,0.95-2.97,7.19
		c5.21,3.54,16.25-3.57,16.82-8.85l-3.63-6.34l-7.3-6.71l1.02-3.92l-10.59-1.61l11.33-7.17l-0.16-2.43l20.6-2.53l9.7-4.15
		l-1.13-7.35l3.21,9.69l-5.08,10.81l1.32,11.7l3.1,3.14c-3.32,3.11-6.09,5.93-6.09,5.93l11.86,7.89l29.78-4.11
		c-2.26-4.35-3.77-7.14-4.37-12.08c-0.17-1.37-0.26-2.74-0.29-4.11c-0.11,0.25-2.1-2.7-1.88-1.98c-0.29-1.3-15.01-26.14-23.94-47.13
		l-17,1.93l-20.82,11.34l-9.15,10.8l-12.16-2.68l-17.84,3.21l15.24-6.88c-3.28-3.49-5.95-6.23-8.29-8.39l22.99-22.18l-0.64-10.3
		l7.32,17.25l18.36,3.29l8.42-1.69c-0.5-1.18-0.99-2.34-1.48-3.49l-15.22-3.9l-15.09-18.7l-12.32,6.47l-20.58,27.48
		c-5.94-2.43-11.8-0.55-25.7,1.36l16.81-4.77l-5.38-6.36l2.82,1.27l12.74-14.86l-4.2-5.08l8.21,4.47c1.36,0.83,2.96-5.42,3.84-4.09
		l4.39,6.68l7.49-8.39l-26.51-9.41l-7.49,12.2l-6.75-3.92c-2.26-5.01-5.3-12.22-7.23-17.4l-5.99-1.95l-17.3,11.59l-0.07-0.06
		l-13.62-1.98l-20.15,4.5l20.03-7.3l-0.77-5.05l-9-6.61l-14.39,2.21l13.05-4.82l-10.84-6.33l-3.97-4.41l-21.9,4.3l-11.32,34.48
		l2.83,5.87l-23.71-3.94l-5.5,6.01c0.82,7.65,1.58,18.51,1.94,26.15l-9.68,16.59L178.99,378.06z M411.27,420.92L411.27,420.92
		l-0.01-0.01C411.27,420.91,411.27,420.92,411.27,420.92z M289.66,340.86l-8.29-7.31l5.32-4.95l2.54-6.87l-0.24,6.02l3.05,0.04
		l1.22,4.18l9.79,8.8l4.43-0.06l-4.53,7.37l-0.72-0.85l-10.78-2.89l-20.46,2.48L289.66,340.86z"/>
	<path class="st0" d="M415.76,456.8c0,0,23.62,8.07,47.27-2.98c-10.25-3.49-18.94-8.93-25.13-15.91l-0.31,1.6
		C437.58,439.51,431.02,452.57,415.76,456.8z"/>
	<path class="st0" d="M450.88,357.64l-85.79-77.2l52.54,75.45l-25.4-20.87c0,0,5.37,10.79,11.95,23.91
		c0.52,1.04,1.05,2.09,1.58,3.15c0.96,1.91,1.93,3.85,2.91,5.8c9.51,18.92,19.58,38.73,19.32,37.33c-2-10.68,0.77-21.44,7.12-31.1
		C439.06,368.08,444.41,362.5,450.88,357.64z"/>
	<path class="st0" d="M459.5,353.43c9.72-6.4,17.87-8.98,30.99-11.43c20.82-3.9,41.92,0.58,41.92,0.58l-80.89-34.63l16.27,13.78
		l-119.53-67.07L459.5,353.43z"/>
	<path class="st0" d="M495.48,344.72c-13.12,2.46-24.92,7.31-34.64,13.71c-1.39,0.92-2.75,1.87-4.05,2.85
		c-5.88,4.41-10.84,9.43-14.67,14.82c-7.14,10.06-10.35,21.45-8.24,32.74c0.23,1.23,0.53,2.44,0.88,3.63
		c-0.26-0.7-0.5-1.41-0.71-2.13c0.11,1.29,0.28,2.59,0.52,3.88c0.85,4.54,2.52,8.78,4.87,12.68c1.32,2.18,2.85,4.26,4.58,6.22
		c6.18,6.98,14.88,12.42,25.13,15.91c5.27,1.79,10.95,3.07,16.92,3.77c4.85,0.57,9.88,0.75,15.04,0.52
		c4.05-0.18,8.18-0.63,12.34-1.33c0.58-0.1,1.16-0.18,1.74-0.29c16.61-3.11,31.11-10.05,41.94-19.14c2.47-2.07,4.75-4.26,6.82-6.54
		c7.97-8.78,12.79-18.93,13.39-29.32c0.17-3.03,0.01-6.07-0.56-9.11c-0.03-0.17-0.07-0.33-0.11-0.49c-0.09-1.63-0.27-3.26-0.58-4.89
		c-2.47-13.18-11.75-23.86-24.96-30.73C536.24,343.7,516.31,340.82,495.48,344.72z M560.57,376.82c0.38,2.04,0.54,4.09,0.5,6.12
		c-0.16,8.22-3.66,16.29-9.65,23.35c-3.37,3.97-7.52,7.62-12.32,10.79c-6.12,4.05-13.28,7.32-21.18,9.49
		c-2.16,0.59-4.37,1.12-6.63,1.54c-6.31,1.18-12.51,1.57-18.43,1.28c-22.98-1.13-41.72-12.71-45.77-29.9
		c-0.11-0.45-0.22-0.9-0.3-1.35c-1.38-7.38,0.08-14.81,3.78-21.67c1.62-3.01,3.67-5.92,6.11-8.66c2.93-3.3,6.42-6.36,10.37-9.1
		c8.01-5.56,17.93-9.77,29.02-11.85c16.76-3.14,32.79-0.79,44.74,5.5C551.27,357.84,558.61,366.34,560.57,376.82z"/>
	<path class="st0" d="M498.22,361.39c-11.37,2.13-19.56,10.06-19.17,18.18c0.03,0.53,0.08,1.05,0.18,1.58
		c1.16,6.2,7.21,10.61,15.01,11.77c3.07,0.46,6.42,0.41,9.84-0.23c12.1-2.27,20.6-11.11,18.98-19.76
		C521.45,364.29,510.33,359.12,498.22,361.39z"/>
	<path class="st0" d="M432.68,421.39c0,0,0-0.01-0.01-0.01L432.68,421.39L432.68,421.39z"/>
	<path class="st0" d="M369.18,694.62c0.02-0.21,0.04-0.41,0.06-0.62c-0.16-0.97-0.31-1.93-0.46-2.89c-0.02-0.51-0.02-1.03,0.02-1.56
		c0.04-0.54,0.15-1.13,0.32-1.77c-0.02-0.37-0.03-1.11-0.04-2.22c-0.01-1.1,0.01-2.27,0.04-3.51c0.03-1.24,0.06-2.4,0.07-3.49
		c0.02-1.09,0.02-1.82,0.02-2.19c-0.25-3.31-0.46-6.6-0.63-9.87c-0.52-0.31-0.91-0.64-1.19-1c-0.28-0.36-0.61-0.71-0.99-1.04
		c-1.93-1.28-3.85-2.56-5.76-3.85c-0.06,0.01-0.13,0.02-0.2,0.03c-1.55-0.49-3.1-0.99-4.65-1.49c0.01-0.12,0.02-0.24,0.02-0.36
		c-0.06-0.09-0.15-0.14-0.28-0.16c-0.95-0.22-1.72-0.37-2.33-0.48c-0.6-0.11-1.35-0.23-2.24-0.36c-1.96-0.05-3.91-0.1-5.86-0.16
		c-0.06-0.03-0.12-0.06-0.18-0.09c-0.57-0.09-0.84-0.29-0.82-0.61c-3.02-0.39-6.02-0.79-9.02-1.2c0.01,0.18,0.03,0.36,0.04,0.55
		c-0.2,2.07-0.39,4.14-0.56,6.23c-0.04,0.48-0.04,1.33,0,2.57c0.04,1.24,0.1,2.56,0.19,3.95c0.09,1.4,0.18,2.72,0.29,3.96
		c0.11,1.24,0.2,2.1,0.25,2.56c-0.04,1.12-0.07,2.24-0.1,3.37c-0.03-0.01-0.06-0.01-0.1-0.02c-0.26-0.04-0.4,0.04-0.4,0.24
		c-0.01,0.29,0.18,0.72,0.57,1.3c0.39,0.58,0.58,0.99,0.57,1.24c-0.02,1.61-0.09,3.07-0.19,4.38c-0.1,1.31-0.15,2.57-0.14,3.78
		c0.02,1.3,0.12,2.62,0.31,3.97c0.2,1.35,0.49,2.89,0.88,4.59c0.01,0.34,0.12,0.59,0.33,0.75c0,0.08,0.01,0.17,0.01,0.25
		c0.01,0.3-0.06,0.75-0.2,1.36c-0.14,0.61-0.27,1.12-0.39,1.52c-0.12,0.4-0.17,0.65-0.17,0.73c0.11,0.1,0.21,0.21,0.32,0.31
		c2.05,0.35,4.11,0.7,6.17,1.04c0.04,0.03,0.07,0.05,0.11,0.08c0.69,0.11,1.37,0.23,2.06,0.34c1.89,0.37,3.79,0.74,5.69,1.1
		c1.65,0.26,2.96,0.43,3.92,0.52c0.96,0.08,2.26,0.17,3.9,0.24c-0.01-0.09-0.01-0.17-0.02-0.26c0.14,0.02,0.27,0.02,0.41,0
		c0.13-0.02,0.24-0.03,0.3-0.02c0.29-0.21,0.58-0.43,0.87-0.64c3.23-2.95,6.47-5.9,9.71-8.86c0.06-0.14,0.11-0.28,0.17-0.42
		c-0.02-0.38-0.06-0.71-0.11-0.99C369.74,695.22,369.54,694.92,369.18,694.62z M355.96,681.37c-0.16,0.24-0.31,0.52-0.44,0.83
		c-0.32,3.2-0.61,6.42-0.87,9.66c-1.61,0.18-3.15,0.15-4.63-0.08c-0.14-0.02-0.3-0.07-0.51-0.14c-0.07-0.18-0.14-0.36-0.22-0.54
		c-0.42-6.06-0.73-12.06-0.92-17.99c0-0.12-0.2-0.25-0.63-0.37c-0.42-0.13-0.6-0.24-0.53-0.36c0.24-0.37,0.48-0.74,0.72-1.11
		c0.46-0.01,0.91-0.02,1.37-0.04c2.18,0.33,4.36,0.65,6.55,0.97c-0.13,0.16-0.27,0.33-0.4,0.49c0.1,2.28,0.21,4.57,0.34,6.88
		c0.26,0.33,0.4,0.63,0.4,0.92C356.2,680.84,356.12,681.12,355.96,681.37z"/>
	<path class="st0" d="M408.64,684.08c-0.5-4.41-0.93-8.78-1.3-13.12c-0.19-0.39-0.4-0.69-0.64-0.9c-0.23-0.21-0.37-0.47-0.41-0.78
		c-0.1-0.76-0.04-1.53,0.16-2.31c0.21-0.78,0.45-1.54,0.73-2.29c0.28-0.75,0.53-1.5,0.75-2.23c0.22-0.73,0.29-1.46,0.21-2.17
		c-1.21-0.02-2.2,0-2.96,0.04c-0.77,0.04-1.82,0.09-3.15,0.14c-1.4,0.09-2.99,0.13-4.76,0.12c-1.77-0.01-3.4-0.03-4.87-0.07
		c-1.04-0.03-2.08-0.06-3.12-0.1c-0.07,0.02-0.13,0.03-0.2,0.05c-0.02,0.97-0.04,1.95-0.06,2.92c0.06,0.74,0.13,1.47,0.2,2.21
		c1.32,4.04,2.72,8.1,4.2,12.19c0.02,0.12-0.06,0.21-0.22,0.28c-0.16,0.07-0.36,0.16-0.58,0.27c-0.23,0.11-0.41,0.26-0.55,0.44
		c-0.15,0.19-0.19,0.47-0.14,0.86c0.04,0.29,0.08,0.58,0.13,0.87c1.47,5.16,0.4,10.37,2.09,15.63c0.48,2.35,0.99,4.71,1.51,7.08
		c-0.41,0.7-0.57,1.25-0.48,1.66c0.07,0.28,0.2,0.43,0.42,0.44c5.58,0.22,11.16,0.41,16.75,0.55c0.15,0,0.19-0.12,0.12-0.36
		C410.12,698.28,410.61,691.14,408.64,684.08z"/>
	<path class="st0" d="M475.66,698.1c-0.05-0.12-0.24-0.5-0.6-1.12c-0.35-0.63-0.73-2.66-1.13-3.44c-0.4-0.78,3.17-1.58,2.8-2.39
		c-0.37-0.81-0.64-1.45-0.81-1.92c-0.14-0.39-0.19-0.62-0.13-0.66c-0.11-0.32-0.24-0.75-0.37-1.32c-0.13-0.56-0.22-0.92-0.28-1.07
		c-0.53-1.7-0.96-3.11-1.31-4.23c-0.34-1.12-0.69-2.25-1.03-3.38c-0.34-1.13-0.61-2.03-0.83-2.69c-0.01-0.02-0.01-0.04-0.02-0.06
		c-0.05-0.16-0.24-0.25-0.58-0.3c-0.33-0.05-0.61-0.1-0.85-0.16c-3.1-0.41-6.03-0.81-8.79-1.2c-2.76-0.38-5.67-0.78-8.73-1.2
		c-0.88-0.16-1.48-0.48-1.79-0.94c-0.3-0.47-0.51-0.91-0.63-1.33c-0.02-0.08,0.02-0.18,0.13-0.3c0.62-0.91,1.25-1.83,1.87-2.74
		c0.17-0.52,0.35-1.05,0.52-1.57c0.74,0.44,1.49,0.89,2.23,1.33c0.26,0.17,0.67,0.29,1.25,0.36c0.57,0.07,1.18,0.11,1.81,0.13
		c0.63,0.02,1.21,0.03,1.73,0.02c0.52-0.01,0.85-0.02,0.99-0.03c0.47-0.04,0.94-0.01,1.39,0.1c0.45,0.12,0.87,0.24,1.26,0.38
		c0.39,0.14,0.75,0.26,1.1,0.37c0.35,0.11,0.68,0.14,1.03,0.11c0.27-0.03,0.59-0.07,0.96-0.13c0.37-0.06,0.71-0.12,1.04-0.19
		c-0.37-1.74-0.65-3.38-0.84-4.91c-0.19-1.53-0.45-3.2-0.79-5c-0.39-1.11-0.79-2.21-1.17-3.32c-0.56-0.06-1.47-0.02-2.74,0.11
		c-4.91,0.5-9.82,0.96-14.72,1.39c-0.62,0.11-1.25,0.22-1.87,0.33c-2.44,0.2-4.89,0.4-7.33,0.58c-0.29,0.25-0.57,0.5-0.86,0.75
		c-0.25,0.1-0.76,0.23-1.5,0.4c-0.75,0.17-1.11,0.31-1.09,0.42c0.84,1.07,1.69,2.14,2.55,3.21c0.14,0.6,0.19,1.14,0.16,1.61
		c-0.03,0.46-0.12,1.09-0.29,1.87c0.35,3.71,0.74,7.45,1.18,11.2c0.45,1.25,0.9,2.5,1.36,3.76c0.24,0.1,0.5,0.21,0.79,0.33
		c0.28,0.12,0.63,0.17,1.05,0.14c0.62-0.06,1.24-0.12,1.86-0.19c0.48-0.03,0.77-0.03,0.85,0c0.14-0.01,0.62,0,1.44,0.02
		c0.82,0.02,1.45,0.04,1.88,0.04c1.17,0.11,2.14,0.2,2.9,0.26c0.77,0.06,1.56,0.11,2.39,0.14c0.83,0.03,1.49,0.05,1.99,0.05
		c0.73,0.06,1.15,0.1,1.26,0.11c0.11,0.01,0.35,0.04,0.72,0.09c0.08,0.03,0.37,0.03,0.85-0.01c0.27,0.86,0.55,1.72,0.82,2.58
		c0.09,0.27,0.27,0.45,0.55,0.53c0.28,0.08,0.56,0.13,0.86,0.17c0.3,0.04,0.59,0.1,0.87,0.2c0.28,0.1,0.48,0.3,0.58,0.62
		c0.69,0.14,1.39,0.29,2.08,0.43c0.02,0.08-0.16,0.16-0.57,0.23c-0.4,0.07-0.83,0.15-1.27,0.23c-0.44,0.08-0.86,0.15-1.27,0.23
		c-0.4,0.07-0.6,0.13-0.59,0.17c-0.17,0.01-0.35,0.03-0.52,0.04c-0.06,0.05-0.36,0.16-0.91,0.35c-0.55,0.18-1.13,0.38-1.74,0.59
		c-0.61,0.21-0.93,0.29-0.94,0.25c-0.88-0.82-1.75-1.64-2.62-2.46c-0.29-0.02-0.98-0.03-2.05-0.03c-1.07,0-2.25,0.01-3.52,0.04
		c-1.28,0.03-2.49,0.04-3.63,0.04c-1.14,0-1.89-0.02-2.26-0.03c-0.28,0.02-0.56,0.04-0.84,0.05c0.11,0.35,0.36,0.74,0.78,1.15
		c0.41,0.41,0.85,0.78,1.31,1.11c0.28,1.02,0.57,2.05,0.86,3.07c2.27,2.88,0.61,7.09,2.97,9.99c0.17,0.17,0.34,0.34,0.51,0.52
		c0.21,0.19,0.66,0.63,1.35,1.32c0.22,0.01,0.44,0.01,0.67,0.02c1.1,0.01,2,0.01,2.69,0c0.69-0.01,1.4-0.02,2.13-0.03
		c0.73-0.01,1.27-0.01,1.65,0c2.03-0.15,4.07-0.3,6.1-0.46c3.85-0.31,6.82-0.59,8.94-0.81c2.11-0.23,3.68-0.45,4.7-0.65
		c1.03-0.2,1.63-0.37,1.83-0.52c0.2-0.14,0.27-0.3,0.21-0.46c-0.03-0.08-0.06-0.16-0.09-0.24
		C476.92,699.48,476.29,698.79,475.66,698.1z"/>
	<path class="st0" d="M533.87,676.31c-0.11-0.15-0.23-0.29-0.34-0.43c-1.12-2.16-2.23-4.32-3.32-6.47
		c-4.38,1.11-8.78,2.19-13.18,3.23c0.18,0.74,0.36,1.49,0.54,2.23c-0.02-0.04,0.01-0.02,0.08,0.05c0.07,0.07,0.19,0.19,0.35,0.37
		c0.37,0.74,0.74,1.49,1.11,2.23c0.12,0.23,0.2,0.47,0.25,0.71c0.05,0.24-0.01,0.43-0.17,0.55c-0.12,0.07-0.3,0.15-0.56,0.23
		c-0.26,0.08-0.79,0.22-1.6,0.4c-0.54,0.12-1.06,0.23-1.58,0.33c-0.51,0.1-1.22,0.22-2.11,0.38c-1.27-1.73-2.52-3.46-3.76-5.19
		c-0.38-0.8-0.76-1.6-1.14-2.39c0.1-0.1,0.21-0.35,0.32-0.73c0.11-0.38,0-0.95-0.36-1.71c-1.39-3.02-2.74-6.04-4.06-9.04
		c1.84-0.42,3.67-0.85,5.5-1.29c0.56,0.78,1.13,1.56,1.69,2.33c0.03,0.08,0.08,0.15,0.15,0.21c0.07,0.07,0.13,0.16,0.18,0.27
		c0.07,0.15,0.13,0.32,0.18,0.52c0.05,0.2,0.1,0.41,0.14,0.66c0.5,0.94,1.01,1.89,1.53,2.84c0.05-0.05,0.3-0.13,0.77-0.24
		c0.59-0.14,0.91-0.24,0.96-0.29c3.96-0.83,7.91-1.68,11.86-2.56c-0.17-0.66-0.34-1.31-0.51-1.97c-0.08-0.09-0.15-0.17-0.23-0.26
		c-0.13-0.26-0.25-0.53-0.38-0.79c-0.09-0.19-0.21-0.45-0.37-0.79c-0.16-0.34-0.39-0.74-0.68-1.21c-1.57-2.85-3.11-5.68-4.61-8.51
		c-0.87-0.02-1.41-0.16-1.63-0.42c-0.22-0.25-0.61-0.47-1.19-0.65c-2.5-0.69-4.99-1.39-7.47-2.1c-1.73,0.35-3.46,0.69-5.19,1.03
		c-0.39,0.09-0.77,0.19-1.16,0.28c-3.6,1.06-7.21,2.11-10.83,3.12c-0.2,0.04-1.01,0.39-2.46,1.03c-0.51,0.16-0.79,0.37-0.86,0.64
		c-0.07,0.28-0.24,0.71-0.51,1.29c-0.23,0.33-0.35,0.64-0.38,0.93c-0.03,0.29-0.02,0.72,0.02,1.29c0.05,0.57,0.11,1.35,0.17,2.32
		c0.07,0.97,0.12,2.31,0.17,4.01c0.07,0.17,0.14,0.34,0.21,0.5c0.21,0.52,0.61,0.87,1.18,1.03c0.16,0.03,0.31,0.06,0.47,0.08
		c0.01,0.04,0.03,0.07,0.05,0.11c0.09,0.22,0.11,0.48,0.05,0.76c-0.06,0.28-0.08,0.45-0.04,0.53c0.02,0.06,0.05,0.11,0.07,0.17
		c-0.19,0.23-0.39,0.45-0.58,0.68c0.87,2.73,1.77,5.46,2.69,8.2c0.07-0.1,0.13-0.19,0.2-0.29c0.28,0.63,0.56,1.25,0.85,1.88
		c0.18,0.15,0.36,0.3,0.54,0.45c1.53,3.31,3.1,6.64,4.71,9.98c0.09,0.19,0.28,0.35,0.56,0.46c0.28,0.11,0.57,0.21,0.88,0.3
		c0.3,0.09,0.6,0.18,0.88,0.3c0.28,0.11,0.48,0.28,0.6,0.51c0.12,0.23,0.42,0.27,0.91,0.13c0.5-0.15,0.91-0.1,1.25,0.12
		c-0.33,0.62-0.66,1.24-0.99,1.87c0.06,0.12,0.15,0.16,0.29,0.13c0.18,0.35,0.35,0.7,0.53,1.04c0.26,0.5,0.65,0.83,1.18,0.98
		c0.27,0.08,0.76,0.19,1.48,0.34c0.72,0.15,1.47,0.31,2.24,0.47c0.77,0.16,1.48,0.31,2.13,0.46c0.65,0.14,1.06,0.24,1.24,0.29
		c0.33,0.04,0.65,0.08,0.98,0.12c0.7,0.02,1.6-0.08,2.7-0.32c0.75-0.16,1.46-0.34,2.13-0.53c0.66-0.19,1.22-0.35,1.68-0.5
		c3.1-0.69,6.2-1.4,9.29-2.12c0.93-0.33,1.86-0.66,2.78-0.99c0.29-0.38,0.58-0.75,0.87-1.13c0.67-2.95,1.35-5.9,2.03-8.84
		c-0.41-0.77-0.82-1.54-1.22-2.3C533.94,677.16,533.9,676.74,533.87,676.31z"/>
	<path class="st0" d="M624.34,646.01c-0.71-0.98-1.45-2.01-2.23-3.07c-0.78-1.06-1.52-2.07-2.22-3.01
		c-0.69-0.95-1.22-1.63-1.55-2.06c-0.71-0.55-1.41-1.1-2.12-1.66c0.34-0.34,0.69-0.68,1.03-1.02c0.03-0.06-0.06-0.34-0.29-0.84
		c-0.23-0.49-0.5-1.03-0.81-1.61c-0.31-0.58-0.6-1.12-0.87-1.64c-0.27-0.52-0.46-0.87-0.58-1.06c-0.09-0.15-0.19-0.29-0.31-0.43
		c-0.12-0.14-0.27-0.3-0.46-0.5c-2.17,0.63-4.35,1.25-6.54,1.86c-0.25-0.18-0.6-0.22-1.06-0.14c-0.46,0.08-0.81,0.17-1.04,0.27
		c-1.88,1.65-3.77,3.3-5.67,4.93c0.1,0.42,0.12,0.75,0.07,0.98c-0.05,0.23-0.1,0.45-0.17,0.66c-0.06,0.21-0.09,0.44-0.09,0.7
		c0,0.26,0.13,0.59,0.37,1c0.32,0.55,0.64,1.09,0.96,1.64c0.22,0.38,0.44,0.72,0.66,1.03c0.22,0.31,0.4,0.58,0.53,0.8
		c0.08,0.01,0.21,0.11,0.4,0.3c0.18,0.18,0.39,0.38,0.63,0.59c0.23,0.21,0.52,0.38,0.86,0.5c0.33,0.12,0.68,0.11,1.04-0.03
		c0.12-0.05,0.51-0.16,1.18-0.34c0.67-0.18,1.09-0.31,1.27-0.38c0.03-0.01,0.06-0.02,0.09-0.04c0.86,1.16,1.72,2.33,2.58,3.49
		c0.59,1.38,1.19,2.76,1.79,4.14c-1.28-0.48-2.56-0.97-3.83-1.45c-1.34,0.13-2.68,0.27-4.01,0.4c-0.12-0.14-0.25-0.28-0.37-0.42
		c-0.46-0.76-1.2-1.57-2.21-2.45c-1-0.87-1.76-1.74-2.28-2.61c-0.21-0.48-0.42-0.95-0.63-1.43c-0.25-0.18-0.43-0.29-0.53-0.35
		c-0.1-0.05-0.19-0.14-0.26-0.25c-0.55-0.94-0.78-1.59-0.7-1.95c-1.29-3.76-2.54-7.5-3.74-11.23c0.08-0.05,0.16-0.11,0.23-0.16
		c0.43-0.26,0.74-0.51,0.95-0.73c0.2-0.22,0.48-0.4,0.83-0.54c0.12-0.05,0.24-0.06,0.35-0.04c0.12,0.02,0.22,0.04,0.3,0.05
		c2.69,0.12,5.39,0.24,8.08,0.34c1.06-2.33,2.11-4.65,3.16-6.99c0.63-0.65,0.74-1.36,0.3-2.14c-1.25-0.64-2.49-1.29-3.73-1.93
		c-0.12-0.22-0.33-0.4-0.62-0.55c-2.3-0.52-4.59-1.04-6.87-1.57c-0.95,0.81-1.89,1.62-2.84,2.42c-1.91,0.33-3.82,0.65-5.73,0.97
		c-0.41,0.17-0.81,0.33-1.22,0.5c-0.54,0.31-1.09,0.62-1.64,0.93c-0.63,0.43-0.91,0.7-0.85,0.81c-0.48,0.37-0.96,0.74-1.45,1.11
		c-0.19,0.32-0.38,0.64-0.57,0.95c-1.29,3.81-2.59,7.61-3.87,11.41c0.03,0.19,0.06,0.38,0.09,0.57c0.06,0.11,0.21,0.28,0.43,0.51
		c0.23,0.23,0.49,0.45,0.8,0.68c0.3,0.22,0.59,0.42,0.86,0.59c0.27,0.17,0.53,0.28,0.77,0.32c0.11,0.21,0.22,0.41,0.34,0.62
		c0.73,1.87,1.48,3.74,2.23,5.61c0.34,0.6,0.62,1.16,0.83,1.67c0.22,0.51,0.41,1.05,0.59,1.63c0.22,0.38,0.54,0.85,0.98,1.42
		c0.44,0.57,0.89,1.15,1.34,1.74c0.46,0.59,0.9,1.15,1.32,1.69c0.43,0.53,0.74,0.97,0.94,1.32c0.28,0.48,0.56,0.95,0.85,1.43
		c2.88,3.85,5.83,7.72,8.84,11.61c2.52-0.6,5.03-1.21,7.53-1.83c1.8-0.16,3.02-0.29,3.66-0.37c0.64-0.08,0.99-0.13,1.04-0.15
		c0.12-0.05,0.16-0.09,0.1-0.11c-0.06-0.03,0.1-0.11,0.47-0.26c0.86-0.8,1.71-1.6,2.56-2.4c0.53-0.41,1.07-0.82,1.6-1.23
		c0.24-0.1,0.64-0.04,1.2,0.17c0.56,0.21,0.91,0.43,1.06,0.66c2.04-0.84,4.08-1.68,6.1-2.53c-0.14-0.21-0.28-0.42-0.42-0.64
		c0.58-2.88,1.15-5.75,1.73-8.63C625.56,647.74,625.04,646.99,624.34,646.01z"/>
	<path class="st0" d="M663.43,612.5c-0.67-0.96-1.4-1.98-2.19-3.07c-0.78-1.09-1.51-2.13-2.19-3.12c-0.67-0.99-1.12-1.67-1.36-2.04
		c-0.39-0.38-0.78-0.8-1.17-1.26c-0.39-0.45-0.79-0.99-1.19-1.63c-0.41-0.82-0.82-1.64-1.22-2.46c-0.15-0.19-0.3-0.37-0.46-0.56
		c0.09-0.76,0-1.36-0.27-1.8c-0.12-0.13-0.23-0.26-0.35-0.4c-3.67-1.82-7.31-3.64-10.92-5.47c-0.38-0.05-0.75-0.1-1.13-0.15
		c-0.05,0.03-0.39,0.17-1.01,0.4c-0.62,0.23-1.07,0.43-1.33,0.57c-2.47,1.3-4.96,2.58-7.47,3.85c-0.66,0.31-1.46,0.71-2.4,1.19
		c-0.95,0.48-1.85,0.95-2.7,1.4c-0.13,0.07-0.27,0.14-0.4,0.21c-0.72,1.63-1.44,3.26-2.16,4.88c-0.27,0.51-0.25,1.03,0.04,1.54
		c0.16,0.28,0.32,0.55,0.47,0.83c-0.15,0.36-0.39,0.79-0.73,1.3c-0.34,0.51-0.61,0.9-0.8,1.19c0.08,0.39,0.05,0.64-0.09,0.76
		c-0.14,0.12-0.15,0.29-0.02,0.51c0.19,0.33,0.42,0.61,0.7,0.83c0.27,0.22,0.54,0.5,0.81,0.85c1.91,3.24,3.86,6.49,5.85,9.75
		c0.06,0.21,0.12,0.43,0.18,0.64c0.29,0.47,0.58,0.93,0.87,1.4c1.89,2.55,3.8,5.11,5.74,7.68c0.71,0.19,1.21,0.36,1.49,0.5
		c0.27,0.14,0.46,0.28,0.56,0.43c0.09,0.15,0.11,0.35,0.04,0.58c0.03,0.04,0.05,0.08,0.08,0.11c-0.18,0.39-0.21,0.77-0.05,1.12
		c0.16,0.35,0.35,0.7,0.57,1.04c0.11,0.17,0.22,0.34,0.34,0.51c1.12,1.53,2.26,3.07,3.4,4.61c0.31,0.46,0.71,0.75,1.22,0.89
		c0.5,0.13,1.04,0.17,1.6,0.12c0.56-0.05,1.16-0.15,1.78-0.28c0.62-0.13,1.21-0.24,1.76-0.31c1.32-0.16,2.57-0.2,3.74-0.14
		c1.18,0.07,2.43-0.02,3.78-0.25c0.07-0.01,0.14-0.02,0.21-0.03c0.05-0.03,0.12-0.09,0.21-0.19c0.42-0.38,0.83-0.75,1.24-1.13
		c0.4-0.24,0.8-0.48,1.19-0.72c2.66-1.3,5.3-2.62,7.92-3.96c0.24-0.3,0.29-0.57,0.14-0.84c-0.15-0.26-0.09-0.47,0.18-0.62
		c0.07-0.01,0.13-0.02,0.2-0.03c0.57-1.63,1.14-3.27,1.7-4.9c0.19-0.48,0.27-0.97,0.26-1.47c-0.01-0.5,0.12-0.97,0.41-1.4
		c-1.93-3.18-3.84-6.34-5.7-9.5C664.56,614.1,664.1,613.45,663.43,612.5z M649.88,625.7c-0.1-0.1-0.2-0.2-0.31-0.3
		c-0.18-0.16-0.31-0.27-0.39-0.33c-0.08-0.06-0.15-0.15-0.23-0.26c-1.92-2.94-3.81-5.87-5.67-8.78c-0.09-0.15-0.19-0.3-0.28-0.45
		c-0.47-0.74-0.89-1.24-1.26-1.49c-0.37-0.25-0.67-0.39-0.91-0.41c-0.04,0-0.08-0.01-0.12-0.01c-0.56-0.72-1.11-1.44-1.66-2.16
		c-0.83-1.87-1.64-3.74-2.45-5.61c0.19-0.1,0.37-0.2,0.56-0.3c0.57-0.35,1.05-0.66,1.46-0.93c0.41-0.27,0.82-0.52,1.24-0.75
		c0.53-0.29,0.94-0.49,1.23-0.6c0.29-0.11,0.49-0.17,0.62-0.2c0.2-0.01,0.38,0.08,0.55,0.29c0.16,0.21,0.31,0.42,0.44,0.64
		c1.99,3.24,4.01,6.48,6.08,9.75c0.32,0.28,0.65,0.51,0.99,0.7c0.34,0.19,0.6,0.44,0.8,0.73c0.1,0.15,0.14,0.28,0.14,0.38
		c0,0.1,0.01,0.3,0.05,0.58c0.4,0.95,0.91,2.03,1.56,3.23c0.64,1.21,1.29,2.3,1.94,3.28c0.07,0.17,0.15,0.33,0.22,0.5
		C652.97,624.04,651.42,624.87,649.88,625.7z"/>
	<path class="st0" d="M709.73,597.35c-0.04-0.06-0.08-0.11-0.12-0.17c-0.37-0.31-0.74-0.62-1.12-0.94c-0.38-0.32-0.75-0.73-1.1-1.22
		c-1.63-2.45-3.23-4.9-4.82-7.34c-0.98,1.19-1.97,2.37-2.96,3.55c-0.16,0.12-0.33,0.25-0.49,0.37c-0.24,0.18-0.62,0.41-1.17,0.7
		c-0.54,0.29-0.88,0.45-1,0.49c-0.29,0.1-0.69,0.32-1.22,0.64c-0.53,0.33-0.82,0.43-0.9,0.32c-0.15-0.11-0.3-0.23-0.46-0.34
		c-0.05,0.03-0.26-0.16-0.63-0.6c-0.37-0.43-0.99-1.17-1.86-2.22c-0.86-1.05-2-2.42-3.4-4.12c-1.39-1.69-3.13-3.8-5.22-6.32
		c-0.13-0.2-0.27-0.4-0.4-0.61c-0.22-0.33-0.53-0.84-0.94-1.51c-0.4-0.68-0.8-1.36-1.17-2.06c-0.38-0.69-0.66-1.33-0.86-1.91
		c-0.2-0.58-0.18-0.95,0.06-1.12c0.43-0.31,0.69-0.48,0.81-0.51c0.12-0.03,0.2-0.01,0.25,0.06c-0.01,0.03-0.02,0.07-0.04,0.11
		c0.02,0.03,0.1,0.02,0.23-0.05c0.13-0.07,0.38-0.24,0.76-0.52c0.09-0.07,0.19-0.14,0.28-0.21c-0.21-0.33-0.53-0.72-0.96-1.18
		c-0.43-0.46-0.88-0.92-1.34-1.38c-0.46-0.46-0.89-0.89-1.28-1.29c-0.39-0.4-0.65-0.71-0.79-0.93c-0.27-0.44-0.54-0.87-0.81-1.3
		c-0.89-1.06-1.77-2.11-2.65-3.16c-0.24,0.28-0.6,0.7-1.1,1.27c-0.5,0.57-0.87,0.94-1.1,1.11c-3.22,2.12-6.48,4.2-9.77,6.25
		c2.05,2.95,4.15,5.91,6.27,8.89c0.16,0.15,0.3,0.32,0.42,0.5c0.11,0.19,0.23,0.36,0.35,0.55c0.22,0.35,0.44,0.7,0.66,1.04
		c0.93,1.47,1.92,3.12,2.97,4.95c1.06,1.84,2.47,4.09,4.24,6.76c0.15,0.22,0.3,0.45,0.45,0.67c0.2,0.19,0.4,0.25,0.59,0.17
		c0.2-0.08,0.46-0.14,0.78-0.2c0.2,0.3,0.4,0.6,0.6,0.89c1.82,2.68,3.4,5.45,4.72,8.3c1.35,2.86,2.92,5.55,4.73,8.09
		c0.38,0.53,0.76,1.06,1.15,1.59c0.21,0.03,0.41,0.06,0.62,0.09c0.48-0.21,0.96-0.41,1.43-0.62c2.3-1.55,4.58-3.13,6.84-4.72
		c0.38-0.64,0.75-1.28,1.13-1.92c0.03,0.04,0.13,0.01,0.31-0.1c0.18-0.1,0.35-0.21,0.49-0.31c0.1-0.07,0.34,0.02,0.73,0.25
		c0.39,0.24,0.75,0.24,1.09-0.01c1.79-1.3,3.57-2.62,5.33-3.94c0.53-0.46,1.02-0.87,1.45-1.23c0.43-0.36,0.71-0.59,0.85-0.7
		c0.17-0.07,0.36-0.16,0.57-0.26c0.37-0.29,0.38-0.67,0.01-1.17C710.71,598.09,710.22,597.62,709.73,597.35z"/>
	<path class="st0" d="M732.19,563.2c-0.11-0.15-0.32-0.06-0.65,0.25c-0.1,0.1-0.2,0.2-0.3,0.3c-0.08,0.08-0.19,0.12-0.32,0.13
		c-0.37,0.17-0.78,0.13-1.24-0.12c-0.46-0.25-0.9-0.59-1.32-1.03c-0.43-0.44-0.81-0.88-1.16-1.32c-0.35-0.44-0.61-0.77-0.77-0.99
		c-0.13-0.18-0.14-0.33-0.02-0.45c0.22-0.27,0.44-0.55,0.65-0.82c2.16-1.74,4.29-3.5,6.4-5.28c0.22-0.22,0.43-0.45,0.65-0.67
		c-0.03-0.13-0.05-0.26-0.08-0.4c-0.05-0.07-0.21-0.37-0.49-0.89c-0.27-0.52-0.62-1.17-1.04-1.95c-0.42-0.78-0.75-1.38-1-1.83
		c-0.1-0.15-0.21-0.29-0.31-0.44c-0.41-0.59-0.93-1.04-1.54-1.39c-0.61-0.34-1.17-0.88-1.68-1.61c-0.46-0.66-0.79-1.42-1-2.3
		c-0.21-0.88-0.48-1.7-0.81-2.48c-0.07,0-0.17,0.05-0.31,0.13c-0.03,0-0.06,0-0.1,0.01c-0.2,0.24-0.4,0.48-0.6,0.72
		c-1.4,3.27-2.82,6.52-4.26,9.76c-0.89-1.28-1.77-2.56-2.64-3.84c-0.19-0.18-0.34-0.27-0.45-0.29c-0.11-0.01-0.15,0-0.13,0.04
		c-0.17-0.26-0.37-0.69-0.58-1.29c-0.21-0.61-0.51-1.35-0.9-2.23c0.06-0.06,0.12-0.12,0.18-0.18c0.2-0.2,0.48-0.33,0.83-0.41
		c0.35-0.07,0.69-0.21,1.02-0.42c1.27-0.93,2.53-1.87,3.79-2.81c0.04,0.02,0.09,0.03,0.13,0.05c0.27-0.09,0.58-0.22,0.93-0.4
		c0.35-0.18,0.62-0.36,0.81-0.56c0.2-0.2,0.29-0.36,0.28-0.47c-0.01-0.11-0.08-0.26-0.2-0.44c-3.03-4.5-5.98-8.97-8.86-13.42
		c-0.79,0.51-1.32,0.89-1.57,1.16c-1.37,1.4-2.6,2.84-3.69,4.33c-1.1,1.49-2.35,3.02-3.76,4.6c-0.43,0.46-0.86,0.93-1.31,1.41
		c-0.45,0.48-0.92,0.95-1.42,1.41c-0.97,0.9-1.95,1.79-2.93,2.68c-1.24,0.92-2.48,1.83-3.73,2.73c0.06,1.09,0.61,1.76,1.61,1.98
		c0.81,0.19,1.46,0.66,1.93,1.43c0.08,0.1,0.22,0.25,0.3,0.34c1.99,1.5,3.99,3.01,6.01,4.52c0.14,0.11,0.32,0.31,0.55,0.59
		c0.23,0.29,0.51,0.69,0.85,1.2c0.32,0.47,0.49,1,0.51,1.59c0.02,0.59,0.02,1.18-0.03,1.77c-0.04,0.59-0.06,1.18-0.04,1.75
		c0.01,0.57,0.17,1.08,0.47,1.52c0.1,0.09,0.19,0.18,0.29,0.27c-0.08,0.19-0.07,0.38,0.04,0.58c0.14,0.27,0.15,0.49,0.04,0.67
		c4.76,5.94,9.67,11.94,14.72,17.97c1.1,1.78,2.21,3.56,3.33,5.35c0.34-0.3,0.73-0.79,1.16-1.46c0.43-0.67,0.71-1.06,0.83-1.18
		c2.67-2.43,5.29-4.89,7.88-7.39c0.79-0.91,1.57-1.82,2.35-2.74C737.04,568.36,734.6,565.78,732.19,563.2z"/>
</g>
</svg>
