<?xml version="1.0" encoding="utf-8"?>
<!-- Generator: Adobe Illustrator 23.0.4, SVG Export Plug-In . SVG Version: 6.00 Build 0)  -->
<svg version="1.1" id="Layer_1" xmlns="http://www.w3.org/2000/svg" xmlns:xlink="http://www.w3.org/1999/xlink" x="0px" y="0px"
	 viewBox="0 0 900 900" style="enable-background:new 0 0 900 900;" xml:space="preserve">
<style type="text/css">
	.st0{fill:#231F20;}
	.st1{fill:#AB1F24;}
</style>
<g>
	<path class="st0" d="M387.22,486.32l-35.01-120.66h22l18.89,64.75l33.25-55.74l31.4,55.74l19.06-64.75h24.01l-36.11,120.66
		l-37.87-72.33L387.22,486.32z"/>
	<path class="st0" d="M606.62,466.28v20.12h-89.93V365.66h72.13l16.79,22.06H539.7v27.11h50.21l-0.25,20.71H539.7v30.73
		L606.62,466.28L606.62,466.28z"/>
	<path class="st0" d="M706.1,424.26c3.3,1.57,6.09,4.65,8.35,9.22c2.27,4.58,3.4,10.48,3.4,17.72c0,5.05-0.48,9.71-1.43,13.98
		c-0.95,4.27-2.59,7.97-4.91,11.11c-2.32,3.14-5.45,5.61-9.36,7.41c-3.92,1.8-8.85,2.69-14.78,2.69h-65.92v-70.98h62.14
		c1.73,0,3.96-0.57,6.68-1.73c2.71-1.15,4.35-5.46,4.91-12.93c-0.79-5.39-2.3-9.08-4.53-11.07c-2.24-1.99-4.59-2.96-7.05-2.91
		h-55.75l-17.21-21.22h76.16c4.53,0,8.61,0.69,12.22,2.06c3.61,1.38,6.7,3.48,9.28,6.31c2.57,2.84,4.56,6.33,5.96,10.48
		c1.4,4.16,2.1,8.98,2.1,14.48c0,3.65-0.31,6.86-0.92,9.64c-0.62,2.78-1.39,5.22-2.31,7.33s-2,3.85-3.23,5.22
		C708.65,422.48,707.39,423.53,706.1,424.26z M643.97,435.38v30.9h39.3c2.57,0,5.12-0.73,7.64-2.19s3.78-6.09,3.78-13.89
		c-0.45-6.23-1.82-10.26-4.11-12.08c-2.29-1.82-4.73-2.74-7.3-2.74H643.97z"/>
	<path class="st0" d="M817.45,424.26c3.3,1.57,6.09,4.65,8.35,9.22c2.27,4.58,3.4,10.48,3.4,17.72c0,5.05-0.48,9.71-1.43,13.98
		c-0.95,4.27-2.59,7.97-4.91,11.11c-2.32,3.14-5.45,5.61-9.36,7.41c-3.92,1.8-8.85,2.69-14.78,2.69h-65.91v-70.98h62.14
		c1.74,0,3.96-0.57,6.68-1.73c2.71-1.15,4.35-5.46,4.91-12.93c-0.78-5.39-2.3-9.08-4.53-11.07c-2.24-1.99-4.59-2.96-7.05-2.91
		h-55.75L722,365.55h76.16c4.53,0,8.61,0.69,12.22,2.06c3.61,1.38,6.7,3.48,9.28,6.31c2.57,2.84,4.56,6.33,5.96,10.48
		c1.4,4.16,2.1,8.98,2.1,14.48c0,3.65-0.31,6.86-0.92,9.64c-0.62,2.78-1.39,5.22-2.31,7.33s-2,3.85-3.23,5.22
		C820,422.48,818.74,423.53,817.45,424.26z M755.31,435.38v30.9h39.3c2.57,0,5.12-0.73,7.64-2.19s3.78-6.09,3.78-13.89
		c-0.45-6.23-1.82-10.26-4.11-12.08c-2.3-1.82-4.73-2.74-7.3-2.74H755.31z"/>
</g>
<g>
	<path class="st0" d="M379.33,519.43c-0.49,2.17-1.22,4.01-2.17,5.54s-2.12,2.72-3.49,3.59c-1.37,0.87-2.93,1.3-4.67,1.3h-10.76
		v20.21h-6.95v-28.12h18.38c1.09,0,1.99-0.48,2.7-1.43c0.71-0.96,1.09-2.31,1.16-4.07c0-1.89-0.37-3.32-1.11-4.3
		c-0.74-0.98-1.66-1.47-2.75-1.47h-14.8l-5.34-8.44h19.51c1.76,0,3.32,0.45,4.69,1.33c1.37,0.89,2.53,2.12,3.46,3.69
		c0.94,1.57,1.65,3.45,2.15,5.64C379.83,515.09,379.83,517.27,379.33,519.43z"/>
	<path class="st0" d="M410.14,542.1v7.97h-27.38v-47.83h21.96l5.11,8.74h-20.07v10.74h15.29l-0.08,8.21h-15.21v12.17L410.14,542.1
		L410.14,542.1z"/>
	<path class="st0" d="M433.68,521.69c2.66,0,4.68,1.02,6.07,3.07s2.08,5.26,2.08,9.64c0,2.45-0.18,4.65-0.52,6.6
		c-0.35,1.96-0.9,3.6-1.66,4.94c-0.76,1.33-1.73,2.36-2.9,3.07c-1.18,0.71-2.6,1.07-4.27,1.07H416.6l-4.5-7.94h20.91
		c0.8,0,1.44-0.46,1.92-1.38s0.77-2.6,0.87-5.02c-0.1-2.27-0.39-3.76-0.87-4.49c-0.48-0.72-1.12-1.08-1.92-1.08h-11.86
		c-1.41,0-2.63-0.22-3.64-0.65c-1.01-0.43-1.86-1.25-2.54-2.45c-0.68-1.2-1.18-2.65-1.51-4.34c-0.32-1.69-0.49-3.56-0.49-5.6
		c0-2.25,0.18-4.29,0.54-6.12c0.36-1.83,0.91-3.4,1.66-4.69s1.72-2.29,2.9-3s2.6-1.07,4.26-1.07h13.22l5.52,8.77H421.8
		c-0.77,0.22-1.34,0.61-1.73,1.17c-0.38,0.56-0.63,2.15-0.75,4.77c0,1.6,0.19,2.7,0.56,3.3s1.01,1.08,1.92,1.44L433.68,521.69
		L433.68,521.69z"/>
	<path class="st0" d="M466.67,502.24l4.83,8.77h-11.56v39.06h-7.13v-39.06h-7.75l-4.6-8.77L466.67,502.24L466.67,502.24z"/>
	<path class="st0" d="M502.7,530.89l11.53-28.65l10.99,47.8h-7.31l-5.8-25.62l-9.56,22.08l-10.12-22.08l-5.75,25.62h-6.7l10.66-47.8
		L502.7,530.89z"/>
	<path class="st0" d="M541.71,550.07l-2.38-8.04h13.52l-6.65-20.21l-9.89,28.25h-7.75l17.77-47.9l17.36,47.9H541.71z"/>
	<path class="st0" d="M573.82,523.32v26.72h-6.83v-47.9l21.99,27.22v-27.05h6.85v47.86L573.82,523.32z"/>
	<path class="st0" d="M613.06,550.07l-2.38-8.04h13.52l-6.65-20.21l-9.89,28.25h-7.75l17.77-47.9l17.36,47.9H613.06z"/>
	<path class="st0" d="M647.68,521.52h15.49v28.55h-15.8c-1.99,0-3.84-0.62-5.53-1.85c-1.7-1.23-3.16-2.94-4.38-5.12
		c-1.23-2.18-2.19-4.76-2.89-7.74s-1.05-6.2-1.05-9.67c0-3.49,0.35-6.68,1.05-9.56s1.66-5.36,2.89-7.44
		c1.23-2.08,2.69-3.67,4.38-4.79c1.7-1.11,3.54-1.67,5.53-1.67h10.61l5.62,8.77h-16.49c-0.95,0-1.8,0.4-2.54,1.18
		c-0.74,0.79-1.42,1.88-2.03,3.27c-0.61,1.39-1.09,3.12-1.43,5.19c-0.34,2.07-0.51,3.96-0.51,5.67c0,1.73,0.17,3.47,0.5,5.2
		c0.33,1.73,0.81,3.32,1.42,4.77s1.33,2.67,2.15,3.67s1.72,1.5,2.71,1.5h9.48v-11.31h-4.75L647.68,521.52z"/>
	<path class="st0" d="M693.85,542.1v7.97h-26.38v-47.83h21.96l5.11,8.74h-20.07v10.74h15.29l-0.08,8.21h-15.21v12.17L693.85,542.1
		L693.85,542.1z"/>
	<path class="st0" d="M719.42,530.89l11.53-28.65l10.99,47.8h-7.31l-5.8-25.62l-9.56,22.08l-10.12-22.08l-5.75,25.62h-6.7
		l10.66-47.8L719.42,530.89z"/>
	<path class="st0" d="M771.54,542.1v7.97h-26.38v-47.83h21.96l5.11,8.74h-20.07v10.74h15.29l-0.08,8.21h-15.21v12.17L771.54,542.1
		L771.54,542.1z"/>
	<path class="st0" d="M781.72,523.32v26.72h-6.83v-47.9l21.99,27.22v-27.05h6.85v47.86L781.72,523.32z"/>
	<path class="st0" d="M831.17,502.24l4.83,8.77h-11.56v39.06h-7.13v-39.06h-7.75l-4.6-8.77L831.17,502.24L831.17,502.24z"/>
</g>
<g>
	<g>
		<polygon points="247.25,487.43 308.38,529.82 285.36,610.88 236.18,648.2 267.24,611.03 287.58,534.79 214.73,487.43 
			287.58,440.07 267.24,363.83 236.18,326.67 285.36,363.98 308.38,445.04 		"/>
		<polygon points="125.13,487.43 64,529.82 87.02,610.88 136.2,648.2 105.14,611.03 84.8,534.79 157.65,487.43 84.8,440.07 
			105.14,363.83 136.2,326.67 87.02,363.98 64,445.04 		"/>
	</g>
	<g>
		<polygon class="st1" points="272.53,436.91 204.05,480.97 186.19,454.78 168.33,480.97 99.85,436.91 117.71,366.06 168.33,311.28 
			138.55,379.16 133.2,423.81 167.73,457.16 186.19,431.44 204.65,457.16 239.18,423.81 233.83,379.16 204.05,311.28 254.65,366.06 
					"/>
		<polygon points="272.53,538.69 204.05,494.62 186.19,520.82 168.33,494.62 99.85,538.69 117.71,609.54 168.33,664.32 
			138.55,596.44 133.2,551.79 167.73,518.44 186.19,544.16 204.65,518.44 239.18,551.79 233.83,596.44 204.05,664.32 254.65,609.54 
					"/>
	</g>
</g>
<g>
	<path class="st0" d="M351.23,604.8v-35.02h4.02c2,6.85,7.04,25.46,7.66,28.55H363c-0.19-4.8-0.26-9.73-0.26-15.43v-13.12h3.16
		v35.02H362c-2.04-7.14-7.15-26.42-7.88-29.52h-0.05c0.23,4.21,0.34,10.01,0.34,16.33v13.19H351.23z"/>
	<path class="st0" d="M387.38,578.22v17.95c0,6.02-2.46,9.08-7.51,9.08c-5.36,0-7.21-3.5-7.21-9.05v-17.98
		c0-5.77,2.55-8.91,7.44-8.91C385.24,569.33,387.38,572.97,387.38,578.22z M376.06,578.14v18.3c0,4.18,1.52,5.79,3.96,5.79
		c2.57,0,3.95-1.58,3.95-5.98v-18.1c0-3.94-1.38-5.78-3.98-5.78C377.33,572.37,376.06,574.12,376.06,578.14z"/>
	<path class="st0" d="M404.5,569.78h6.08c5.12,0,7.51,2.61,7.51,8.14v2.15c0,5.15-1.46,9.04-7.76,9.04h-2.5v15.69h-3.33V569.78z
		 M407.83,586.27h2.22c4.11,0,4.69-2.55,4.69-6.24v-1.91c0-2.9-0.66-5.47-4.4-5.47h-2.51V586.27z"/>
	<path class="st0" d="M435.42,587.62h-7.89v14.12h8.93L436,604.8h-11.8v-35.02h11.68v3.08h-8.34v11.69h7.89v3.07H435.42z"/>
	<path class="st0" d="M444.16,595.05v2c0,3.46,1.22,5.3,3.77,5.3c2.6,0,3.7-1.77,3.7-5.98c0-4.18-0.92-5.87-4.6-8.72
		c-3.74-2.92-5.62-4.66-5.62-9.81c0-4.4,1.31-8.56,6.61-8.52c4.92,0.03,6.39,3.23,6.39,7.83v1.57h-3.31v-1.48
		c0-3.02-0.6-4.99-3.14-4.99c-2.56,0-3.21,2.24-3.21,5.09c0,3.44,0.69,4.68,3.93,7.15c4.77,3.63,6.3,5.63,6.3,11.43
		c0,4.91-1.33,9.34-7.09,9.34c-5.46,0-7.06-3.6-7.06-8.22v-2L444.16,595.05L444.16,595.05z"/>
	<path class="st0" d="M464.23,572.87h-5.68v-3.08h14.64v3.08h-5.63v31.94h-3.33L464.23,572.87L464.23,572.87z"/>
	<path class="st0" d="M501.32,594.86V596c0,4.56-0.83,9.26-6.91,9.26c-5.96,0-6.92-4.36-6.92-9.45v-17.85c0-5.65,2.4-8.63,6.96-8.63
		c5.71,0,6.72,4.13,6.72,8.65v1.32h-3.4v-1.51c0-2.88-0.41-5.42-3.39-5.42c-2.81,0-3.49,2.27-3.49,5.52v18.1
		c0,3.8,0.84,6.24,3.61,6.24c2.92,0,3.41-2.56,3.41-6.02v-1.35L501.32,594.86L501.32,594.86z"/>
	<path class="st0" d="M511.08,593.2l-1.78,11.6h-3.37l5.78-35.02h4.76l6.02,35.02H519l-1.9-11.6H511.08z M516.66,590.14
		c-1.33-8.13-2.23-14.16-2.55-17.32h-0.14c-0.12,2.66-1.42,10.63-2.43,17.32H516.66z"/>
	<path class="st0" d="M527.87,604.8v-35.02h4.02c2,6.85,7.04,25.46,7.66,28.55h0.09c-0.19-4.8-0.26-9.73-0.26-15.43v-13.12h3.16
		v35.02h-3.89c-2.04-7.14-7.15-26.42-7.88-29.52h-0.05c0.23,4.21,0.34,10.01,0.34,16.33v13.19H527.87z"/>
	<path class="st0" d="M571.69,587.62h-7.89v14.12h8.93l-0.46,3.06h-11.8v-35.02h11.68v3.08h-8.34v11.69h7.89L571.69,587.62
		L571.69,587.62z"/>
	<path class="st0" d="M580.42,595.05v2c0,3.46,1.22,5.3,3.77,5.3c2.6,0,3.7-1.77,3.7-5.98c0-4.18-0.92-5.87-4.59-8.72
		c-3.74-2.92-5.62-4.66-5.62-9.81c0-4.4,1.31-8.56,6.61-8.52c4.92,0.03,6.39,3.23,6.39,7.83v1.57h-3.31v-1.48
		c0-3.02-0.6-4.99-3.14-4.99c-2.55,0-3.21,2.24-3.21,5.09c0,3.44,0.69,4.68,3.93,7.15c4.77,3.63,6.3,5.63,6.3,11.43
		c0,4.91-1.33,9.34-7.09,9.34c-5.46,0-7.06-3.6-7.06-8.22v-2L580.42,595.05L580.42,595.05z"/>
	<path class="st0" d="M610.9,594.86V596c0,4.56-0.83,9.26-6.91,9.26c-5.96,0-6.92-4.36-6.92-9.45v-17.85c0-5.65,2.4-8.63,6.96-8.63
		c5.71,0,6.72,4.13,6.72,8.65v1.32h-3.4v-1.51c0-2.88-0.41-5.42-3.39-5.42c-2.81,0-3.49,2.27-3.49,5.52v18.1
		c0,3.8,0.84,6.24,3.61,6.24c2.92,0,3.41-2.56,3.41-6.02v-1.35L610.9,594.86L610.9,594.86z"/>
	<path class="st0" d="M620.66,593.2l-1.78,11.6h-3.37l5.78-35.02h4.76l6.02,35.02h-3.49l-1.9-11.6H620.66z M626.24,590.14
		c-1.32-8.13-2.23-14.16-2.55-17.32h-0.14c-0.12,2.66-1.42,10.63-2.43,17.32H626.24z"/>
	<path class="st0" d="M637.44,569.78h6.08c5.12,0,7.51,2.61,7.51,8.14v2.15c0,5.15-1.46,9.04-7.76,9.04h-2.5v15.69h-3.33V569.78z
		 M640.78,586.27H643c4.11,0,4.69-2.55,4.69-6.24v-1.91c0-2.9-0.66-5.47-4.4-5.47h-2.51L640.78,586.27L640.78,586.27z"/>
	<path class="st0" d="M668.36,587.62h-7.89v14.12h8.93l-0.46,3.06h-11.8v-35.02h11.68v3.08h-8.34v11.69h7.89L668.36,587.62
		L668.36,587.62z"/>
	<path class="st0" d="M688,572.87h-5.68v-3.08h14.64v3.08h-5.63v31.94H688V572.87z"/>
	<path class="st0" d="M701.83,569.78h3.33v14.68h7.64v-14.68h3.33v35.02h-3.33v-17.28h-7.64v17.28h-3.33V569.78z"/>
	<path class="st0" d="M734.84,587.62h-7.89v14.12h8.93l-0.46,3.06h-11.8v-35.02h11.68v3.08h-8.34v11.69h7.89L734.84,587.62
		L734.84,587.62z"/>
	<path class="st0" d="M753.67,604.8l-4.91-35.02h3.56c1.14,8.74,3.05,24.2,3.34,29.46h0.07c0.42-5.21,3.01-21.01,4.23-29.46h3.46
		c1.23,8.45,3.79,23.34,4.17,29.3h0.14c0.39-5.79,2.46-20.59,3.6-29.3h3.42l-5.34,35.02h-3.69c-1.18-8.27-3.52-23.18-4.1-28.65
		h-0.07c-0.7,6.06-2.95,20.41-4.21,28.65H753.67z"/>
	<path class="st0" d="M791.62,587.62h-7.89v14.12h8.93l-0.46,3.06h-11.8v-35.02h11.68v3.08h-8.34v11.69h7.89L791.62,587.62
		L791.62,587.62z"/>
	<path class="st0" d="M797.98,569.78h5.84c5.29,0,7.26,2.86,7.26,7.53v1.65c0,4.91-1.44,6.43-3.25,7.09
		c1.98,0.6,3.98,2.34,3.98,7.02v2.57c0,6.14-2.03,9.15-7.96,9.15h-5.87V569.78z M803.76,584.73c3.16,0,4.12-1.35,4.12-5.56v-1.61
		c0-3.24-1.2-4.91-4.31-4.91h-2.33v12.09h2.52V584.73z M801.24,601.96h2.35c3.92,0,4.89-1.9,4.89-6.37v-2.44
		c0-3.91-1.44-5.6-4.8-5.6h-2.44V601.96z"/>
	<path class="st0" d="M818.06,569.78h5.84c5.29,0,7.26,2.86,7.26,7.53v1.65c0,4.91-1.44,6.43-3.25,7.09
		c1.98,0.6,3.98,2.34,3.98,7.02v2.57c0,6.14-2.03,9.15-7.96,9.15h-5.87V569.78z M823.84,584.73c3.16,0,4.12-1.35,4.12-5.56v-1.61
		c0-3.24-1.2-4.91-4.31-4.91h-2.33v12.09h2.52V584.73z M821.32,601.96h2.35c3.92,0,4.89-1.9,4.89-6.37v-2.44
		c0-3.91-1.44-5.6-4.8-5.6h-2.44V601.96z"/>
</g>
</svg>
