<?xml version="1.0" encoding="utf-8"?>
<!-- Generator: Adobe Illustrator 25.1.0, SVG Export Plug-In . SVG Version: 6.00 Build 0)  -->
<svg version="1.1" id="Layer_1" xmlns="http://www.w3.org/2000/svg" xmlns:xlink="http://www.w3.org/1999/xlink" x="0px" y="0px"
	 viewBox="0 0 900 900" style="enable-background:new 0 0 900 900;" xml:space="preserve">
<style type="text/css">
	.st0{enable-background:new    ;}
	.st1{fill:#F8F3F0;}
	.st2{fill:#FBA56A;}
</style>
<g class="st0">
	<path class="st1" d="M36.7,547.2l-5.7-6.8v-2.2h27.8v2.2l-4.8,6.7l8,23.5l9-23.3l-0.1-0.1l-5.1-6.9v-2.2h26.3v2.2l-4.7,6.7l1,3.5
		l6.4,20.6l8.9-24l-4.7-6.8v-2.2h17.8v2.2l-6.4,6.7l-18.7,46.4h-5.5l-12-38.2L59,593.6h-4.9L36.7,547.2z"/>
</g>
<g class="st0">
	<path class="st1" d="M147.5,538.4l-0.7,7.9v27.1c0,1.6,0.1,3.2,0.4,4.8c0.3,1.6,0.7,2.9,1.3,4.1c0.6,1.2,1.4,2.1,2.4,2.8
		c1,0.7,2.3,1.1,3.8,1.1c1.1,0,2.3-0.2,3.5-0.7c1.2-0.5,2.4-1,3.5-1.7c1.1-0.7,2.1-1.4,3-2.2c0.9-0.8,1.6-1.6,2.2-2.4v-28.6
		l-6.2-7.1v-2.2l22-4.5l1.7,1.5l-0.7,7.9v35.2l5.9,7.3v1.8l-20.4,4.3l-2-9.1c-0.9,1.2-2.2,2.3-3.7,3.4c-1.5,1.1-3.2,2.1-5.1,2.9
		c-1.9,0.8-3.9,1.5-6,2c-2.1,0.5-4.2,0.8-6.3,0.8c-2.1,0-4.1-0.3-6.1-1c-2-0.7-3.7-1.7-5.2-3c-1.5-1.3-2.7-3.1-3.6-5.1
		c-0.9-2.1-1.3-4.5-1.3-7.3v-27.8l-6.2-7.1v-2.2l22-4.5L147.5,538.4z"/>
	<path class="st1" d="M218.9,538.2l-0.7,8.2h1.2c1.2-1.2,2.5-2.4,4-3.6c1.5-1.2,3.1-2.2,4.7-3.1c1.7-0.9,3.5-1.6,5.3-2.1
		c1.9-0.5,3.9-0.8,5.9-0.8c2.4,0,4.6,0.4,6.7,1.2c2.1,0.8,3.8,1.9,5.3,3.3c1.5,1.4,2.7,3.1,3.5,5.1c0.9,2,1.3,4.1,1.3,6.5v31.8
		l6.7,6.7v2.2h-29.9v-2.2l6.4-6.7v-29c0-1.5-0.2-2.9-0.6-4.2s-0.9-2.3-1.6-3.2c-0.7-0.9-1.6-1.6-2.5-2.1c-1-0.5-2.1-0.7-3.2-0.7
		c-1.2,0-2.3,0.2-3.5,0.7c-1.2,0.5-2.3,1.1-3.4,1.9c-1.1,0.7-2.1,1.6-3,2.4c-0.9,0.9-1.7,1.7-2.3,2.4v31.8l6.4,6.7v2.2h-30v-2.2
		l6.7-6.7v-34.1l-6.1-7.1v-2.2l21-4.6L218.9,538.2z"/>
</g>
<g class="st0">
	<path class="st1" d="M314.3,593.6l-17.4-24.2l-5,4.7v10.6l6.7,6.7v2.2h-30.3v-2.2l6.7-6.7v-64l-5.8-5.3v-2.5l21.7-4.4l1.6,1.7
		l-0.8,10.6v46.6l22.3-20.3l-7.1-7v-1.9h24.7v1.9l-10.3,7l-13.3,12.5l26.2,31.8v2.2H314.3z"/>
</g>
<g class="st0">
	<path class="st1" d="M383.9,581.8c-1.5,1.9-3,3.6-4.7,5.2c-1.7,1.6-3.5,3-5.5,4.1c-2,1.1-4.2,2.1-6.6,2.7c-2.4,0.7-5.1,1-8,1
		c-4.1,0-7.8-0.7-11.1-2.1c-3.3-1.4-6.1-3.3-8.4-5.8c-2.3-2.5-4.1-5.4-5.4-8.8c-1.3-3.4-1.9-7.2-1.9-11.3c0-4.5,0.7-8.5,2.1-12.2
		c1.4-3.7,3.3-6.9,5.8-9.5c2.5-2.6,5.5-4.7,9-6.2c3.5-1.5,7.3-2.2,11.5-2.2c3.9,0,7.4,0.7,10.5,2.1c3.1,1.4,5.7,3.4,7.8,5.9
		c2.1,2.5,3.7,5.4,4.8,8.8c1.1,3.4,1.6,7,1.6,10.8h-35.6c0,0.1,0,0.2,0,0.3s0,0.2,0,0.3c0.2,3.2,0.7,6.2,1.6,8.7
		c0.9,2.6,2.1,4.7,3.6,6.5c1.5,1.8,3.2,3.1,5.2,4.1c2,1,4.2,1.4,6.5,1.4c1.7,0,3.2-0.2,4.6-0.7c1.4-0.5,2.6-1.1,3.7-1.9
		c1.1-0.8,2.1-1.6,3-2.5c0.9-0.9,1.8-1.7,2.5-2.5L383.9,581.8z M359.8,541.9c-1.4,0-2.6,0.4-3.8,1.1c-1.2,0.7-2.3,1.9-3.2,3.4
		c-0.9,1.5-1.6,3.5-2.2,5.8c-0.5,2.3-0.8,5.1-0.9,8.3l18.8-1.2c0-3.4-0.2-6.2-0.6-8.4c-0.4-2.2-1-4-1.7-5.4
		c-0.7-1.3-1.7-2.3-2.7-2.8C362.4,542.1,361.2,541.9,359.8,541.9z"/>
</g>
<g class="st0">
	<path class="st1" d="M409.3,538.2l-0.7,8.2h1.2c0.7-1.2,1.7-2.4,2.9-3.5c1.2-1.2,2.6-2.2,4.2-3.1c1.6-0.9,3.4-1.6,5.3-2.2
		c1.9-0.5,3.9-0.8,5.9-0.8c0.8,0,1.7,0.1,2.4,0.2c0.8,0.1,1.6,0.4,2.4,0.7l-3,18.2l-1.9,0.1c-0.6-0.8-1.3-1.6-1.9-2.4
		c-0.7-0.8-1.4-1.5-2.2-2.2c-0.8-0.7-1.7-1.2-2.5-1.6c-0.9-0.4-1.8-0.6-2.8-0.6c-1.8,0-3.4,0.5-4.8,1.5c-1.5,1-2.8,2.1-3.9,3.3v30.8
		l7,6.7v2.2h-30.5v-2.2l6.7-6.7v-34l-6.2-7.2v-2.1l21-4.6L409.3,538.2z"/>
</g>
<g class="st0">
	<path class="st1" d="M495.6,593.6l3.7-4.5c-0.4-2.3-0.8-4.7-1.2-7.4c-0.4-2.6-0.8-5.4-1.3-8.2c-0.4-2.8-0.9-5.6-1.3-8.4
		c-0.5-2.8-0.9-5.5-1.3-8.1c-1.7,3.5-3.6,7-5.7,10.5c-2.1,3.5-4.2,6.8-6.4,10.1c-2.2,3.2-4.5,6.3-6.7,9.3s-4.5,5.6-6.6,8l-3.8-1.3
		l3.7-4.5c-0.3-4.2-0.6-8.2-1.1-12.3c-0.5-4-1-7.8-1.6-11.4c-0.6-3.6-1.3-6.8-2-9.7c-0.7-2.9-1.4-5.3-2.1-7.3
		c-0.3-0.7-0.6-1.3-0.8-1.9c-0.3-0.5-0.6-1-0.9-1.4c-0.3-0.4-0.8-0.6-1.2-0.8c-0.5-0.2-1.1-0.3-1.8-0.3c-0.6,0-1.2,0.1-1.8,0.3
		c-0.6,0.2-1.2,0.4-1.7,0.7c-0.5,0.3-1.1,0.6-1.5,0.8c-0.5,0.3-0.9,0.5-1.3,0.8l-1.5-2.3c0.8-0.8,1.7-1.6,2.8-2.4
		c1.1-0.8,2.2-1.5,3.3-2.2c1.1-0.7,2.3-1.2,3.4-1.6c1.1-0.4,2.2-0.6,3.1-0.6c1,0,1.8,0.1,2.5,0.4c0.7,0.3,1.3,0.7,1.9,1.2
		s1,1.2,1.4,2.1c0.4,0.8,0.8,1.8,1.2,3c0.7,2.3,1.3,5,1.9,7.9s1.1,6,1.6,9.3c0.5,3.3,0.9,6.6,1.2,10c0.3,3.4,0.6,6.8,0.7,10.2
		c1.6-2.1,3.3-4.5,5.1-7c1.8-2.6,3.5-5.2,5.2-8c1.7-2.8,3.3-5.6,4.7-8.4c1.4-2.9,2.6-5.7,3.6-8.4c-0.4-2-0.7-3.8-1-5.4
		c-0.3-1.6-0.6-2.9-0.9-3.9l8.1-2.9c0.2,1.6,0.5,3.6,0.8,5.8c0.3,2.2,0.6,4.6,1,7.2c0.3,2.6,0.7,5.2,1.1,8c0.4,2.8,0.8,5.5,1.1,8.2
		c0.4,2.7,0.7,5.3,1,7.9c0.3,2.5,0.6,4.8,0.9,6.9c1.8-2.3,3.6-4.9,5.6-7.7c1.9-2.8,3.7-5.6,5.5-8.5c1.7-2.9,3.3-5.8,4.7-8.7
		c1.4-2.9,2.4-5.6,3.1-8.2l-5.9-7.4l0.4-2.2h13.3l-0.4,2.2l-1.3,3.5c-1.4,4.4-3.3,8.9-5.6,13.4s-4.8,9-7.6,13.4
		c-2.8,4.4-5.7,8.6-8.6,12.5c-3,4-5.9,7.5-8.6,10.7L495.6,593.6z"/>
</g>
<g class="st0">
	<path class="st1" d="M580.1,583.8c-1.4,1.3-3,2.6-4.8,3.9c-1.8,1.3-3.6,2.5-5.6,3.6c-2,1.1-4.1,1.9-6.4,2.6c-2.2,0.7-4.5,1-6.9,1
		c-3.1,0-5.9-0.5-8.4-1.6c-2.5-1.1-4.6-2.6-6.3-4.5c-1.7-1.9-3.1-4.3-4-7c-0.9-2.7-1.4-5.7-1.4-9c0-5,0.8-9.7,2.5-14
		c1.7-4.3,3.9-8,6.8-11.2c2.8-3.2,6.1-5.6,9.9-7.4c3.7-1.8,7.7-2.7,11.9-2.7c3.5,0,6.5,0.7,9,2.1c2.5,1.4,4.5,3.3,6,5.7
		c1.5,2.4,2.4,5.2,2.8,8.4c0.4,3.2,0.2,6.6-0.5,10.2H546c0,0.1-0.1,0.3-0.2,0.6s-0.2,0.7-0.2,1.2c-0.1,0.5-0.2,1.2-0.2,2.1
		c-0.1,0.8-0.1,1.9-0.1,3.1c0,2.8,0.3,5.4,0.8,7.7c0.5,2.3,1.4,4.3,2.6,5.9c1.2,1.6,2.7,2.8,4.6,3.7c1.9,0.9,4.2,1.3,7,1.3
		c1.6,0,3.1-0.3,4.7-0.8s3.1-1.3,4.5-2.1s2.9-1.8,4.3-2.8s2.7-2,4-2.9L580.1,583.8z M566.3,541.9c-2.2,0-4.2,0.4-6.3,1.3
		c-2,0.9-3.9,2.1-5.6,3.8s-3.2,3.7-4.5,6.1c-1.3,2.4-2.3,5.1-3,8.1l30.1-1.1c0.5-2.7,0.6-5.2,0.4-7.5c-0.2-2.2-0.8-4.2-1.7-5.7
		c-0.9-1.6-2.1-2.8-3.7-3.7C570.4,542.3,568.5,541.9,566.3,541.9z"/>
</g>
<g class="st0">
	<path class="st1" d="M610.9,588.2c-0.8,0.8-1.7,1.5-2.7,2.3c-1.1,0.8-2.2,1.5-3.4,2.2s-2.4,1.2-3.7,1.6c-1.3,0.4-2.5,0.6-3.6,0.6
		c-0.9,0-1.7-0.1-2.5-0.4c-0.8-0.2-1.4-0.7-2-1.5c-0.5-0.7-0.9-1.8-1-3.3c-0.2-1.4,0-3.3,0.4-5.7l11.4-65.1l0.3-1.8l-8.4-3.9
		l0.3-2.2l16.3-3l1.3,1.4l-2.2,9.6l-11.3,64.1c-0.3,1.8-0.2,3.2,0.1,4.1s1.1,1.3,2.5,1.3c0.7,0,1.3-0.1,2-0.3
		c0.7-0.2,1.3-0.4,1.9-0.7c0.6-0.3,1.2-0.6,1.7-0.9s1-0.6,1.3-0.8L610.9,588.2z"/>
	<path class="st1" d="M643.2,588.2c-0.8,0.8-1.7,1.5-2.7,2.3c-1.1,0.8-2.2,1.5-3.4,2.2c-1.2,0.7-2.4,1.2-3.7,1.6
		c-1.3,0.4-2.5,0.6-3.6,0.6c-0.9,0-1.7-0.1-2.5-0.4s-1.4-0.7-2-1.5c-0.5-0.7-0.9-1.8-1-3.3s0-3.3,0.4-5.7l11.4-65.1l0.3-1.8
		l-8.4-3.9l0.3-2.2l16.3-3l1.3,1.4l-2.2,9.6l-11.3,64.1c-0.3,1.8-0.2,3.2,0.1,4.1c0.3,0.9,1.1,1.3,2.5,1.3c0.7,0,1.3-0.1,2-0.3
		s1.3-0.4,1.9-0.7c0.6-0.3,1.2-0.6,1.7-0.9c0.5-0.3,1-0.6,1.3-0.8L643.2,588.2z"/>
</g>
<g class="st0">
	<path class="st1" d="M712.9,588.2c-0.8,0.8-1.7,1.5-2.8,2.3s-2.2,1.5-3.4,2.2c-1.2,0.7-2.4,1.2-3.7,1.6c-1.3,0.4-2.5,0.6-3.6,0.6
		c-0.9,0-1.7-0.2-2.5-0.5c-0.8-0.4-1.4-1-1.9-1.9c-0.5-0.9-0.8-2.1-0.9-3.7c-0.1-1.6,0-3.5,0.4-5.9l4.8-26.7
		c0.8-4.3,0.5-7.6-0.8-9.9c-1.3-2.3-3.5-3.5-6.4-3.5c-1.6,0-3.3,0.3-5.2,0.8c-1.8,0.6-3.7,1.3-5.7,2.3c-1.9,1-3.9,2.1-5.8,3.3
		c-1.9,1.3-3.7,2.6-5.4,4l-7,40.4h-7.4l7.3-41.2l0.9-5.3l-8.5-4.4l0.4-2.2l15.5-3l1.2,1.4l-2.1,9.9h0.6c0.5-0.5,1.3-1.1,2.3-1.8
		s2.2-1.5,3.6-2.3c1.3-0.8,2.8-1.7,4.4-2.5c1.6-0.8,3.2-1.6,4.8-2.3c1.6-0.7,3.2-1.2,4.8-1.6c1.6-0.4,3.1-0.6,4.4-0.6
		c2.2,0,4.2,0.3,5.9,1c1.7,0.7,3.1,1.8,4.1,3.3s1.7,3.4,2,5.8c0.3,2.4,0.1,5.2-0.4,8.5l-4.8,26.9c-0.3,1.8-0.2,3.2,0.1,4.1
		c0.3,0.9,1.1,1.3,2.5,1.3c0.7,0,1.3-0.1,2-0.3c0.7-0.2,1.3-0.4,1.9-0.7c0.6-0.3,1.2-0.6,1.7-0.9c0.5-0.3,1-0.6,1.4-0.8L712.9,588.2
		z"/>
	<path class="st1" d="M764.4,583.8c-1.4,1.3-3,2.6-4.8,3.9c-1.8,1.3-3.6,2.5-5.6,3.6c-2,1.1-4.1,1.9-6.4,2.6c-2.2,0.7-4.5,1-6.9,1
		c-3.1,0-5.9-0.5-8.4-1.6c-2.5-1.1-4.6-2.6-6.3-4.5c-1.7-1.9-3.1-4.3-4-7c-0.9-2.7-1.4-5.7-1.4-9c0-5,0.8-9.7,2.5-14
		c1.7-4.3,3.9-8,6.8-11.2c2.8-3.2,6.1-5.6,9.9-7.4c3.7-1.8,7.7-2.7,11.9-2.7c3.5,0,6.5,0.7,9,2.1s4.5,3.3,6,5.7
		c1.5,2.4,2.4,5.2,2.8,8.4c0.4,3.2,0.2,6.6-0.5,10.2h-38.7c0,0.1-0.1,0.3-0.2,0.6s-0.2,0.7-0.2,1.2c-0.1,0.5-0.2,1.2-0.2,2.1
		c-0.1,0.8-0.1,1.9-0.1,3.1c0,2.8,0.3,5.4,0.8,7.7s1.4,4.3,2.6,5.9c1.2,1.6,2.7,2.8,4.6,3.7s4.2,1.3,7,1.3c1.6,0,3.1-0.3,4.7-0.8
		s3.1-1.3,4.5-2.1s2.9-1.8,4.3-2.8c1.4-1,2.7-2,4-2.9L764.4,583.8z M750.6,541.9c-2.2,0-4.2,0.4-6.3,1.3c-2,0.9-3.9,2.1-5.6,3.8
		s-3.2,3.7-4.5,6.1c-1.3,2.4-2.3,5.1-3,8.1l30.1-1.1c0.5-2.7,0.6-5.2,0.4-7.5c-0.2-2.2-0.8-4.2-1.7-5.7c-0.9-1.6-2.1-2.8-3.7-3.7
		C754.7,542.3,752.8,541.9,750.6,541.9z"/>
	<path class="st1" d="M811.7,553.3c-0.5-2.3-1-4.4-1.6-6.2c-0.5-1.8-1-3.3-1.4-4.5c-0.5-0.1-1.5-0.3-2.8-0.6
		c-1.3-0.2-2.7-0.4-4.2-0.4c-2.2,0-4,0.2-5.5,0.7c-1.5,0.5-2.8,1.2-3.8,2c-1,0.9-1.7,1.9-2.1,3c-0.4,1.2-0.7,2.4-0.7,3.7
		c0,1.3,0.3,2.4,0.8,3.5c0.5,1.1,1.2,2,2.1,3c0.9,0.9,2,1.8,3.2,2.6c1.2,0.8,2.6,1.6,4.1,2.4c1.8,1,3.5,2,5.2,3.1
		c1.7,1.1,3.3,2.2,4.6,3.5c1.4,1.3,2.5,2.6,3.3,4.1c0.9,1.5,1.3,3.2,1.3,5c0,2.6-0.6,5-1.7,7c-1.2,2-2.8,3.8-4.8,5.2
		s-4.5,2.5-7.4,3.2c-2.9,0.7-6,1.1-9.4,1.1c-4.2,0-7.8-0.4-10.8-1.1c-3-0.7-5.4-1.6-7.1-2.5l5-13.5h2.6c0.4,2,0.8,4,1.2,5.9
		s0.9,3.9,1.3,5.7c0.4,0.3,1.3,0.6,2.6,0.9c1.3,0.3,3.3,0.5,5.9,0.5c9.7,0,14.6-3.4,14.6-10.1c0-1.3-0.3-2.6-0.9-3.7
		c-0.6-1.1-1.4-2.1-2.4-3.1c-1-0.9-2.1-1.8-3.4-2.6c-1.3-0.8-2.6-1.5-4.1-2.3c-1.8-0.9-3.5-1.9-5.2-2.8c-1.7-1-3.2-2.1-4.5-3.3
		c-1.3-1.2-2.4-2.6-3.1-4.1s-1.2-3.3-1.2-5.3c0-2.7,0.6-5,1.8-7c1.2-2,2.8-3.7,4.8-5c2-1.3,4.4-2.3,7.1-3s5.6-1,8.6-1
		c1.3,0,2.6,0.1,3.9,0.2c1.3,0.1,2.6,0.4,3.9,0.6c1.3,0.3,2.5,0.6,3.6,1c1.2,0.4,2.2,0.8,3,1.2l-4.5,12.6H811.7z"/>
	<path class="st1" d="M860.9,553.3c-0.5-2.3-1-4.4-1.6-6.2c-0.5-1.8-1-3.3-1.4-4.5c-0.5-0.1-1.5-0.3-2.8-0.6
		c-1.3-0.2-2.7-0.4-4.2-0.4c-2.2,0-4,0.2-5.5,0.7c-1.5,0.5-2.8,1.2-3.8,2c-1,0.9-1.7,1.9-2.1,3c-0.4,1.2-0.7,2.4-0.7,3.7
		c0,1.3,0.3,2.4,0.8,3.5c0.5,1.1,1.2,2,2.1,3c0.9,0.9,2,1.8,3.2,2.6c1.2,0.8,2.6,1.6,4.1,2.4c1.8,1,3.5,2,5.2,3.1
		c1.7,1.1,3.3,2.2,4.6,3.5s2.5,2.6,3.3,4.1c0.9,1.5,1.3,3.2,1.3,5c0,2.6-0.6,5-1.7,7c-1.2,2-2.8,3.8-4.8,5.2
		c-2.1,1.4-4.5,2.5-7.4,3.2c-2.9,0.7-6,1.1-9.4,1.1c-4.2,0-7.8-0.4-10.8-1.1c-3-0.7-5.4-1.6-7.1-2.5l5-13.5h2.6c0.4,2,0.8,4,1.2,5.9
		s0.9,3.9,1.3,5.7c0.4,0.3,1.3,0.6,2.6,0.9s3.3,0.5,5.9,0.5c9.7,0,14.6-3.4,14.6-10.1c0-1.3-0.3-2.6-0.9-3.7
		c-0.6-1.1-1.4-2.1-2.4-3.1c-1-0.9-2.1-1.8-3.4-2.6c-1.3-0.8-2.6-1.5-4.1-2.3c-1.8-0.9-3.5-1.9-5.2-2.8c-1.7-1-3.2-2.1-4.5-3.3
		c-1.3-1.2-2.4-2.6-3.1-4.1c-0.8-1.5-1.2-3.3-1.2-5.3c0-2.7,0.6-5,1.8-7c1.2-2,2.8-3.7,4.8-5c2-1.3,4.4-2.3,7.1-3
		c2.7-0.7,5.6-1,8.6-1c1.3,0,2.6,0.1,3.9,0.2c1.3,0.1,2.6,0.4,3.9,0.6c1.3,0.3,2.5,0.6,3.6,1c1.1,0.4,2.2,0.8,3,1.2l-4.5,12.6H860.9
		z"/>
</g>
<g>
	<path class="st1" d="M464.8,297.2c-4.4,0.7-8.3,2.9-11.7,6.7c-3.3,3.7-5.5,8.9-6.7,14.2l-3.9-25.5c-0.2-1.1-0.7-2-1.5-2.5
		c-0.8-0.6-2.1-0.7-3.2-0.6l0,0h-0.1l0,0c0,0,0,0-0.1,0c-1.1,0.2-2.4,0.7-3,1.5s-0.9,1.8-0.7,2.9l3.9,25.2
		c-2.8-4.9-6.4-8.6-10.8-11.2s-8.8-3.6-13.2-2.9c-5.2,0.8-3.8,8.5,3.7,7.5c5.8-0.8,10.8,1.4,15.1,6.9c4.3,5.5,10.4,23.9,11.9,33.8
		c0.2,1.1,0.5,2.3,0.7,3.4l0.5,2.9v0.1c0,0.1,0,0.1,0.1,0.2c0.7,2.7,5.3,1.4,5-1c-0.3-1.7-0.4-4.3-0.8-6.5
		c-1.5-9.9-1.2-29.3,1.2-35.8c2.5-6.5,6.6-10.2,12.4-11.1C471,304.3,470,296.5,464.8,297.2z"/>
	<path class="st1" d="M440.1,477.2c4.4-0.7,8.3-2.9,11.7-6.7c3.3-3.7,5.5-8.9,6.7-14.2l3.9,25.5c0.2,1.1,1.6,3,5.1,2.4
		c3.5-0.7,3.7-2.6,3.6-3.7l-3.9-25.2c2.8,4.9,6.4,8.6,10.8,11.2s8.8,3.6,13.2,2.9c5.2-0.8,3.8-8.5-3.7-7.5
		c-5.8,0.8-10.8-1.4-15.1-6.9c-4.3-5.5-10.4-23.9-11.9-33.8c-0.2-1.1-0.5-2.3-0.7-3.4l-0.5-2.9v-0.1c0-0.1,0-0.1-0.1-0.2
		c-0.7-2.7-5.3-1.4-5,1c0.3,1.7,0.4,4.3,0.8,6.5c1.5,9.9,1.2,29.3-1.2,35.8c-2.5,6.5-6.6,10.2-12.4,11.1
		C433.9,470.1,434.9,477.9,440.1,477.2z"/>
	<path class="st2" d="M374.6,297.2c-2.6,3.6-3.8,7.9-3.5,13.1c0.3,5,2.4,10.2,5.3,14.7l-20.8-15.3c-0.9-0.7-1.9-0.9-2.9-0.7
		c-1,0.2-2,0.9-2.7,1.9l0,0l-0.1,0.1l0,0l0,0c-0.7,0.9-1.2,2.2-1,3.2c0.1,1,0.6,1.8,1.6,2.5l20.6,15.1c-5.4-1.5-10.6-1.6-15.6-0.3
		c-5,1.3-8.8,3.7-11.4,7.3c-3.1,4.2,3.4,8.7,7.9,2.7c3.5-4.7,8.7-6.6,15.6-5.8c6.9,0.8,24.3,9.6,32.3,15.5c0.9,0.7,1.9,1.3,2.9,1.9
		l2.4,1.7l0.1,0.1c0.1,0,0.1,0.1,0.2,0.1c2.4,1.4,4.8-2.8,2.8-4.2c-1.4-1-3.3-2.7-5.1-4.1c-8.1-5.9-21.6-19.8-24.5-26.2
		c-2.9-6.4-2.5-11.9,0.9-16.6C383.9,297.8,377.7,293,374.6,297.2z"/>
	<path class="st1" d="M507.4,459.8c2.6-3.6,3.8-7.9,3.5-13.1c-0.3-5-2.4-10.2-5.3-14.7l20.8,15.3c0.9,0.7,1.9,0.9,2.9,0.7
		c1-0.2,2-0.9,2.7-1.9l0,0l0.1-0.1l0,0l0,0c0.7-0.9,1.2-2.2,1-3.2c-0.1-1-0.6-1.8-1.6-2.5L511,425.1c5.4,1.5,10.6,1.6,15.6,0.3
		c5-1.3,8.8-3.7,11.4-7.3c3.1-4.2-3.4-8.7-7.9-2.7c-3.5,4.7-8.7,6.6-15.6,5.8c-6.9-0.8-24.3-9.6-32.3-15.5c-0.9-0.7-1.9-1.3-2.9-1.9
		l-2.4-1.7l-0.1-0.1c-0.1,0-0.1-0.1-0.2-0.1c-2.4-1.4-4.8,2.8-2.8,4.2c1.4,1,3.3,2.7,5.1,4.1c8.1,5.9,21.6,19.8,24.5,26.2
		c2.9,6.4,2.5,11.9-0.9,16.6C498.1,459.2,504.3,464,507.4,459.8z"/>
	<path class="st1" d="M507.8,459.3c2.6-3.6,3.8-7.9,3.5-13.1c-0.3-5-2.4-10.2-5.3-14.7l20.8,15.3c0.9,0.7,1.9,0.9,2.9,0.7
		c1-0.2,2-0.9,2.7-1.9l0,0l0.1-0.1l0,0l0,0c0.7-0.9,1.2-2.2,1-3.2c-0.1-1-0.6-1.8-1.6-2.5l-20.6-15.1c5.4,1.5,10.6,1.6,15.6,0.3
		c5-1.3,8.8-3.7,11.4-7.3c3.1-4.2-3.4-8.7-7.9-2.7c-3.5,4.7-8.7,6.6-15.6,5.8c-6.9-0.8-24.3-9.6-32.3-15.5c-0.9-0.7-1.9-1.3-2.9-1.9
		l-2.4-1.7l-0.1-0.1c-0.1,0-0.1-0.1-0.2-0.1c-2.4-1.4-4.8,2.8-2.8,4.2c1.4,1,3.3,2.7,5.1,4.1c8.1,5.9,21.6,19.8,24.5,26.2
		c2.9,6.4,2.5,11.9-0.9,16.6C498.5,458.6,504.7,463.5,507.8,459.3z"/>
	<path class="st1" d="M362.9,375.1c0.7,4.4,2.9,8.3,6.7,11.7c3.7,3.3,8.9,5.5,14.2,6.7l-25.5,3.9c-1.1,0.2-2,0.7-2.5,1.5
		c-0.6,0.8-0.7,2.1-0.6,3.2l0,0v0.1l0,0c0,0,0,0,0,0.1c0.2,1.1,0.7,2.4,1.5,3s1.8,0.9,2.9,0.7l25.2-3.9c-4.9,2.8-8.6,6.4-11.2,10.8
		s-3.6,8.8-2.9,13.2c0.8,5.2,8.5,3.8,7.5-3.7c-0.8-5.8,1.4-10.8,6.9-15.1c5.5-4.3,23.9-10.4,33.8-11.9c1.1-0.2,2.3-0.5,3.4-0.7
		l2.9-0.5h0.1c0.1,0,0.1,0,0.2-0.1c2.7-0.7,1.4-5.3-1-5c-1.7,0.3-4.3,0.4-6.5,0.8c-9.9,1.5-29.3,1.2-35.8-1.2
		c-6.5-2.5-10.2-6.6-11.1-12.4C369.9,368.9,362.1,369.9,362.9,375.1z"/>
	<path class="st1" d="M542.8,399.9c-0.7-4.4-2.9-8.3-6.7-11.7c-3.7-3.3-8.9-5.5-14.2-6.7l25.5-3.9c1.1-0.2,2-0.7,2.5-1.5
		c0.6-0.8,0.7-2.1,0.6-3.2l0,0v-0.1l0,0c0,0,0,0,0-0.1c-0.2-1.1-0.7-2.4-1.5-3s-1.8-0.9-2.9-0.7l-25.2,3.9
		c4.9-2.8,8.6-6.4,11.2-10.8c2.6-4.4,3.6-8.8,2.9-13.2c-0.8-5.2-8.5-3.8-7.5,3.7c0.8,5.8-1.4,10.8-6.9,15.1
		c-5.5,4.3-23.9,10.4-33.8,11.9c-1.1,0.2-2.3,0.5-3.4,0.7l-2.9,0.5h-0.1c-0.1,0-0.1,0-0.2,0.1c-2.7,0.7-1.4,5.3,1,5
		c1.7-0.3,4.3-0.4,6.5-0.8c9.9-1.5,29.3-1.2,35.8,1.2c6.5,2.5,10.2,6.6,11.1,12.4C535.8,406.1,543.6,405.1,542.8,399.9z"/>
	<path class="st1" d="M542.7,399.2c-0.7-4.4-2.9-8.3-6.7-11.7c-3.7-3.3-8.9-5.5-14.2-6.7l25.5-3.9c1.1-0.2,2-0.7,2.5-1.5
		c0.6-0.8,0.7-2.1,0.6-3.2l0,0v-0.1l0,0c0,0,0,0,0-0.1c-0.2-1.1-0.7-2.4-1.5-3s-1.8-0.9-2.9-0.7l-25.2,3.9
		c4.9-2.8,8.6-6.4,11.2-10.8c2.6-4.4,3.6-8.8,2.9-13.2c-0.8-5.2-8.5-3.8-7.5,3.7c0.8,5.8-1.4,10.8-6.9,15.1
		c-5.5,4.3-23.9,10.4-33.8,11.9c-1.1,0.2-2.3,0.5-3.4,0.7l-2.9,0.5h-0.1c-0.1,0-0.1,0-0.2,0.1c-2.7,0.7-1.4,5.3,1,5
		c1.7-0.3,4.3-0.4,6.5-0.8c9.9-1.5,29.3-1.2,35.8,1.2c6.5,2.5,10.2,6.6,11.1,12.4C535.7,405.4,543.5,404.4,542.7,399.2z"/>
	<path class="st1" d="M380.7,442.2c3.6,2.6,7.9,3.8,13.1,3.5c5-0.3,10.2-2.4,14.7-5.3l-15.3,20.8c-0.7,0.9-0.9,1.9-0.7,2.9
		c0.2,1,0.9,2,1.9,2.7l0,0l0.1,0.1l0,0l0,0c0.9,0.7,2.2,1.2,3.2,1c1-0.1,1.8-0.6,2.5-1.6l15.1-20.6c-1.5,5.4-1.6,10.6-0.3,15.6
		c1.3,5,3.7,8.8,7.3,11.4c4.2,3.1,8.7-3.4,2.7-7.9c-4.7-3.5-6.6-8.7-5.8-15.6c0.8-6.9,9.6-24.3,15.5-32.3c0.7-0.9,1.3-1.9,1.9-2.9
		l1.7-2.4l0.1-0.1c0-0.1,0.1-0.1,0.1-0.2c1.4-2.4-2.8-4.8-4.2-2.8c-1,1.4-2.7,3.3-4.1,5.1c-5.9,8.1-19.8,21.6-26.2,24.5
		c-6.4,2.9-11.9,2.5-16.6-0.9C381.3,432.9,376.5,439.1,380.7,442.2z"/>
	<path class="st1" d="M525.4,332.5c-3.6-2.6-7.9-3.8-13.1-3.5c-5,0.3-10.2,2.4-14.7,5.3l15.3-20.8c0.7-0.9,0.9-1.9,0.7-2.9
		s-0.9-2-1.9-2.7l0,0l-0.1-0.1l0,0l0,0c-0.9-0.7-2.2-1.2-3.2-1c-1,0.1-1.8,0.6-2.5,1.6L490.8,329c1.5-5.4,1.6-10.6,0.3-15.6
		c-1.3-5-3.7-8.8-7.3-11.4c-4.2-3.1-8.7,3.4-2.7,7.9c4.7,3.5,6.6,8.7,5.8,15.6c-0.8,6.9-9.6,24.3-15.5,32.3
		c-0.7,0.9-1.3,1.9-1.9,2.9l-1.7,2.4l-0.1,0.1c0,0.1-0.1,0.1-0.1,0.2c-1.4,2.4,2.8,4.8,4.2,2.8c1-1.4,2.7-3.3,4.1-5.1
		c5.9-8.1,19.8-21.6,26.2-24.5c6.4-2.9,11.9-2.5,16.6,0.9C524.8,341.8,529.6,335.6,525.4,332.5z"/>
	<path class="st1" d="M524.9,332.1c-3.6-2.6-7.9-3.8-13.1-3.5c-5,0.3-10.2,2.4-14.7,5.3l15.3-20.8c0.7-0.9,0.9-1.9,0.7-2.9
		s-0.9-2-1.9-2.7l0,0l-0.1-0.1l0,0l0,0c-0.9-0.7-2.2-1.2-3.2-1c-1,0.1-1.8,0.6-2.5,1.6l-15.1,20.6c1.5-5.4,1.6-10.6,0.3-15.6
		c-1.3-5-3.7-8.8-7.3-11.4c-4.2-3.1-8.7,3.4-2.7,7.9c4.7,3.5,6.6,8.7,5.8,15.6c-0.8,6.9-9.6,24.3-15.5,32.3
		c-0.7,0.9-1.3,1.9-1.9,2.9l-1.7,2.4l-0.1,0.1c0,0.1-0.1,0.1-0.1,0.2c-1.4,2.4,2.8,4.8,4.2,2.8c1-1.4,2.7-3.3,4.1-5.1
		c5.9-8.1,19.8-21.6,26.2-24.5c6.4-2.9,11.9-2.5,16.6,0.9C524.3,341.4,529.1,335.2,524.9,332.1z"/>
</g>
</svg>
