<?xml version="1.0" encoding="utf-8"?>
<!-- Generator: Adobe Illustrator 25.1.0, SVG Export Plug-In . SVG Version: 6.00 Build 0)  -->
<svg version="1.1" id="Layer_1" xmlns="http://www.w3.org/2000/svg" xmlns:xlink="http://www.w3.org/1999/xlink" x="0px" y="0px"
	 viewBox="0 0 900 900" style="enable-background:new 0 0 900 900;" xml:space="preserve">
<style type="text/css">
	.st0{fill:#F8F3F0;}
	.st1{font-family:'BlackerText-Bold';}
	.st2{font-size:112.1492px;}
	.st3{letter-spacing:5;}
	.st4{letter-spacing:-2;}
	.st5{letter-spacing:-8;}
	.st6{letter-spacing:-6;}
	.st7{letter-spacing:11;}
	.st8{font-family:'BlackerText-LightItalic';}
	.st9{letter-spacing:-4;}
	.st10{fill:#FBA56A;}
</style>
<text transform="matrix(1 0 0 1 31.1109 593.5681)"><tspan x="0" y="0" class="st0 st1 st2 st3">w</tspan><tspan x="91.1" y="0" class="st0 st1 st2 st4">un</tspan><tspan x="233.3" y="0" class="st0 st1 st2 st5">k</tspan><tspan x="296.8" y="0" class="st0 st1 st2 st6">e</tspan><tspan x="351.2" y="0" class="st0 st1 st2 st7">r</tspan><tspan x="414.3" y="0" class="st0 st8 st2">w</tspan><tspan x="496" y="0" class="st0 st8 st2 st9">e</tspan><tspan x="546.7" y="0" class="st0 st8 st2 st4">ll</tspan><tspan x="610.6" y="0" class="st0 st8 st2">ness</tspan></text>
<g>
	<path class="st0" d="M464.8,297.2c-4.4,0.7-8.3,2.9-11.7,6.7c-3.3,3.7-5.5,8.9-6.7,14.2l-3.9-25.5c-0.2-1.1-0.7-2-1.5-2.5
		c-0.8-0.6-2.1-0.7-3.2-0.6c0,0,0,0,0,0c0,0-0.1,0-0.1,0c0,0,0,0,0,0c0,0,0,0-0.1,0c-1.1,0.2-2.4,0.7-3,1.5
		c-0.6,0.8-0.9,1.8-0.7,2.9l3.9,25.2c-2.8-4.9-6.4-8.6-10.8-11.2c-4.4-2.6-8.8-3.6-13.2-2.9c-5.2,0.8-3.8,8.5,3.7,7.5
		c5.8-0.8,10.8,1.4,15.1,6.9c4.3,5.5,10.4,23.9,11.9,33.8c0.2,1.1,0.5,2.3,0.7,3.4l0.5,2.9c0,0,0,0.1,0,0.1c0,0.1,0,0.1,0.1,0.2
		c0.7,2.7,5.3,1.4,5-1c-0.3-1.7-0.4-4.3-0.8-6.5c-1.5-9.9-1.2-29.3,1.2-35.8c2.5-6.5,6.6-10.2,12.4-11.1
		C471,304.3,470,296.5,464.8,297.2z"/>
	<path class="st0" d="M440.1,477.2c4.4-0.7,8.3-2.9,11.7-6.7c3.3-3.7,5.5-8.9,6.7-14.2l3.9,25.5c0.2,1.1,1.6,3,5.1,2.4
		c3.5-0.7,3.7-2.6,3.6-3.7l-3.9-25.2c2.8,4.9,6.4,8.6,10.8,11.2c4.4,2.6,8.8,3.6,13.2,2.9c5.2-0.8,3.8-8.5-3.7-7.5
		c-5.8,0.8-10.8-1.4-15.1-6.9c-4.3-5.5-10.4-23.9-11.9-33.8c-0.2-1.1-0.5-2.3-0.7-3.4l-0.5-2.9c0,0,0-0.1,0-0.1c0-0.1,0-0.1-0.1-0.2
		c-0.7-2.7-5.3-1.4-5,1c0.3,1.7,0.4,4.3,0.8,6.5c1.5,9.9,1.2,29.3-1.2,35.8c-2.5,6.5-6.6,10.2-12.4,11.1
		C433.9,470.1,434.9,477.9,440.1,477.2z"/>
	<path class="st10" d="M374.6,297.2c-2.6,3.6-3.8,7.9-3.5,13.1c0.3,5,2.4,10.2,5.3,14.7l-20.8-15.3c-0.9-0.7-1.9-0.9-2.9-0.7
		c-1,0.2-2,0.9-2.7,1.9c0,0,0,0,0,0c0,0-0.1,0.1-0.1,0.1c0,0,0,0,0,0c0,0,0,0,0,0c-0.7,0.9-1.2,2.2-1,3.2c0.1,1,0.6,1.8,1.6,2.5
		l20.6,15.1c-5.4-1.5-10.6-1.6-15.6-0.3c-5,1.3-8.8,3.7-11.4,7.3c-3.1,4.2,3.4,8.7,7.9,2.7c3.5-4.7,8.7-6.6,15.6-5.8
		c6.9,0.8,24.3,9.6,32.3,15.5c0.9,0.7,1.9,1.3,2.9,1.9l2.4,1.7c0,0,0.1,0.1,0.1,0.1c0.1,0,0.1,0.1,0.2,0.1c2.4,1.4,4.8-2.8,2.8-4.2
		c-1.4-1-3.3-2.7-5.1-4.1c-8.1-5.9-21.6-19.8-24.5-26.2c-2.9-6.4-2.5-11.9,0.9-16.6C383.9,297.8,377.7,293,374.6,297.2z"/>
	<path class="st0" d="M507.4,459.8c2.6-3.6,3.8-7.9,3.5-13.1c-0.3-5-2.4-10.2-5.3-14.7l20.8,15.3c0.9,0.7,1.9,0.9,2.9,0.7
		c1-0.2,2-0.9,2.7-1.9c0,0,0,0,0,0c0,0,0.1-0.1,0.1-0.1c0,0,0,0,0,0c0,0,0,0,0,0c0.7-0.9,1.2-2.2,1-3.2c-0.1-1-0.6-1.8-1.6-2.5
		L511,425.1c5.4,1.5,10.6,1.6,15.6,0.3c5-1.3,8.8-3.7,11.4-7.3c3.1-4.2-3.4-8.7-7.9-2.7c-3.5,4.7-8.7,6.6-15.6,5.8
		c-6.9-0.8-24.3-9.6-32.3-15.5c-0.9-0.7-1.9-1.3-2.9-1.9l-2.4-1.7c0,0-0.1-0.1-0.1-0.1c-0.1,0-0.1-0.1-0.2-0.1
		c-2.4-1.4-4.8,2.8-2.8,4.2c1.4,1,3.3,2.7,5.1,4.1c8.1,5.9,21.6,19.8,24.5,26.2c2.9,6.4,2.5,11.9-0.9,16.6
		C498.1,459.2,504.3,464,507.4,459.8z"/>
	<path class="st0" d="M507.8,459.3c2.6-3.6,3.8-7.9,3.5-13.1c-0.3-5-2.4-10.2-5.3-14.7l20.8,15.3c0.9,0.7,1.9,0.9,2.9,0.7
		c1-0.2,2-0.9,2.7-1.9c0,0,0,0,0,0c0,0,0.1-0.1,0.1-0.1c0,0,0,0,0,0c0,0,0,0,0,0c0.7-0.9,1.2-2.2,1-3.2c-0.1-1-0.6-1.8-1.6-2.5
		l-20.6-15.1c5.4,1.5,10.6,1.6,15.6,0.3c5-1.3,8.8-3.7,11.4-7.3c3.1-4.2-3.4-8.7-7.9-2.7c-3.5,4.7-8.7,6.6-15.6,5.8
		c-6.9-0.8-24.3-9.6-32.3-15.5c-0.9-0.7-1.9-1.3-2.9-1.9l-2.4-1.7c0,0-0.1-0.1-0.1-0.1c-0.1,0-0.1-0.1-0.2-0.1
		c-2.4-1.4-4.8,2.8-2.8,4.2c1.4,1,3.3,2.7,5.1,4.1c8.1,5.9,21.6,19.8,24.5,26.2c2.9,6.4,2.5,11.9-0.9,16.6
		C498.5,458.6,504.7,463.5,507.8,459.3z"/>
	<path class="st0" d="M362.9,375.1c0.7,4.4,2.9,8.3,6.7,11.7c3.7,3.3,8.9,5.5,14.2,6.7l-25.5,3.9c-1.1,0.2-2,0.7-2.5,1.5
		c-0.6,0.8-0.7,2.1-0.6,3.2c0,0,0,0,0,0c0,0,0,0.1,0,0.1c0,0,0,0,0,0c0,0,0,0,0,0.1c0.2,1.1,0.7,2.4,1.5,3c0.8,0.6,1.8,0.9,2.9,0.7
		l25.2-3.9c-4.9,2.8-8.6,6.4-11.2,10.8c-2.6,4.4-3.6,8.8-2.9,13.2c0.8,5.2,8.5,3.8,7.5-3.7c-0.8-5.8,1.4-10.8,6.9-15.1
		c5.5-4.3,23.9-10.4,33.8-11.9c1.1-0.2,2.3-0.5,3.4-0.7l2.9-0.5c0,0,0.1,0,0.1,0c0.1,0,0.1,0,0.2-0.1c2.7-0.7,1.4-5.3-1-5
		c-1.7,0.3-4.3,0.4-6.5,0.8c-9.9,1.5-29.3,1.2-35.8-1.2c-6.5-2.5-10.2-6.6-11.1-12.4C369.9,368.9,362.1,369.9,362.9,375.1z"/>
	<path class="st0" d="M542.8,399.9c-0.7-4.4-2.9-8.3-6.7-11.7c-3.7-3.3-8.9-5.5-14.2-6.7l25.5-3.9c1.1-0.2,2-0.7,2.5-1.5
		c0.6-0.8,0.7-2.1,0.6-3.2c0,0,0,0,0,0c0,0,0-0.1,0-0.1c0,0,0,0,0,0c0,0,0,0,0-0.1c-0.2-1.1-0.7-2.4-1.5-3c-0.8-0.6-1.8-0.9-2.9-0.7
		l-25.2,3.9c4.9-2.8,8.6-6.4,11.2-10.8c2.6-4.4,3.6-8.8,2.9-13.2c-0.8-5.2-8.5-3.8-7.5,3.7c0.8,5.8-1.4,10.8-6.9,15.1
		c-5.5,4.3-23.9,10.4-33.8,11.9c-1.1,0.2-2.3,0.5-3.4,0.7l-2.9,0.5c0,0-0.1,0-0.1,0c-0.1,0-0.1,0-0.2,0.1c-2.7,0.7-1.4,5.3,1,5
		c1.7-0.3,4.3-0.4,6.5-0.8c9.9-1.5,29.3-1.2,35.8,1.2c6.5,2.5,10.2,6.6,11.1,12.4C535.8,406.1,543.6,405.1,542.8,399.9z"/>
	<path class="st0" d="M542.7,399.2c-0.7-4.4-2.9-8.3-6.7-11.7c-3.7-3.3-8.9-5.5-14.2-6.7l25.5-3.9c1.1-0.2,2-0.7,2.5-1.5
		c0.6-0.8,0.7-2.1,0.6-3.2c0,0,0,0,0,0c0,0,0-0.1,0-0.1c0,0,0,0,0,0c0,0,0,0,0-0.1c-0.2-1.1-0.7-2.4-1.5-3c-0.8-0.6-1.8-0.9-2.9-0.7
		l-25.2,3.9c4.9-2.8,8.6-6.4,11.2-10.8c2.6-4.4,3.6-8.8,2.9-13.2c-0.8-5.2-8.5-3.8-7.5,3.7c0.8,5.8-1.4,10.8-6.9,15.1
		c-5.5,4.3-23.9,10.4-33.8,11.9c-1.1,0.2-2.3,0.5-3.4,0.7l-2.9,0.5c0,0-0.1,0-0.1,0c-0.1,0-0.1,0-0.2,0.1c-2.7,0.7-1.4,5.3,1,5
		c1.7-0.3,4.3-0.4,6.5-0.8c9.9-1.5,29.3-1.2,35.8,1.2c6.5,2.5,10.2,6.6,11.1,12.4C535.7,405.4,543.5,404.4,542.7,399.2z"/>
	<path class="st0" d="M380.7,442.2c3.6,2.6,7.9,3.8,13.1,3.5c5-0.3,10.2-2.4,14.7-5.3l-15.3,20.8c-0.7,0.9-0.9,1.9-0.7,2.9
		c0.2,1,0.9,2,1.9,2.7c0,0,0,0,0,0c0,0,0.1,0.1,0.1,0.1c0,0,0,0,0,0c0,0,0,0,0,0c0.9,0.7,2.2,1.2,3.2,1c1-0.1,1.8-0.6,2.5-1.6
		l15.1-20.6c-1.5,5.4-1.6,10.6-0.3,15.6c1.3,5,3.7,8.8,7.3,11.4c4.2,3.1,8.7-3.4,2.7-7.9c-4.7-3.5-6.6-8.7-5.8-15.6
		c0.8-6.9,9.6-24.3,15.5-32.3c0.7-0.9,1.3-1.9,1.9-2.9l1.7-2.4c0,0,0.1-0.1,0.1-0.1c0-0.1,0.1-0.1,0.1-0.2c1.4-2.4-2.8-4.8-4.2-2.8
		c-1,1.4-2.7,3.3-4.1,5.1c-5.9,8.1-19.8,21.6-26.2,24.5c-6.4,2.9-11.9,2.5-16.6-0.9C381.3,432.9,376.5,439.1,380.7,442.2z"/>
	<path class="st0" d="M525.4,332.5c-3.6-2.6-7.9-3.8-13.1-3.5c-5,0.3-10.2,2.4-14.7,5.3l15.3-20.8c0.7-0.9,0.9-1.9,0.7-2.9
		c-0.2-1-0.9-2-1.9-2.7c0,0,0,0,0,0c0,0-0.1-0.1-0.1-0.1c0,0,0,0,0,0c0,0,0,0,0,0c-0.9-0.7-2.2-1.2-3.2-1c-1,0.1-1.8,0.6-2.5,1.6
		l-15.1,20.6c1.5-5.4,1.6-10.6,0.3-15.6c-1.3-5-3.7-8.8-7.3-11.4c-4.2-3.1-8.7,3.4-2.7,7.9c4.7,3.5,6.6,8.7,5.8,15.6
		c-0.8,6.9-9.6,24.3-15.5,32.3c-0.7,0.9-1.3,1.9-1.9,2.9l-1.7,2.4c0,0-0.1,0.1-0.1,0.1c0,0.1-0.1,0.1-0.1,0.2
		c-1.4,2.4,2.8,4.8,4.2,2.8c1-1.4,2.7-3.3,4.1-5.1c5.9-8.1,19.8-21.6,26.2-24.5c6.4-2.9,11.9-2.5,16.6,0.9
		C524.8,341.8,529.6,335.6,525.4,332.5z"/>
	<path class="st0" d="M524.9,332.1c-3.6-2.6-7.9-3.8-13.1-3.5c-5,0.3-10.2,2.4-14.7,5.3l15.3-20.8c0.7-0.9,0.9-1.9,0.7-2.9
		c-0.2-1-0.9-2-1.9-2.7c0,0,0,0,0,0c0,0-0.1-0.1-0.1-0.1c0,0,0,0,0,0c0,0,0,0,0,0c-0.9-0.7-2.2-1.2-3.2-1c-1,0.1-1.8,0.6-2.5,1.6
		l-15.1,20.6c1.5-5.4,1.6-10.6,0.3-15.6c-1.3-5-3.7-8.8-7.3-11.4c-4.2-3.1-8.7,3.4-2.7,7.9c4.7,3.5,6.6,8.7,5.8,15.6
		c-0.8,6.9-9.6,24.3-15.5,32.3c-0.7,0.9-1.3,1.9-1.9,2.9l-1.7,2.4c0,0-0.1,0.1-0.1,0.1c0,0.1-0.1,0.1-0.1,0.2
		c-1.4,2.4,2.8,4.8,4.2,2.8c1-1.4,2.7-3.3,4.1-5.1c5.9-8.1,19.8-21.6,26.2-24.5c6.4-2.9,11.9-2.5,16.6,0.9
		C524.3,341.4,529.1,335.2,524.9,332.1z"/>
</g>
</svg>
