<?xml version="1.0" encoding="utf-8"?>
<!-- Generator: Adobe Illustrator 23.0.4, SVG Export Plug-In . SVG Version: 6.00 Build 0)  -->
<svg version="1.1" id="Layer_1" xmlns="http://www.w3.org/2000/svg" xmlns:xlink="http://www.w3.org/1999/xlink" x="0px" y="0px"
	 viewBox="0 0 900 900" style="enable-background:new 0 0 900 900;" xml:space="preserve">
<style type="text/css">
	.st0{fill:#7CC142;}
	.st1{fill:#A9D04F;}
	.st2{fill:#542E0F;}
	.st3{fill:#DAE79F;}
	.st4{font-family:'ArialRoundedMTBold';}
	.st5{font-size:67.3445px;}
	.st6{letter-spacing:10.79;}
	.st7{enable-background:new    ;}
</style>
<g>
	<path class="st0" d="M443.7,446.32l53.43,30.77c1.51,0.92,3.38,0.92,4.89,0l53.09-30.69c1.51-0.91,2.44-2.59,2.44-4.42l-0.05-60.94
		c0-1.82-0.93-3.51-2.45-4.42l-53.22-30.77c-1.56-0.94-3.47-0.91-5,0.08c-7.69,4.97-44.39,25.71-53.45,31
		c-1.22,0.71-1.98,2.06-1.97,3.53l0.07,61.87C441.5,443.97,442.34,445.49,443.7,446.32z"/>
	<path class="st1" d="M418.29,301.12c0.02-2.22-1.16-4.28-3.08-5.4l-41.51-24.23c-2.1-1.48-4.69-1.48-6.79,0.01l-51.18,29.6
		c-2.07,1.46-3.35,4.15-3.35,7.06l-0.06,56.71c0,2.93,1.28,5.63,3.37,7.1l51.18,29.51c2.12,1.48,4.73,1.46,6.82-0.05l42.28-25.09
		c1.09-0.65,1.77-1.82,1.78-3.09L418.29,301.12z"/>
	<g>
		<g>
			<path class="st2" d="M443.33,368.06c18.87-10.93,37.74-21.87,56.62-32.8c-2,0-4.01,0-6.01,0c18.88,10.9,37.77,21.81,56.65,32.71
				c-0.98-1.71-1.97-3.43-2.95-5.14c0,21.81,0,43.61,0,65.42c0.98-1.71,1.97-3.43,2.95-5.14c-18.88,10.9-37.77,21.81-56.65,32.71
				c2,0,4.01,0,6.01,0c-18.88-10.9-37.77-21.81-56.65-32.71c0.98,1.71,1.97,3.43,2.95,5.14c0.01-27.85,0.01-55.7,0.02-83.55
				c0-14.26,0.01-28.53,0.01-42.79c0-3.82,0.51-7.31-3.1-9.88c-4.35-3.09-9.43-5.48-14.03-8.16c-13.99-8.13-27.99-16.27-41.98-24.4
				c-1.85-1.08-4.16-1.07-6.01,0c-18.88,10.9-37.77,21.81-56.65,32.71c-1.81,1.05-2.95,3.05-2.95,5.14c0,21.81,0,43.61,0,65.42
				c0,2.09,1.13,4.09,2.95,5.14c18.88,10.9,37.77,21.81,56.65,32.71c1.83,1.06,4.18,1.1,6.01,0c14.9-8.97,38.74-23.92,38.74-23.92
				l-0.05-13.26c0,0-29.8,17.93-44.7,26.9c2,0,4.01,0,6.01,0c-18.88-10.9-37.77-21.81-56.65-32.71c0.98,1.71,1.97,3.43,2.95,5.14
				c0-21.81,0-43.61,0-65.42c-0.98,1.71-1.97,3.43-2.95,5.14c18.88-10.9,37.77-21.81,56.65-32.71c-2,0-4.01,0-6.01,0
				c18.72,10.88,37.44,21.77,56.17,32.65c-0.98-1.71-1.97-3.43-2.95-5.14c-0.01,38.2-0.02,76.41-0.03,114.61c0,5.46,0,10.92,0,16.38
				c0,2.09,1.14,4.09,2.95,5.14c16.88,9.75,33.77,19.49,50.65,29.24c1.96,1.13,3.92,2.55,5.99,3.46c3.87,1.7,6.37-0.2,9.53-2.02
				c9.7-5.6,19.4-11.2,29.09-16.8c8.02-4.63,16.03-9.26,24.05-13.88c1.81-1.05,2.95-3.05,2.95-5.14c0-21.81,0-43.61,0-65.42
				c0-2.09-1.13-4.09-2.95-5.14c-18.88-10.9-37.77-21.81-56.65-32.71c-1.85-1.07-4.16-1.07-6.01,0
				c-18.87,10.93-37.74,21.87-56.62,32.8C430.7,361.62,436.68,371.91,443.33,368.06L443.33,368.06z"/>
			<path class="st3" d="M534.95,372.43c-12.9-7.45-25.8-14.9-38.7-22.34c-3.23-1.87-6.15,3.13-2.92,5
				c12.9,7.45,25.8,14.9,38.7,22.34C535.26,379.29,538.18,374.29,534.95,372.43L534.95,372.43z"/>
			<path class="st3" d="M422.88,306.61c-12.9-7.45-25.8-14.9-38.7-22.34c-3.23-1.87-6.15,3.13-2.92,5
				c12.9,7.45,25.8,14.9,38.7,22.34C423.19,313.47,426.1,308.47,422.88,306.61L422.88,306.61z"/>
			<path class="st3" d="M498.33,439.77c12.9-7.45,25.8-14.9,38.7-22.34c3.22-1.86,0.31-6.86-2.92-5c-12.9,7.45-25.8,14.9-38.7,22.34
				C492.18,436.63,495.09,441.63,498.33,439.77L498.33,439.77z"/>
			<path class="st3" d="M464.16,419.18c-0.09-14.9-0.17-29.79-0.26-44.69c-0.02-3.72-5.81-3.73-5.79,0
				c0.09,14.9,0.17,29.79,0.26,44.69C458.39,422.9,464.18,422.91,464.16,419.18L464.16,419.18z"/>
		</g>
		<g>
			<g>
				<path class="st2" d="M144.67,463.78c2.1,2.25,3.65,4.5,4.64,6.76c0.99,2.25,1.61,4.41,1.87,6.48c0.26,2.06,0.2,4.07-0.16,6.01
					s-0.79,3.72-1.27,5.35c-0.54,1.75-1.16,3.47-1.87,5.16c-0.7,1.69-1.53,3.28-2.48,4.79l-2.95,4.32
					c-0.55,0.63-1.12,1.22-1.71,1.78c-0.59,0.56-1.6,0.78-3.04,0.66c-2.2-0.25-4.65-1.16-7.37-2.72s-4.37-3.41-4.94-5.54
					c-0.16-0.87,0.08-1.66,0.73-2.35s1.11-1.34,1.39-1.97c0.69-0.63,1.22-1.34,1.58-2.16c0.37-0.81,0.78-1.6,1.26-2.35
					c0.88-1.62,1.63-3.28,2.27-4.97s1.12-3.47,1.44-5.35c0.75-3.38,0.85-6.01,0.29-7.88c-0.56-1.88-1.64-3.19-3.23-3.94
					s-3.44-0.97-5.54-0.66s-4.33,0.91-6.69,1.78c-3.72,2-6.9,4.38-9.55,7.13c-2.63,2.75-4.87,5.76-6.72,9.01
					c-1.84,3.26-3.4,6.63-4.68,10.14c-1.27,3.5-2.27,7.13-3,10.89c-0.58,3.75-0.91,7.64-1.02,11.64c-0.09,4.01,0.37,8.2,1.37,12.58
					c0.48,2.25,1.19,4.54,2.12,6.85c0.93,2.32,2.13,4.73,3.59,7.23c2.24,3.63,4.59,6.41,7.05,8.35c2.45,1.94,4.91,3.22,7.37,3.85
					c2.46,0.63,4.84,0.75,7.14,0.38c2.3-0.38,4.42-1.06,6.37-2.06c3.24-1.63,6.11-3.82,8.61-6.57c2.53-2.75,4.7-5.75,6.54-9.01
					c0.57-0.75,1.02-1.53,1.35-2.35c0.33-0.81,0.74-1.66,1.23-2.53c0.44-0.75,0.79-1.59,1.04-2.53s0.71-1.72,1.38-2.35
					c0.95-1,2.3-1.25,4.02-0.75c1.73,0.5,3.57,1.44,5.52,2.82c1.53,1.13,2.57,2.13,3.13,3c0.56,0.88,0.87,1.72,0.93,2.53
					c0.06,0.82-0.1,1.6-0.48,2.35c-0.38,0.75-0.76,1.44-1.15,2.06c-1.46,3.26-3.15,6.35-5.05,9.29c-1.89,2.94-4.09,5.66-6.63,8.17
					c-2.3,2.25-5.04,4.25-8.23,6.01c-3.19,1.75-6.96,2.75-11.34,3c-8.81,0.62-18.12-2.51-28-9.39c-5.9-4.13-10.48-8.66-13.75-13.61
					c-3.26-4.94-5.74-9.67-7.42-14.17c-1.85-4.75-2.94-9.26-3.27-13.52c-0.32-4.25-0.25-8.32,0.2-12.2c0.24-4,0.82-7.79,1.74-11.36
					c0.93-3.57,2.12-7.04,3.56-10.42c1.45-3.38,3.2-6.6,5.25-9.67c2.06-3.07,4.45-5.91,7.19-8.54c2.83-2.5,6.12-4.69,9.88-6.57
					c3.77-1.88,8.24-2.94,13.42-3.19c4-0.12,8.44,0.63,13.33,2.25C136.82,457.34,141.06,460.02,144.67,463.78z"/>
				<path class="st2" d="M189.38,461.15c0.6,1,0.66,1.81,0.19,2.44c-0.46,0.63-0.86,1.25-1.18,1.88
					c-3.92,6.01-6.96,12.33-9.13,18.96c-2.12,6.63-4.08,13.2-5.9,19.71c1.69-1,3.52-1.94,5.49-2.82c1.98-0.87,4.08-1.44,6.31-1.69
					s4.57-0.09,7.03,0.47c2.45,0.56,4.96,1.72,7.51,3.47c1.99,1.5,3.49,3.04,4.51,4.6c1.01,1.57,1.72,3.13,2.12,4.69
					c0.4,1.57,0.54,3.07,0.4,4.5c-0.14,1.44-0.3,2.79-0.47,4.04c-0.86,4.76-2.3,9.01-4.32,12.76c-2,3.75-3.42,7.82-4.26,12.2
					c-0.44,2.25-0.57,3.94-0.39,5.07c0.18,1.13,0.51,1.91,0.98,2.35s0.97,0.66,1.49,0.66s0.88-0.06,1.06-0.19
					c1.37-0.75,2.55-1.69,3.56-2.82s1.92-2.31,2.72-3.57c0.97-1.63,2.1-3.66,3.37-6.1c1.29-2.44,2.79-5.85,4.52-10.23
					c0.27-0.87,0.61-1.75,1.01-2.63c0.41-0.87,1.03-1.5,1.87-1.88c1.82-0.75,4.03-0.4,6.63,1.03c2.59,1.44,4.26,3.22,4.99,5.35
					c0.4,1.13,0.38,2.1-0.06,2.91c-0.44,0.82-0.8,1.66-1.07,2.53c-1.03,2.25-1.93,4.22-2.69,5.91c-0.76,1.69-1.44,3.13-2.03,4.32
					s-1.13,2.25-1.61,3.19s-0.95,1.78-1.41,2.53c-1.59,2.75-3.64,5.26-6.17,7.51c-2.51,2.25-5.9,3.5-10.16,3.75
					c-2.14,0.12-4.38-0.19-6.74-0.94s-4.69-2-6.97-3.75c-2.87-2.25-5.03-4.72-6.48-7.41s-2.34-5.22-2.67-7.6
					c-0.85-4.88-0.54-9.26,0.93-13.14c1.5-3.88,3.02-7.7,4.57-11.45c0.17-0.38,0.52-1.22,1.05-2.53c0.53-1.31,1-2.63,1.4-3.94
					s0.56-2.38,0.46-3.19c-0.09-0.81-0.8-0.97-2.11-0.47c-2.49,1-4.73,2.28-6.73,3.85c-1.99,1.57-3.78,3.22-5.37,4.97
					c-4.64,4.76-7.85,9.95-9.64,15.58c-1.74,5.63-2.92,11.52-3.53,17.65c-0.33,3.5-0.5,5.88-0.54,7.13c-0.03,1.25-0.48,2-1.36,2.25
					c-1.24,0.5-2.79,0.56-4.67,0.19c-1.88-0.38-3.75-1.19-5.63-2.44c-1.45-1-2.55-1.97-3.31-2.91c-0.75-0.94-1.23-1.84-1.42-2.72
					c-0.19-0.87-0.24-1.75-0.17-2.63c0.08-0.88,0.15-1.75,0.23-2.63c0.13-2,0.3-3.97,0.54-5.91c0.24-1.94,0.5-3.91,0.78-5.91
					c1.82-13.76,4.37-26.65,7.64-38.67c3.45-12.01,7.8-23.59,13.05-34.73c0.89-1.75,1.74-3.44,2.58-5.07
					c0.83-1.62,1.78-3.19,2.84-4.69c0.47-0.62,0.95-1.16,1.46-1.6c0.51-0.44,1.4-0.53,2.68-0.28c2.62,0.63,5.03,1.66,7.22,3.1
					C186.61,457.62,188.26,459.27,189.38,461.15z"/>
				<path class="st2" d="M279.81,566.08c-2.98,0.25-5.92-0.13-8.85-1.13s-5.66-2.57-8.21-4.69c-1.51-1.25-2.99-2.88-4.42-4.88
					c-0.96,1.5-1.98,2.88-3.07,4.13s-2.28,2.44-3.57,3.57c-2.16,1.62-4.78,2.63-7.87,3c-3.09,0.38-6.58-0.19-10.49-1.69
					c-3.57-1.38-6.55-3.32-8.92-5.82c-2.38-2.5-4.3-5.16-5.76-7.98c-1.46-2.82-2.41-5.57-2.87-8.26c-0.45-2.69-0.6-4.91-0.47-6.66
					c0.55-6.13,1.99-11.89,4.34-17.27c2.39-5.38,5.98-9.88,10.77-13.52c2.25-1.5,4.73-2.78,7.45-3.85c2.72-1.06,5.93-1.47,9.61-1.22
					c5.66,0.38,10.74,2.25,15.22,5.63c0.25-1,0.76-1.97,1.53-2.91c0.76-0.94,1.66-1.47,2.68-1.6c2.04,0,4.3,0.75,6.76,2.25
					c2.26,1.38,3.95,2.97,5.09,4.79c1.14,1.82,1.41,3.41,0.82,4.79c-0.85,1.88-1.78,3.72-2.79,5.54c-1,1.81-1.85,3.79-2.53,5.91
					c-1.67,4.88-2.95,9.04-3.85,12.48c-0.89,3.44-1.28,6.98-1.18,10.61c-0.09,1,0.03,2.07,0.35,3.19c0.32,1.13,0.73,2.07,1.22,2.82
					c0.5,0.75,1.16,1.28,2,1.59c0.83,0.31,1.76,0.09,2.77-0.66c1.2-0.87,2.19-1.91,2.96-3.1s1.49-2.47,2.16-3.85l7.77-15.58
					c0.38-0.75,0.75-1.6,1.1-2.53c0.35-0.94,0.92-1.66,1.71-2.16c1.73-0.75,3.84-0.5,6.33,0.75s4.17,2.94,5.06,5.07
					c0.41,1.25,0.43,2.25,0.04,3c-0.39,0.75-0.74,1.57-1.05,2.44c-2.16,4.5-3.79,7.88-4.92,10.14c-1.12,2.25-2.1,4.26-2.96,6.01
					c-1.35,2.51-3,4.98-4.95,7.41C286.89,564.3,283.89,565.71,279.81,566.08z M241.09,519.34c-2.71,3.63-5.03,7.88-6.95,12.76
					c-1.89,4.88-2.66,9.7-2.32,14.45c-0.04,0.38-0.01,1.03,0.1,1.97c0.1,0.94,0.3,1.88,0.61,2.82c0.3,0.94,0.74,1.78,1.33,2.53
					c0.58,0.75,1.4,1.13,2.45,1.13c2.86-0.25,5.03-1.41,6.49-3.47c1.47-2.06,2.72-3.91,3.73-5.54c2.81-4.88,5.08-9.98,6.78-15.3
					c1.74-5.32,3.54-10.61,5.39-15.86c-1.15-2.5-2.64-3.76-4.47-3.76c-1.82,0-3.67,0.5-5.52,1.5s-3.49,2.25-4.91,3.75
					C242.36,517.84,241.47,518.84,241.09,519.34z"/>
				<path class="st2" d="M289.8,528.35c2.01-3.63,3.78-7.32,5.29-11.08c1.53-3.75,3.02-7.57,4.45-11.45c0-0.5,0.12-0.97,0.36-1.41
					s0.36-0.91,0.37-1.41c-0.94-1.25-1.71-2.63-2.31-4.13s-0.93-2.88-0.98-4.13c-0.05-1.25,0.29-2.28,1.02-3.1
					c0.73-0.81,1.89-1.28,3.47-1.41c1.99-0.12,4.07,0.44,6.24,1.69c2.16,1.25,3.87,2.82,5.13,4.69c0.79,1.25,1.3,2.47,1.51,3.66
					c0.22,1.19,0.28,2.35,0.19,3.47l2.73,0.94c2.5,0.88,4.74,1.35,6.74,1.41s4.2,0.6,6.62,1.59c2.28,1,4.3,2.38,6.08,4.13
					s2.34,3.32,1.7,4.69c-1.91,4.38-3.54,8.54-4.9,12.48c-1.34,3.94-2.47,7.92-3.41,11.92c-0.13,0.75-0.25,2.03-0.34,3.85
					c-0.09,1.82-0.05,3.57,0.12,5.26c0.17,1.69,0.63,3.04,1.36,4.04c0.73,1,1.81,1,3.25,0c2.88-2,5.21-4.82,7-8.45
					c1.81-3.63,4.21-8.19,7.23-13.7c0.35-0.87,0.75-1.78,1.21-2.72c0.45-0.94,1.09-1.66,1.91-2.16c1.76-0.75,3.87-0.47,6.34,0.85
					c2.46,1.31,4.03,3.04,4.7,5.16c0.36,1.25,0.32,2.29-0.14,3.1c-0.45,0.82-0.85,1.66-1.21,2.53c-1.24,2.25-2.3,4.22-3.15,5.91
					s-1.63,3.13-2.34,4.32s-1.31,2.25-1.81,3.19s-0.98,1.85-1.45,2.72c-0.79,1.25-1.63,2.53-2.52,3.85
					c-0.88,1.31-1.91,2.53-3.08,3.66c-1.17,1.13-2.55,2.03-4.14,2.72c-1.59,0.69-3.42,1.03-5.5,1.03c-2.73,0-5.36-0.53-7.88-1.6
					c-2.53-1.06-4.77-2.44-6.73-4.13c-1.96-1.69-3.65-3.66-5.07-5.91s-2.41-4.5-2.97-6.76c-1.33-4.88-1.54-9.39-0.64-13.52
					c0.91-4.13,2.02-8.13,3.31-12.01c0.34-1.13,0.65-2.25,0.93-3.38s0.66-2.25,1.15-3.38c-0.94-0.25-2.12-0.62-3.53-1.13
					c-1.41-0.5-2.59-1-3.53-1.5c-0.35,1.13-0.74,2.29-1.19,3.47c-0.44,1.19-0.97,2.53-1.58,4.04c-0.61,1.5-1.34,3.26-2.21,5.26
					c-0.86,2-1.94,4.38-3.25,7.13c-0.39,0.75-0.74,1.57-1.07,2.44c-0.32,0.88-0.87,1.57-1.66,2.07c-1.05,0.75-2.36,0.91-3.92,0.47
					c-1.57-0.44-3.03-1.16-4.38-2.16s-2.39-2.16-3.12-3.47C289.5,530.7,289.36,529.48,289.8,528.35z"/>
				<path class="st2" d="M400.01,531.36c0.38-0.87,0.81-1.72,1.3-2.53c0.48-0.81,1.24-1.41,2.26-1.78c1.84-0.62,3.88-0.28,6.1,1.03
					c2.22,1.31,3.59,2.97,4.13,4.97c0.26,1.13,0.2,2.13-0.19,3c-0.39,0.88-0.8,1.69-1.24,2.44c-3.62,6.63-7.14,11.83-10.58,15.58
					c-3.42,3.75-6.72,6.51-9.9,8.26s-6.23,2.69-9.15,2.81c-2.93,0.12-5.56-0.06-7.9-0.56c-3.25-0.75-6.18-1.97-8.8-3.66
					c-2.63-1.69-4.96-3.75-7-6.19s-3.7-5.1-4.98-7.98s-2.19-5.88-2.74-9.01c-0.83-5.26-1.11-10.7-0.82-16.33
					c0.31-5.63,1.01-11.14,2.11-16.52c1.12-5.38,2.55-10.48,4.29-15.3c1.76-4.82,3.6-9.1,5.51-12.86c2.08-4,4.45-7.91,7.08-11.73
					c2.66-3.82,6.04-7.04,10.14-9.67c1.42-0.87,3.22-1.75,5.42-2.63c2.2-0.87,4.54-1.44,7.03-1.69s5.05-0.03,7.69,0.66
					c2.63,0.69,5.22,2.16,7.78,4.41c2.69,2.25,4.43,4.66,5.22,7.23c0.8,2.57,1.08,5.07,0.85,7.51c-0.23,2.44-0.75,4.76-1.56,6.95
					s-1.53,4.1-2.17,5.73c-2,4.38-4.27,8.48-6.81,12.3c-2.53,3.82-5.25,7.54-8.15,11.17c-1.92,2.25-3.99,4.51-6.22,6.76
					s-4.47,4.44-6.73,6.57s-4.57,4.1-6.96,5.91c-2.38,1.82-4.73,3.35-7.04,4.6c-0.44,1.25-0.77,2.47-0.97,3.66s-0.35,2.35-0.45,3.47
					c-0.25,4.26,0.56,7.82,2.41,10.7s3.78,4.63,5.8,5.26c1.56,0.5,3.34,0.31,5.33-0.56c1.99-0.88,4.09-2.28,6.29-4.22
					c2.21-1.94,4.47-4.41,6.77-7.41C395.44,538.68,397.74,535.24,400.01,531.36z M378.07,504.51c3.65-4,7.05-8.16,10.21-12.48
					c3.18-4.32,5.96-8.98,8.34-13.98c0.96-2.13,1.83-4.22,2.62-6.29s1.18-4.35,1.15-6.85c-0.04-1-0.38-1.53-1.04-1.6
					c-0.66-0.06-1.42,0.09-2.3,0.47c-0.88,0.38-1.8,0.88-2.77,1.5c-0.97,0.63-1.68,1.19-2.15,1.69c-3.75,3.63-6.95,7.54-9.62,11.73
					c-2.64,4.2-4.81,8.67-6.52,13.42c-1.17,3.26-2.26,6.51-3.27,9.76c-1,3.26-1.79,6.63-2.38,10.14c1.28-1.25,2.58-2.47,3.89-3.66
					C375.56,507.17,376.83,505.89,378.07,504.51z"/>
				<path class="st2" d="M422,566.08c-2.41,0.12-4.94-0.28-7.6-1.22c-2.66-0.94-5.09-2.47-7.29-4.6c-2.52-2.25-4.32-4.69-5.39-7.32
					s-1.71-5.13-1.94-7.51c-0.73-5.38-0.29-10.35,1.33-14.92c1.64-4.57,3.42-8.98,5.32-13.24c0.89-2.13,1.84-4.22,2.84-6.29
					c1.01-2.06,2.16-4.04,3.47-5.91c0.55-0.88,1.13-1.75,1.75-2.63s1.58-1.38,2.89-1.5c2.31,0,4.52,0.82,6.61,2.44
					c2.09,1.63,3.66,3.32,4.72,5.07c0.45,1,0.63,1.78,0.55,2.35c-0.09,0.56-0.3,1.22-0.63,1.97c-2.47,4.38-4.81,8.7-7.01,12.95
					c-2.18,4.26-3.96,8.76-5.33,13.52c-0.99,3.26-1.45,6.07-1.39,8.45c0.07,2.38,0.54,4.07,1.4,5.07c0.87,1,2.07,1.13,3.62,0.38
					s3.33-2.63,5.36-5.63c1.09-1.63,2.29-3.53,3.6-5.73c1.31-2.19,3.3-5.47,5.97-9.85c0.54-0.87,1.03-1.78,1.47-2.72
					c0.45-0.94,1.16-1.66,2.14-2.16c1.8-0.75,3.9-0.47,6.29,0.85c2.39,1.31,3.85,3.04,4.39,5.16c0.29,1.25,0.18,2.29-0.32,3.1
					c-0.5,0.82-1.02,1.66-1.56,2.53l-3.24,5.63c-1.06,1.75-2.11,3.5-3.16,5.26c-1.05,1.75-2.15,3.5-3.32,5.26
					c-2.26,3.63-4.55,6.38-6.88,8.26C428.33,564.96,425.45,565.96,422,566.08z M433.21,488.18c-2.47,0-4.98-0.84-7.51-2.53
					c-2.54-1.69-4.28-3.6-5.23-5.72c-1-2.25-0.97-4.19,0.11-5.82s2.87-2.44,5.37-2.44c2.36,0,4.83,0.82,7.41,2.44
					c2.58,1.63,4.35,3.57,5.33,5.82c0.92,2.13,0.85,4.04-0.2,5.72C437.44,487.34,435.68,488.18,433.21,488.18z"/>
				<path class="st2" d="M446.58,558.76c-3.96-3.25-6.77-6.85-8.44-10.79c-1.66-3.94-2.52-7.72-2.57-11.36
					c0.07-3.38,0.58-6.54,1.52-9.48c0.96-2.94,2.24-5.69,3.86-8.26c1.62-2.56,3.52-4.91,5.69-7.04c2.18-2.13,4.45-4.07,6.81-5.82
					c1.77-1.25,4.04-2.44,6.83-3.57c2.79-1.13,5.8-1.88,9.05-2.25c3.25-0.38,6.49-0.19,9.73,0.56c3.23,0.75,6.18,2.38,8.83,4.88
					c2.41,2.25,3.71,4.63,3.92,7.13c0.21,2.51,0.07,4.82-0.4,6.95c-1.16,4.38-3.29,8.29-6.4,11.73c-3.09,3.44-6.75,6.1-10.99,7.98
					c-3.25,1.38-6.78,2.25-10.59,2.63c-3.8,0.38-7.86-0.12-12.17-1.5c-0.18,1.38-0.22,2.72-0.09,4.04c0.12,1.31,0.53,2.6,1.22,3.85
					s1.66,2.41,2.92,3.47c1.26,1.07,2.94,1.91,5.06,2.53c3.77,1.13,7.49,0.94,11.16-0.56c3.68-1.5,7.1-3.57,10.26-6.19
					c3.17-2.63,5.97-5.41,8.39-8.35c2.43-2.94,4.29-5.28,5.57-7.04c0.57-0.87,1.15-1.84,1.71-2.91c0.57-1.06,1.35-1.84,2.35-2.35
					c1.05-0.38,2.16-0.44,3.33-0.19c1.17,0.25,2.31,0.75,3.41,1.5s2.01,1.59,2.72,2.53s1.04,1.85,0.99,2.72
					c0.05,1.13-0.28,2.22-0.98,3.28c-0.7,1.06-1.34,2.03-1.91,2.91c-3.2,4.51-5.72,7.79-7.57,9.86c-1.85,2.06-3.57,3.85-5.17,5.35
					c-2.33,2.25-5.31,4.41-8.95,6.48c-3.62,2.07-7.56,3.5-11.82,4.32c-4.26,0.81-8.73,0.78-13.41-0.09
					C455.77,564.83,451.15,562.52,446.58,558.76z M459.82,530.98c4.61-0.75,8.39-2.5,11.37-5.26c2.99-2.75,5.24-5.69,6.75-8.82
					c0.61-1.13,0.89-2.31,0.84-3.57c-0.05-1.25-0.49-2.06-1.32-2.44c-3.15,0.88-5.93,2.13-8.35,3.76c-2.41,1.63-4.6,3.44-6.56,5.44
					c-3.43,3.26-6.07,6.88-7.93,10.89C456.33,531.23,458.06,531.23,459.82,530.98z"/>
				<path class="st2" d="M636.38,508.08c-2.83,4.01-6.45,7.32-10.88,9.95c-4.41,2.63-9.33,4.44-14.77,5.44
					c3.58,4.01,5.45,8.1,5.61,12.3c0.17,4.19-0.51,7.98-2.03,11.36c-1.38,3-3.3,5.73-5.76,8.16c-2.45,2.44-5.29,4.48-8.52,6.1
					c-3.22,1.63-6.71,2.85-10.46,3.66s-7.61,1.1-11.6,0.85c-3.34-0.25-6.84-1-10.48-2.25c-3.66-1.25-6.78-3.44-9.38-6.57
					c-1.44-1.75-2.44-3.57-3.01-5.44c-0.57-1.88-0.91-3.75-1.01-5.63c-0.1-1.88,0.03-3.66,0.39-5.35c0.37-1.69,0.74-3.28,1.12-4.79
					c-1.87-0.38-3.7-0.94-5.51-1.69s-3.48-1.75-5.02-3c-1.72-1.38-3.19-2.97-4.4-4.79c-1.22-1.81-2.12-3.66-2.69-5.54
					c-1.24-4-1.6-7.91-1.07-11.73c0.54-3.82,1.36-7.35,2.47-10.61c1.88-5.63,4.5-11.04,7.85-16.24c3.38-5.19,7.49-9.82,12.31-13.89
					c4.86-4.06,10.46-7.38,16.8-9.95c6.36-2.56,13.45-3.97,21.23-4.22c3.33-0.12,6.8,0.06,10.39,0.56c3.6,0.5,7.17,1.38,10.71,2.63
					c3.54,1.25,6.84,2.91,9.91,4.97c3.06,2.07,5.81,4.6,8.23,7.6c2.46,3.13,4.06,6.32,4.82,9.57s1.05,6.45,0.88,9.57
					c-0.13,3.26-0.68,6.45-1.65,9.57C639.91,501.82,638.41,504.95,636.38,508.08z M551.79,517.84c0,0.38,0.05,0.97,0.15,1.78
					c0.1,0.82,0.23,1.63,0.39,2.44c0.16,0.82,0.33,1.53,0.49,2.16c0.16,0.63,0.4,1,0.71,1.13c0.81,0.38,1.78,0.66,2.92,0.84
					c1.14,0.19,1.99,0.16,2.57-0.09c4.67-10.14,9.45-19.4,14.34-27.78c4.98-8.38,9.92-16.83,14.83-25.34c0.64-1,1.21-2,1.72-3
					c0.5-1,1.17-1.94,2-2.82c-2.82,0.75-5.46,1.72-7.91,2.91c-2.45,1.19-4.81,2.53-7.08,4.04c-3.86,2.51-7.2,5.44-10.03,8.82
					c-2.81,3.38-5.34,6.95-7.57,10.7c-2.12,3.63-3.92,7.45-5.4,11.45C552.47,509.08,551.75,513.34,551.79,517.84z M600.21,512.96
					c3.44-0.62,6.72-1.53,9.85-2.72s6.22-3.16,9.28-5.91c2.74-2.5,4.8-5.6,6.18-9.29c1.39-3.69,2.16-7.54,2.31-11.54
					c0.04-2.13-0.31-4.38-1.03-6.76c-0.73-2.38-2.14-4.51-4.24-6.38c-1.75-1.63-3.79-2.82-6.11-3.57s-4.64-1.25-6.95-1.5
					c-2.59-0.25-4.94-0.28-7.04-0.09s-4.14,0.47-6.11,0.84c2.03,0.25,3.99,0.94,5.89,2.07c1.89,1.13,3.11,2.57,3.67,4.32
					c0.32,1,0.33,1.78,0.02,2.35c-0.31,0.56-0.7,1.16-1.19,1.78c-0.37,1-0.84,1.91-1.41,2.72c-0.56,0.82-1.12,1.66-1.67,2.53
					l-12.05,19.52c-3.35,5.76-6.63,11.52-9.82,17.27c-3.16,5.76-5.87,11.83-8.12,18.21c-0.57,1.38-1.08,2.81-1.54,4.32
					c-0.45,1.5-0.78,3.07-0.99,4.69c-0.13,0.38-0.26,1-0.41,1.88c-0.15,0.88-0.19,1.85-0.13,2.91s0.23,2,0.53,2.82
					c0.3,0.82,0.86,1.28,1.69,1.41c3.85,0.5,7.53,0.25,11.04-0.75c3.52-1,6.57-2.31,9.16-3.94c2.51-1.5,4.72-3.41,6.63-5.73
					c1.92-2.31,3.26-4.91,4.02-7.79c0.29-1.5,0.37-3.16,0.23-4.97s-0.95-3.53-2.43-5.16c-1.13-1.37-2.53-2.35-4.19-2.91
					c-1.67-0.56-3.11-1.47-4.34-2.72c-1.23-1.25-1.94-2.53-2.12-3.85c-0.18-1.31,0.37-2.28,1.64-2.91c0.59-0.25,1.24-0.4,1.97-0.47
					c0.72-0.06,1.49-0.09,2.3-0.09c1.04-0.12,1.99-0.19,2.87-0.19C598.48,513.34,599.35,513.21,600.21,512.96z"/>
				<path class="st2" d="M684.01,544.68c-2.66,4.13-5.24,7.57-7.73,10.32c-2.48,2.75-5.16,5.01-8.04,6.76
					c-3.23,1.88-7.04,3.25-11.46,4.13c-4.41,0.87-8.83,0.25-13.27-1.88c-3.12-1.63-5.46-3.6-7.05-5.91
					c-1.58-2.31-2.72-4.75-3.4-7.32c-0.68-2.56-0.97-5.13-0.86-7.7c0.12-2.56,0.39-4.85,0.82-6.85c1.61-6.76,4.22-13.01,7.83-18.77
					c3.65-5.75,8.46-10.26,14.42-13.52c3.32-2.13,7.32-3.47,12-4.04c4.68-0.56,9.25,0.09,13.72,1.97c2.99,1.5,5.28,3.44,6.88,5.82
					c1.59,2.38,2.63,4.85,3.12,7.42s0.61,5.13,0.36,7.7c-0.24,2.57-0.64,4.79-1.2,6.66l-1.61,5.07c5.28-0.12,9.37-1.75,12.27-4.88
					c0.8-1,1.69-1.81,2.66-2.44s2.31-0.75,4.01-0.38c1.57,0.38,2.91,1.16,4.01,2.35c1.11,1.19,1.7,2.47,1.79,3.85
					c0.12,1.5-0.38,2.79-1.5,3.85s-2.16,2.03-3.12,2.91c-3.35,2.88-7.17,4.66-11.47,5.35C692.91,545.84,688.51,545.69,684.01,544.68
					z M646.84,549.38c-0.02,2.5,0.38,4.13,1.2,4.88s1.82,1.03,3.01,0.84s2.44-0.72,3.74-1.59c1.31-0.88,2.44-1.69,3.4-2.44
					c2.43-2,4.55-4.16,6.38-6.48c1.83-2.31,3.51-4.72,5.04-7.23c-2.88-2.13-5.27-4.54-7.19-7.23s-3.44-5.47-4.55-8.35
					c-2.97,4.01-5.59,8.35-7.84,13.05C647.81,539.52,646.75,544.37,646.84,549.38z M667.99,512.77c-0.06,0.75,0.02,1.72,0.22,2.91
					c0.2,1.19,0.51,2.51,0.92,3.94c0.41,1.44,1.03,2.91,1.86,4.41c0.83,1.5,1.82,2.88,2.98,4.13c1.13-2.13,1.86-4.16,2.19-6.1
					s0.52-3.78,0.56-5.54c-0.05-1.62-0.33-2.88-0.85-3.75c-0.52-0.87-1.2-1.41-2.07-1.6c-0.86-0.19-1.83-0.12-2.89,0.19
					C669.87,511.68,668.89,512.15,667.99,512.77z"/>
				<path class="st2" d="M771.56,509.39c0.11,0.5,0.07,0.97-0.11,1.41s-0.57,0.97-1.18,1.6s-1.34,1.47-2.19,2.53
					c-0.85,1.06-1.9,2.41-3.16,4.04c-5.03,6.38-9.37,12.58-13.05,18.58c-3.64,6.01-7.04,11.95-10.23,17.83
					c-4.9,9.39-9.3,18.27-13.24,26.66c-3.87,8.38-7.03,16.96-9.52,25.72c-0.36,1-0.68,2.03-0.97,3.1c-0.28,1.06-0.54,2.09-0.77,3.1
					c-0.26,0.87-0.48,1.69-0.66,2.44c-0.17,0.75-0.64,1.31-1.42,1.69c-1.58,0.62-3.32,0.66-5.23,0.09c-1.91-0.56-3.57-1.59-5-3.1
					c-1.58-1.63-2.14-3.38-1.66-5.26c0.22-1,0.43-1.97,0.61-2.91s0.45-1.91,0.8-2.91c0.55-2.13,1.13-4.29,1.73-6.48
					c0.61-2.19,1.26-4.35,1.96-6.48c3.02-8.76,6.56-17.52,10.63-26.28c-0.95,0.38-1.87,0.69-2.78,0.94
					c-0.91,0.25-1.89,0.38-2.92,0.38c-2.47,0-4.93-0.44-7.38-1.31c-2.45-0.88-4.53-2.32-6.25-4.32c-2.12-2.5-3.38-5.1-3.79-7.79
					s-0.4-5.22,0-7.6c0.44-3.25,1.49-6.73,3.15-10.42c1.68-3.69,3.65-7.32,5.93-10.89c2.29-3.57,4.67-6.97,7.14-10.23
					c2.48-3.25,4.72-6.07,6.71-8.45c0.76-0.75,1.54-1.6,2.33-2.53c0.79-0.94,1.85-1.47,3.18-1.6c2.31,0,4.37,0.78,6.18,2.35
					c1.8,1.57,2.91,3.22,3.33,4.98c0.55,1.75,0.36,3.19-0.59,4.32c-3.18,4.13-5.8,7.6-7.86,10.42c-2.05,2.82-3.76,5.2-5.14,7.13
					c-1.38,1.94-2.51,3.63-3.41,5.07c-0.9,1.44-1.71,2.79-2.45,4.04c-0.47,0.75-1.12,1.94-1.96,3.57c-0.83,1.63-1.52,3.28-2.07,4.98
					c-0.54,1.69-0.89,3.26-1.04,4.69c-0.15,1.44,0.21,2.29,1.06,2.53c0.46,0.25,1.07,0.22,1.84-0.09s1.54-0.75,2.31-1.31
					s1.57-1.16,2.39-1.78c0.82-0.62,1.5-1.19,2.03-1.69c4.01-3.38,7.68-7.04,11-10.98c3.34-3.94,6.54-7.94,9.57-12.01
					c3.05-4.07,6.05-8.17,9.01-12.3c2.97-4.13,6.21-8.07,9.72-11.83c0.54-0.62,1.18-1.13,1.91-1.5c0.73-0.38,1.67-0.44,2.82-0.19
					c2.15,0.5,4.02,1.47,5.62,2.91C770.12,505.67,771.13,507.39,771.56,509.39z"/>
			</g>
		</g>
		<text transform="matrix(0.9264 0 0 1 515.9238 625.8584)" class="st2 st4 st5 st6">L</text>
		<g class="st7">
			<path class="st2" d="M592.08,621.39l-1.75-4.95h-14.86l-1.75,5.06c-0.68,1.97-1.26,3.31-1.75,4s-1.27,1.04-2.37,1.04
				c-0.93,0-1.75-0.37-2.47-1.1c-0.71-0.74-1.07-1.57-1.07-2.5c0-0.54,0.08-1.09,0.25-1.67s0.44-1.37,0.82-2.39l9.35-25.62
				c0.27-0.74,0.59-1.62,0.96-2.65c0.37-1.03,0.77-1.89,1.2-2.57c0.42-0.68,0.98-1.23,1.67-1.65s1.54-0.63,2.56-0.63
				c1.03,0,1.89,0.21,2.58,0.63c0.69,0.42,1.25,0.96,1.67,1.63c0.42,0.66,0.78,1.38,1.07,2.14c0.29,0.76,0.66,1.78,1.11,3.05
				l9.55,25.46c0.75,1.94,1.12,3.35,1.12,4.23c0,0.92-0.35,1.75-1.06,2.52c-0.71,0.76-1.56,1.14-2.56,1.14
				c-0.58,0-1.08-0.11-1.5-0.34c-0.42-0.22-0.77-0.53-1.05-0.92c-0.28-0.38-0.59-0.98-0.91-1.78
				C592.6,622.71,592.32,622,592.08,621.39z M577.42,610.44h10.92l-5.51-16.28L577.42,610.44z"/>
			<path class="st2" d="M629,625.86h-11.17c-1.61,0-2.76-0.39-3.45-1.17c-0.69-0.78-1.03-2.02-1.03-3.73V591.3
				c0-1.74,0.35-2.99,1.06-3.75c0.71-0.76,1.85-1.14,3.43-1.14h11.84c1.75,0,3.26,0.12,4.54,0.35c1.28,0.23,2.43,0.68,3.44,1.35
				c0.86,0.56,1.63,1.26,2.29,2.11c0.67,0.85,1.17,1.79,1.52,2.83c0.35,1.03,0.52,2.12,0.52,3.27c0,3.95-1.83,6.84-5.49,8.67
				c4.8,1.65,7.21,4.86,7.21,9.63c0,2.21-0.52,4.19-1.57,5.96c-1.05,1.77-2.46,3.07-4.24,3.92c-1.11,0.5-2.39,0.86-3.84,1.06
				C632.61,625.76,630.92,625.86,629,625.86z M620.74,592.41v10.2h6.78c1.84,0,3.27-0.19,4.28-0.57s1.77-1.09,2.31-2.15
				c0.42-0.75,0.62-1.6,0.62-2.53c0-1.99-0.66-3.31-1.97-3.97c-1.31-0.66-3.32-0.98-6.01-0.98H620.74z M628.45,608.34h-7.7v11.52
				h7.95c5,0,7.5-1.95,7.5-5.84c0-1.99-0.65-3.44-1.94-4.33C632.96,608.79,631.02,608.34,628.45,608.34z"/>
			<path class="st2" d="M685.85,614.02c0,2.39-0.57,4.53-1.71,6.43s-2.8,3.39-5,4.47c-2.19,1.08-4.8,1.62-7.8,1.62
				c-3.61,0-6.58-0.74-8.93-2.21c-1.66-1.06-3.01-2.47-4.05-4.24c-1.04-1.77-1.56-3.49-1.56-5.15c0-0.97,0.31-1.8,0.93-2.49
				c0.62-0.69,1.42-1.04,2.38-1.04c0.78,0,1.44,0.27,1.98,0.81c0.54,0.54,1,1.34,1.38,2.4c0.46,1.26,0.97,2.31,1.51,3.15
				s1.3,1.54,2.28,2.09s2.27,0.82,3.87,0.82c2.19,0,3.98-0.55,5.35-1.66s2.06-2.48,2.06-4.13c0-1.31-0.37-2.37-1.11-3.19
				c-0.74-0.82-1.7-1.44-2.87-1.87c-1.17-0.43-2.74-0.89-4.7-1.37c-2.63-0.66-4.82-1.44-6.6-2.33c-1.77-0.89-3.17-2.1-4.21-3.63
				c-1.04-1.53-1.56-3.44-1.56-5.72c0-2.17,0.55-4.1,1.65-5.79c1.1-1.69,2.68-2.98,4.76-3.89c2.08-0.91,4.52-1.36,7.33-1.36
				c2.24,0,4.18,0.3,5.82,0.9c1.64,0.6,3,1.4,4.08,2.39c1.08,1,1.87,2.04,2.37,3.14s0.75,2.16,0.75,3.2c0,0.95-0.31,1.81-0.93,2.57
				c-0.62,0.76-1.4,1.14-2.33,1.14c-0.85,0-1.49-0.23-1.93-0.69c-0.44-0.46-0.92-1.21-1.43-2.25c-0.67-1.49-1.46-2.65-2.39-3.49
				c-0.93-0.83-2.43-1.25-4.49-1.25c-1.91,0-3.45,0.45-4.62,1.36c-1.17,0.91-1.76,2-1.76,3.27c0,0.79,0.2,1.47,0.6,2.04
				s0.95,1.07,1.65,1.48c0.7,0.41,1.4,0.74,2.12,0.97c0.71,0.23,1.9,0.57,3.54,1.02c2.06,0.52,3.93,1.09,5.6,1.72
				c1.67,0.63,3.09,1.39,4.26,2.29c1.17,0.9,2.09,2.03,2.74,3.4C685.53,610.34,685.85,612.03,685.85,614.02z"/>
		</g>
	</g>
</g>
</svg>
