<?xml version="1.0" encoding="utf-8"?>
<!-- Generator: Adobe Illustrator 25.1.0, SVG Export Plug-In . SVG Version: 6.00 Build 0)  -->
<svg version="1.1" id="Layer_1" xmlns="http://www.w3.org/2000/svg" xmlns:xlink="http://www.w3.org/1999/xlink" x="0px" y="0px"
	 viewBox="0 0 900 900" style="enable-background:new 0 0 900 900;" xml:space="preserve">
<style type="text/css">
	.st0{fill:#E3A55C;}
</style>
<g>
	<path class="st0" d="M217,621.2l11.9-5.7h0.6v15.3c0,2.9,2.5,5.4,7.6,7.5c3.5,1.4,7.4,2.1,11.6,2.1c4.2,0,8-0.7,11.6-2.1
		c5.1-2,7.6-4.5,7.6-7.5v-18.6c0-3-2.5-5.5-7.6-7.5c-3.5-1.4-7.4-2.1-11.6-2.1c-5.3,0-10.1-0.8-14.3-2.5
		c-7.8-3.1-11.7-7.5-11.7-13.2v-18.4c0-5.7,3.9-10.1,11.7-13.2c4.2-1.7,9-2.5,14.3-2.5c5.3,0,10.1,0.8,14.3,2.5
		c7.8,3.2,11.7,7.5,11.7,13.2v8.2l-11.9,5.7h-0.6v-11.7c0-2.1-1.3-3.7-3.9-4.8c-2.6-1.1-5.8-1.6-9.6-1.6s-7,0.5-9.6,1.6
		c-2.6,1.1-3.9,2.7-3.9,4.8v14c0,2.1,1.3,3.7,3.9,4.8c2.6,1.1,5.8,1.6,9.6,1.6c6.3,0,12.1,1.1,17.5,3.4c9.5,4,14.3,9.9,14.3,17.7
		v18.6c0,7.7-4.8,13.6-14.3,17.7c-5.3,2.3-11.1,3.4-17.5,3.4c-6.3,0-12.1-1.1-17.5-3.4c-9.5-4-14.3-9.9-14.3-17.7V621.2z"/>
	<path class="st0" d="M346.6,622.3v13.9c0,5.6-3.9,10-11.7,13.2c-4.2,1.7-9,2.5-14.3,2.5c-5.3,0-10.1-0.8-14.3-2.5
		c-7.8-3.1-11.7-7.5-11.7-13.2v-41.5c0-5.6,3.9-10,11.7-13.2c4.2-1.7,9-2.5,14.3-2.5c5.3,0,10.1,0.8,14.3,2.5
		c7.8,3.1,11.7,7.5,11.7,13.2v8.2l-11.9,5.7H334v-11.7c0-2.1-1.3-3.7-3.9-4.8c-2.6-1.1-5.8-1.6-9.6-1.6c-3.8,0-7,0.5-9.6,1.6
		c-2.6,1.1-3.9,2.7-3.9,4.8v37c0,2.1,1.3,3.7,3.9,4.8c2.6,1.1,5.8,1.6,9.6,1.6c3.8,0,7-0.5,9.6-1.6c2.6-1.1,3.9-2.7,3.9-4.8V628
		l11.9-5.7H346.6z"/>
	<path class="st0" d="M360,636.2v-41.5c0-5.6,3.9-10,11.7-13.2c4.2-1.7,9-2.5,14.3-2.5c5.3,0,10.1,0.8,14.3,2.5
		c7.8,3.1,11.7,7.5,11.7,13.2v41.5c0,5.6-3.9,10-11.7,13.2c-4.2,1.7-9,2.5-14.3,2.5c-5.3,0-10.1-0.8-14.3-2.5
		C363.9,646.2,360,641.8,360,636.2z M372.6,634c0,2.1,1.3,3.7,3.9,4.8c2.6,1.1,5.8,1.6,9.6,1.6c3.8,0,7-0.5,9.6-1.6
		c2.6-1.1,3.9-2.7,3.9-4.8v-37c0-2.1-1.3-3.7-3.9-4.8c-2.6-1.1-5.8-1.6-9.6-1.6c-3.8,0-7,0.5-9.6,1.6c-2.6,1.1-3.9,2.7-3.9,4.8V634z
		"/>
	<path class="st0" d="M425.6,653.1v-58.4c0-5.7,3.9-10.1,11.7-13.2c4.2-1.7,9-2.5,14.3-2.5h8.5v0.6l-5,10.9h-3.5
		c-3.8,0-7,0.5-9.6,1.6c-2.6,1.1-3.9,2.7-3.9,4.8v50.4l-11.9,5.7H425.6z"/>
	<path class="st0" d="M520.6,594.7v41.5c0,5.7-3.9,10.1-11.7,13.2c-4.2,1.7-9,2.5-14.3,2.5c-5,0-9.5-0.7-13.5-2.2V671l-11.9,8.3
		h-0.6v-84.6c0-5.7,3.9-10.1,11.7-13.2c4.2-1.7,9-2.5,14.3-2.5c5.3,0,10.1,0.8,14.3,2.5C516.7,584.7,520.6,589.1,520.6,594.7z
		 M508.1,596.9c0-2.1-1.3-3.7-3.9-4.8c-2.6-1.1-5.8-1.6-9.6-1.6c-3.8,0-7,0.5-9.6,1.6c-2.6,1.1-3.9,2.7-3.9,4.8v37
		c0,2.1,1.3,3.7,3.9,4.8c2.6,1.1,5.8,1.6,9.6,1.6c3.8,0,7-0.5,9.6-1.6c2.6-1.1,3.9-2.7,3.9-4.8V596.9z"/>
	<path class="st0" d="M538.2,566.2c-1.5-1.5-2.2-3.4-2.2-5.5c0-2.1,0.7-4,2.2-5.5c1.5-1.5,3.2-2.3,5.3-2.3c2.1,0,3.9,0.8,5.3,2.3
		c1.5,1.5,2.2,3.4,2.2,5.5c0,2.1-0.7,4-2.2,5.5c-1.5,1.5-3.2,2.3-5.3,2.3C541.4,568.5,539.6,567.8,538.2,566.2z M537.2,653.1v-69.6
		l11.9-5.7h0.6v69.6l-11.9,5.7H537.2z"/>
	<path class="st0" d="M566.4,636.2v-41.5c0-5.6,3.9-10,11.7-13.2c4.2-1.7,9-2.5,14.3-2.5c5.3,0,10.1,0.8,14.3,2.5
		c7.8,3.1,11.7,7.5,11.7,13.2v41.5c0,5.6-3.9,10-11.7,13.2c-4.2,1.7-9,2.5-14.3,2.5c-5.3,0-10.1-0.8-14.3-2.5
		C570.3,646.2,566.4,641.8,566.4,636.2z M578.9,634c0,2.1,1.3,3.7,3.9,4.8c2.6,1.1,5.8,1.6,9.6,1.6c3.8,0,7-0.5,9.6-1.6
		c2.6-1.1,3.9-2.7,3.9-4.8v-37c0-2.1-1.3-3.7-3.9-4.8c-2.6-1.1-5.8-1.6-9.6-1.6c-3.8,0-7,0.5-9.6,1.6c-2.6,1.1-3.9,2.7-3.9,4.8V634z
		"/>
	<path class="st0" d="M631.9,653.1v-58.4c0-5.7,3.9-10.1,11.7-13.2c4.2-1.7,9-2.5,14.3-2.5c5.3,0,10.1,0.8,14.3,2.5
		c7.8,3.1,11.7,7.4,11.7,13.2v52.7l-11.9,5.7h-0.6v-56.2c0-2.1-1.3-3.7-3.9-4.8c-2.6-1.1-5.8-1.6-9.6-1.6c-3.8,0-7,0.5-9.6,1.6
		c-2.6,1.1-3.9,2.7-3.9,4.8v50.4l-11.9,5.7H631.9z"/>
</g>
<g>
	<path class="st0" d="M223.2,686c2.1-0.5,4.6-0.7,7.4-0.7c5,0,8.6,0.9,11.3,2.6c3.7,2.3,6.5,6.8,6.5,14.1c0,8-2.7,12.3-5.8,14.7
		c-3.1,2.6-7.7,3.7-13.3,3.7c-2.2,0-4.5-0.1-6.1-0.3V686z M228.7,717c0.8,0.1,1.6,0.1,2.1,0.1c6.1,0,11.9-3.2,11.9-15
		c0-8.8-3.7-13.6-11.4-13.6c-0.9,0-1.8,0.1-2.6,0.2V717z"/>
	<path class="st0" d="M290.3,685.4v34.8h-5.5v-34.8H290.3z"/>
	<path class="st0" d="M327.9,715.7c1.6,0.8,4.5,1.4,6.9,1.4c5,0,8-2.4,8-5.9c0-3.2-2.6-5.2-6.4-7.2c-3.8-1.9-9.1-5.2-9.1-9.7
		c0-5.3,5.1-9.1,12.7-9.1c3,0,5.6,0.7,6.7,1.3l-1.3,3.4c-1.2-0.6-3.2-1.2-5.7-1.2c-4.7,0-6.9,2.6-6.9,5c0,3.4,2.5,4.8,7.1,7.2
		c5.8,3,8.4,6.2,8.4,10c0,6-5.8,9.8-13.5,9.8c-3.3,0-6.7-0.8-8.1-1.5L327.9,715.7z"/>
	<path class="st0" d="M405.6,719.7c-1.5,0.6-3.9,0.9-6.9,0.9c-9.4,0-16.1-5.5-16.1-17.3c0-13.7,9.4-18.1,17-18.1c2.9,0,5,0.4,6,0.9
		l-1.2,3.4c-1.2-0.4-2.3-0.7-4.8-0.7c-5.1,0-11.2,3.6-11.2,14.2c0,10.7,5.4,14.2,11.3,14.2c2.1,0,3.9-0.4,5-0.7L405.6,719.7z"/>
	<path class="st0" d="M505.9,719.4c-2,0.6-5.5,1.2-8.5,1.2c-4.2,0-8.2-0.8-11.4-3.4c-3.5-2.7-5.8-7.5-5.8-13.9
		c0.1-13.6,9.7-18.2,18.1-18.2c3,0,5.4,0.4,6.9,1l-1.2,3.4c-1.3-0.5-3-0.8-5.5-0.8c-6,0-12.5,3.5-12.5,14.3
		c0,10.7,5.6,14.2,11.5,14.2c1.8,0,2.9-0.2,3.4-0.4v-11.4h-6.2v-3.3h11.4V719.4z"/>
	<path class="st0" d="M568.5,702.6c0,13-6.2,18.1-13.9,18.1c-8,0-13.3-6.2-13.3-17.9c0-11.6,5.7-17.8,14.1-17.8
		C563.6,685,568.5,691.5,568.5,702.6z M546.9,702.9c0,7.2,1.9,14.3,8,14.3c6.2,0,7.8-7.6,7.8-14.4c0-6.5-1.6-14.2-7.9-14.2
		C548.9,688.5,546.9,695.8,546.9,702.9z"/>
	<path class="st0" d="M605,685.4h5.5v31.4H624v3.4h-19V685.4z"/>
	<path class="st0" d="M659.5,685.4h18.3v3.5H665v12.2h12v3.4h-12v15.8h-5.5V685.4z"/>
</g>
<path class="st0" d="M450.5,541.5c-19.4,0-54.7-21.9-85.8-51.8c-36.6-35.2-53.3-73.6-53.3-105.1V204c0-20.8,2.9-23.7,23.7-23.7
	h230.9c20.8,0,23.7,2.9,23.7,23.7v180.5c0,31.6-16.7,69.9-53.3,105.1C505.2,519.6,469.9,541.5,450.5,541.5 M324.9,193.9
	c-0.4,1.8-0.4,6-0.4,10.1v180.5c0,65.3,95.1,143.8,125.9,143.8c30.9,0,125.9-78.5,125.9-143.8V204c0-4.1,0-8.4-0.4-10.1
	c-1.8-0.4-6-0.4-10.1-0.4H335.1C330.9,193.5,326.7,193.5,324.9,193.9"/>
<g>
	<path class="st0" d="M419.3,481.5c-0.1-3.9,4.4,0.5,9.2-0.4c4.9-0.9,7.7-6,9.9-1.9c2.2,4,0.5,9.1-3.3,10.6
		C421.8,494.8,419.4,485.3,419.3,481.5z"/>
	<path class="st0" d="M461.1,424.2c2.4-6.5-6.5,2-14.2,1.3c-9.5-0.9-10-12.7-12.4-6.2c-2.4,6.5-4.4,20.5,2.3,23.9
		C450.8,450.4,461.1,424.2,461.1,424.2z"/>
	<path class="st0" d="M451.2,448.1c4.4-5.3-11.4,4-16.1,0.1c-4.7-3.9-2.9-14.8-7.3-9.4c-4.4,5.3-6.4,16.7-2.7,21.6
		C431.3,468.4,451.2,448.1,451.2,448.1z"/>
	<path class="st0" d="M420.1,459.5c4.2-0.6-1.6,5.8,7.2,6.6c6.1,0.5,11.4-5.1,11.9,0.4c0.3,3.5-4.9,10.6-11,11.4
		C417.4,479,415.9,460,420.1,459.5z"/>
	<path class="st0" d="M429.4,495.7c-2.1-3.3,5.9-2.5,8.8-4.4c3-1.9,4-5,6.1-1.7c2.1,3.3,4.2,7.7,0,10.3
		C436.6,504.9,429.4,495.7,429.4,495.7z"/>
	<path class="st0" d="M443.9,504.4c-3.4-1.9,2.4-1.8,3.9-4.4c1.4-2.6,1-5.6,4.4-3.7c3.4,1.9,8.9,7.3,5.4,8.3
		C454.5,505.5,447.4,506.3,443.9,504.4"/>
	<path class="st0" d="M471.2,365.3c1.6-3.9,1.9-8.1,0.7-12.1c-2.7-9.6-5.3-25.9-4.8-33.9c0.3-4.7-8.7-15.6-8.5-20.7
		c0.2-5.8-17.1-5.8-16.6,0c0.5,5.1-8.8,16-8.5,20.7c0.5,8-2.1,24.5-4.8,34c-1.1,4-0.9,8.1,0.7,12l11.7,28.2c3.4,8.2,15,8.2,18.4,0
		L471.2,365.3z"/>
	<g>
		<path class="st0" d="M473.9,338.5c-1.2,0.2-0.6-2.3-1-3.3c0.6,1.7-1.5-11.3-1.5-11.3c0.1-0.8,0.3-1.6,1.3-1.6
			c5.4-0.3,6.1,10.9,28.6,5c4.5-1.2,6.6,15.5,1.6,14.3C484.5,337.2,473.9,338.5,473.9,338.5z"/>
		<path class="st0" d="M513.3,338.7c-6.1-3.4-6.7-14.8-0.3-13.7c8.8,4.4,31.7-11.1,43.8-17.4c1.5-0.8,2.6,1.2,1.3,2.3
			C546.2,320,517.5,341.1,513.3,338.7"/>
		<path class="st0" d="M477.6,361.1c0.4,1.7-0.9-9.7-0.9-9.8c0.1-0.7,0.5-1.7,1.1-1.3c6.7,4.3,19.3,2.3,23.6,6.7
			c2.9,2.9,0.8,1.8,5,5.5C510.8,368.1,477.9,362.1,477.6,361.1z"/>
		<path class="st0" d="M470.5,383c3,2.8,26,10,28.2,7.4c-0.1-3.7-1.4-6-2.1-9.5c-2.7-2.9-12.6-1.7-20.3-6.9
			c-0.7-0.4-1.2-0.3-1.8,0.2c-0.1,0.1-4.1,8.5-3.1,6.8C470.9,381.9,469.8,382.3,470.5,383"/>
		<path class="st0" d="M512.7,363.1c-5.6-1.8-9.7-9.5-3.9-9.6c8.7,2.4,29.7-6.2,38.8-13.1c1.1-0.8,2.5,0.6,1.6,1.7
			C541,352.1,516.8,364.4,512.7,363.1"/>
		<path class="st0" d="M505.8,389.6c-5.7-3.6-7.3-12.3-1.4-10.8c8.2,4.7,20.9-4.1,32.1-8.5c1.4-0.5,2.4,1.3,1.2,2.1
			C526.6,380.4,509.7,392.1,505.8,389.6"/>
		<path class="st0" d="M515,308.7c-5.8-7.5-5.6-13.3-1.2-14c19.5-2.8,15.6-9.5,24.6-18.2c5.5-5.3,4.7,3.3,15.5,2.7
			C559,278.9,520.8,316.2,515,308.7z"/>
		<path class="st0" d="M473.7,311.8c-6,1-11-12.1-10.1-14.2c1.3-2.9,29.8,7.4,38.3,2.9c4.8-2.6,6.8,6.3,9.6,9.7
			c2.6,3.1-6.5,1.5-8.6,2.1C502.9,312.2,485,313.5,473.7,311.8z"/>
		<path class="st0" d="M478.2,228.8c-13.1,0-16.8-5.1-14.7-5.8c18.1-6,61.5-20.2,87.7,27.6c3.7,6.7,9.3,4.9,8.8,11.3
			c-1.9,25.8-16.6,9.7-19.6,9.9c-0.7,0.1-10.6-8.7-11.3-8.5c-29,7.9-35-12.2-39.1-26.9c-0.6-2.3,7.3,4.2,8.7,6.1
			c4.2,5.7,7.1,3.8,10.4,4.5c1.6,0.3,7.1,3,6.6,1.5C513.5,241,500.1,228.8,478.2,228.8z"/>
	</g>
	<path class="st0" d="M475.4,472.3c0,0,9.5,13.4,5.3,21.8c-4.3,8.4-12.5,11.2-20,5.7c-5.6-4-1-16.6,8.4-16.5
		C479.2,483.3,475.4,472.3,475.4,472.3z"/>
	<g>
		<path class="st0" d="M427.1,338.5c1.2,0.2,0.6-2.3,1-3.3c-0.6,1.7,1.5-11.3,1.5-11.3c-0.1-0.8-0.3-1.6-1.3-1.6
			c-5.4-0.3-6.1,10.9-28.6,5c-4.5-1.2-6.6,15.5-1.6,14.3C416.5,337.2,427.1,338.5,427.1,338.5z"/>
		<path class="st0" d="M387.7,338.7c6.1-3.4,6.7-14.8,0.3-13.7c-8.8,4.4-31.7-11.1-43.8-17.4c-1.5-0.8-2.6,1.2-1.3,2.3
			C354.8,320,383.5,341.1,387.7,338.7"/>
		<path class="st0" d="M423.4,361.1c-0.4,1.7,0.9-9.7,0.9-9.8c-0.1-0.7-0.5-1.7-1.1-1.3c-6.7,4.3-19.3,2.3-23.6,6.7
			c-2.9,2.9-0.8,1.8-5,5.5C390.2,368.1,423.1,362.1,423.4,361.1z"/>
		<path class="st0" d="M430.5,383c-3,2.8-26,10-28.2,7.4c0.1-3.7,1.4-6,2.1-9.5c2.7-2.9,12.6-1.7,20.3-6.9c0.7-0.4,1.2-0.3,1.8,0.2
			c0.1,0.1,4.1,8.5,3.1,6.8C430.1,381.9,431.2,382.3,430.5,383"/>
		<path class="st0" d="M388.3,363.1c5.6-1.8,9.7-9.5,3.9-9.6c-8.7,2.4-29.7-6.2-38.8-13.1c-1.1-0.8-2.5,0.6-1.6,1.7
			C360,352.1,384.2,364.4,388.3,363.1"/>
		<path class="st0" d="M395.2,389.6c5.7-3.6,7.3-12.3,1.4-10.8c-8.2,4.7-20.9-4.1-32.1-8.5c-1.4-0.5-2.4,1.3-1.2,2.1
			C374.4,380.4,391.3,392.1,395.2,389.6"/>
		<path class="st0" d="M386,308.7c5.8-7.5,5.6-13.3,1.2-14c-19.5-2.8-15.6-9.5-24.6-18.2c-5.5-5.3-4.7,3.3-15.5,2.7
			C342,278.9,380.2,316.2,386,308.7z"/>
		<path class="st0" d="M427.3,311.8c6,1,11-12.1,10.1-14.2c-1.3-2.9-29.8,7.4-38.3,2.9c-4.8-2.6-6.8,6.3-9.6,9.7
			c-2.6,3.1,6.5,1.5,8.6,2.1C398.1,312.2,416,313.5,427.3,311.8z"/>
		<path class="st0" d="M422.8,228.8c13.1,0,16.8-5.1,14.7-5.8c-18.1-6-61.5-20.2-87.7,27.6c-3.7,6.7-9.3,4.9-8.8,11.3
			c1.9,25.8,16.6,9.7,19.6,9.9c0.7,0.1,10.6-8.7,11.3-8.5c29,7.9,35-12.2,39.1-26.9c0.6-2.3-7.3,4.2-8.7,6.1
			c-4.2,5.7-7.1,3.8-10.4,4.5c-1.6,0.3-7.1,3-6.6,1.5C387.5,241,400.9,228.8,422.8,228.8z"/>
	</g>
</g>
<path class="st0" d="M459.7,399.8c-1.9,2.8-4,4.1-9.2,4.1c-5.2-0.1-7.3-1.3-9.2-4.1c-1.6-2.3-4.6-2.1-4.5,0.8
	c0.3,8.4,2.6,19.5,13.7,19.5c11.1,0,13.5-11.1,13.7-19.5C464.3,397.7,461.3,397.5,459.7,399.8z"/>
</svg>
