<?xml version="1.0" encoding="utf-8"?>
<!-- Generator: Adobe Illustrator 23.0.4, SVG Export Plug-In . SVG Version: 6.00 Build 0)  -->
<svg version="1.1" id="Layer_1" xmlns="http://www.w3.org/2000/svg" xmlns:xlink="http://www.w3.org/1999/xlink" x="0px" y="0px"
	 viewBox="0 0 900 900" style="enable-background:new 0 0 900 900;" xml:space="preserve">
<style type="text/css">
	.st0{fill-rule:evenodd;clip-rule:evenodd;fill:#FFFFFF;}
	.st1{fill:#FFFFFF;}
</style>
<g>
	<polygon class="st0" points="325.1,225.5 410.1,312.7 394.6,312.6 359.4,349.9 383.1,376 428.1,328.9 428.1,282.9 373,225.7 	"/>
	<polygon class="st0" points="393.2,629.6 428.1,667.2 428.8,341.1 393.1,378.6 393.2,613.5 	"/>
	<polygon class="st0" points="387.6,387.5 317.6,312.4 327.6,312 364.9,274.5 340,249.1 276.6,315.8 339.7,387.4 	"/>
	<path class="st0" d="M128.5,510.9L287.3,366v-19.7l-41.1,0l-32,29.7c-32.8,30.4-78.3,75.4-85.5,82.1L128.5,510.9L128.5,510.9z"/>
	<polygon class="st0" points="129.6,277.6 129.6,296.2 171.4,296.2 188.8,277.2 303.9,276.9 334.7,244 325.2,234.9 172.4,234.9 	"/>
	<polygon class="st0" points="287.7,340.2 247.4,302.9 129.9,302.4 166.4,339.4 	"/>
	<polygon class="st0" points="287.7,340.2 247.4,302.9 129.9,302.4 166.4,339.4 	"/>
	<polygon class="st0" points="368,479.6 350.2,479.6 350.3,582.3 384.2,618.9 385.2,489.1 385.2,443.2 328.7,383.4 279.2,382.7 	"/>
	<polygon class="st0" points="344.1,481 285.9,480.6 325.9,442.2 302.7,417.2 253.6,464 253.8,505.2 284.3,537.2 284,504.2 
		343.9,504.2 	"/>
	<polygon class="st0" points="136.5,712.5 295.2,585.8 295.2,566.1 254.2,566 136.7,659.8 	"/>
	<polygon class="st0" points="153,550.1 274.1,435 276.6,385.3 153.6,495.9 	"/>
	<polygon class="st0" points="152.7,559.9 295.4,559.8 257.3,520.3 194.2,520.2 	"/>
	<polygon class="st0" points="287.7,340.2 255,302.9 129.9,302.4 166.4,339.4 	"/>
	<path class="st0" d="M776,510.9L622.1,366v-19.7l41.1,0l32,29.7c32.8,30.4,73.4,75.4,80.6,82.1L776,510.9L776,510.9z"/>
	<polygon class="st0" points="774.9,277.6 774.9,296.2 733.1,296.2 715.7,277.2 606.9,276.9 573.3,245.1 584.2,234.9 732.2,234.9 	
		"/>
	<polygon class="st0" points="621.7,340.2 656.5,302.9 774.6,302.4 738.2,339.4 	"/>
	<polygon class="st0" points="750.7,707.9 596.9,581.2 596.9,561.5 637.9,561.4 750.5,655.2 	"/>
	<polygon class="st0" points="751.5,548.1 621.2,425.6 621.2,377.5 750.9,497.9 	"/>
	<polygon class="st0" points="596,555.8 595.6,539.7 616,517.3 706.8,515.2 749.4,554.9 	"/>
	<polygon class="st0" points="515.1,633.6 480.2,671.2 479.5,507.9 515.2,541.9 	"/>
	<polygon class="st0" points="436.5,674.6 471.3,712.7 472.1,186.7 436.4,224.1 	"/>
</g>
<path class="st1" d="M434.5,674.6"/>
<path class="st1" d="M525.7,629.6"/>
<path class="st1" d="M392.2,629.6"/>
<polygon class="st0" points="587.6,553.5 498.5,466.2 514.8,466.2 551.7,427.2 526.8,399.9 479.8,449.3 479.8,497.4 537.5,553.3 "/>
<polygon class="st0" points="526.1,391.6 613.5,476.4 593,476.9 555.9,516.1 582.9,543.7 655.3,468.7 575.6,391.8 "/>
<polygon class="st0" points="565.6,225.5 517.2,226.1 478.8,269.2 478.8,315.1 479.7,437.9 513.7,401.2 513.7,307.1 495,306.9 "/>
<polygon class="st0" points="520,330.2 579.9,330.2 579.6,385.2 613.9,418.1 614.1,293.8 559.3,242.1 537,266.2 578,306.6 
	519.8,307 "/>
<path class="st1" d="M375,225.7"/>
</svg>
